<?xml version="1.0" encoding="utf-8"?>
<!-- Generator: Adobe Illustrator 16.0.0, SVG Export Plug-In . SVG Version: 6.00 Build 0)  -->
<!DOCTYPE svg PUBLIC "-//W3C//DTD SVG 1.1//EN" "http://www.w3.org/Graphics/SVG/1.1/DTD/svg11.dtd">
<svg version="1.1" id="Layer_1" xmlns="http://www.w3.org/2000/svg" xmlns:xlink="http://www.w3.org/1999/xlink" x="0px" y="0px"
	 width="1400px" height="980px" viewBox="0 0 1400 980" enable-background="new 0 0 1400 980" xml:space="preserve">
<g>
	<g>
		<g>
			<g>
				<rect x="0" fill="#FFFFFF" width="1399.992" height="980"/>
			</g>
		</g>
	</g>
	<g>
		<g>
			<path fill="#A7A9AC" d="M352.542,93.006c0.705,1.163,1.405,2.157,2.135,3.034c4.605,5.521,11.362,8.748,18.542,8.849l0.352,0.018
				c1.022,0,2.085-0.08,3.352-0.255c12.112-1.662,21.247-12.123,21.247-24.337c0-13.563-11.034-24.597-24.599-24.597
				c-13.563,0-24.595,11.034-24.595,24.597C348.976,84.769,350.208,89.158,352.542,93.006z M373.571,64.163
				c8.908,0,16.156,7.246,16.156,16.151c0,7.896-5.653,14.587-13.443,15.912c-0.973,0.167-1.859,0.249-2.712,0.249
				c-0.149,0-0.754-0.039-0.754-0.039c-4.37-0.203-8.387-2.125-11.307-5.407c-0.787-0.888-1.467-1.837-2.021-2.822
				c-1.357-2.41-2.075-5.139-2.075-7.892C357.415,71.409,364.663,64.163,373.571,64.163z"/>
		</g>
		<g>
			<path fill="#808285" d="M363.49,89.821c2.379,2.524,5.584,4.056,9.029,4.316c0.35,0.028,0.698,0.054,1.052,0.054
				c0.912,0,1.831-0.091,2.734-0.272c6.453-1.297,11.138-7.019,11.138-13.604c0-7.646-6.224-13.867-13.872-13.867
				c-7.65,0-13.872,6.222-13.872,13.867c0,2.224,0.547,4.443,1.582,6.42C361.865,87.848,362.608,88.885,363.49,89.821z"/>
		</g>
		<g>
			<path fill="#FF845E" d="M644.408,123.453c-0.102,0.625-0.19,1.243-0.19,1.906c0,0.666,0.089,1.284,0.19,1.911
				c0.339,2.109,1.247,4.106,2.632,5.774c0.848,1.027,1.807,1.882,2.853,2.544c1.37,0.866,2.898,1.439,4.536,1.703
				c0.599,0.097,1.241,0.19,1.91,0.19c0.675,0,1.314-0.093,1.911-0.19c1.392-0.223,2.738-0.698,4-1.409
				c1.143-0.646,2.152-1.441,2.998-2.366c2.07-2.258,3.211-5.154,3.211-8.156c0-5.744-4.084-10.74-9.709-11.879l-0.621-0.125
				l-0.004,0.02c-0.607-0.091-1.201-0.137-1.785-0.137C650.371,113.238,645.353,117.534,644.408,123.453z"/>
		</g>
		<g>
			<path fill="#59D1FF" d="M421.898,215.472l-0.153-0.086h-22.482l1.517,25.969l26.808,30.464h16.329l2.872-4.16l-0.006-0.218
				C445.665,231.736,427.452,218.635,421.898,215.472z"/>
		</g>
		<g>
			<path fill="#FFC547" d="M424.147,205.794l-0.132-0.06h-34.987l4.421,75.742h55.539l7.499-10.881l-0.002-0.208
				C456.267,221.933,427.435,207.303,424.147,205.794z M449.092,268.339l-3.976,5.766h-18.557l-28.013-31.834l-1.703-29.171h25.483
				l0.251,0.14c5.973,3.261,25.521,16.83,26.507,54.734L449.092,268.339z"/>
		</g>
		<g>
			<path fill="#FF845E" d="M152.409,131.697c2.239,3.622,6.085,5.783,10.287,5.783c0.121,0,0.238-0.013,0.352-0.031
				c1.688-0.082,3.123-0.397,4.415-0.953c3.825-1.64,6.505-5.091,7.166-9.23c0.1-0.625,0.19-1.243,0.19-1.908
				c0-0.663-0.09-1.281-0.19-1.908c-0.899-5.625-5.686-9.899-11.384-10.161c-0.294-0.037-0.419-0.052-0.549-0.052
				c-2.429,0-4.776,0.72-6.786,2.085c-3.341,2.265-5.333,6.016-5.333,10.036c0,0.722,0.073,1.465,0.227,2.273
				C151.074,129.043,151.614,130.409,152.409,131.697z"/>
		</g>
		<g>
			<rect x="614.424" y="206.938" fill="#FF845E" width="70.917" height="11.36"/>
		</g>
		<g>
			<rect x="580.336" y="382.346" fill="#A7A9AC" width="139.09" height="3.836"/>
		</g>
		<g>
			<rect x="580.336" y="388.471" fill="#A7A9AC" width="139.09" height="10.42"/>
		</g>
		<g>
			<polygon fill="#FFC547" points="664.646,284.748 635.118,284.748 642.554,308.199 657.208,308.199 			"/>
		</g>
		<g>
			<rect x="580.336" y="401.175" fill="#A7A9AC" width="139.09" height="6.771"/>
		</g>
		<g>
			<path fill="#A7A9AC" d="M261.835,634.737H422.57V536.2H261.835V634.737z M281.799,556.443h120.806v58.054H281.799V556.443z"/>
		</g>
		<g>
			<rect x="284.081" y="558.73" fill="#808285" width="116.237" height="53.481"/>
		</g>
		<g>
			<rect x="236.361" y="637.025" fill="#A7A9AC" width="206.858" height="22.913"/>
		</g>
		<g>
			<path d="M593.734,198.309l0.514-0.583h120.94l-49.029-61.821l0.413-0.419c2.69-2.721,4.173-6.317,4.173-10.127
				c0-6.82-4.865-12.75-11.566-14.101l-0.517-0.115L388.203,57.801l-0.108-0.069c-4.353-2.812-9.376-4.298-14.524-4.298
				c-3.717,0-7.334,0.761-10.842,2.293l-199.662,55.214l-0.372,0.013c-7.944,0-14.405,6.461-14.405,14.405
				c0,1.8,0.343,3.579,1.02,5.284l0.143,0.363l-54.618,66.72h122.794l0.51,0.587l0.516-0.587h85.661l-22.444,336.195h-22.323
				v100.816h-25.475v27.487h211.431v-27.487h-20.65V533.921h-22.319l-20.621-336.195h86.113l0.514,0.585l0.514-0.585h124.167
				L593.734,198.309z M655.198,195.439h-58.94l51.458-58.54l0.484,0.335c1.902,1.308,4.119,2.144,6.414,2.417l0.583,0.07V195.439z
				 M710.462,195.439h-52.979v-55.715l0.583-0.072c2.064-0.248,4.013-0.931,5.796-2.031l0.501-0.309L710.462,195.439z
				 M658.124,113.375l0.004-0.02l0.621,0.125c5.625,1.139,9.709,6.135,9.709,11.879c0,3.002-1.141,5.897-3.211,8.156
				c-0.845,0.925-1.854,1.72-2.998,2.366c-1.262,0.711-2.608,1.186-4,1.409c-0.596,0.097-1.236,0.19-1.911,0.19
				c-0.669,0-1.311-0.093-1.91-0.19c-1.638-0.264-3.166-0.836-4.536-1.703c-1.046-0.662-2.005-1.517-2.853-2.544
				c-1.385-1.668-2.292-3.665-2.632-5.774c-0.102-0.627-0.19-1.245-0.19-1.911c0-0.663,0.089-1.281,0.19-1.906
				c0.944-5.919,5.962-10.215,11.931-10.215C656.923,113.238,657.517,113.283,658.124,113.375z M650.859,111.928l-1.564,0.884
				c-3.994,2.25-6.699,6.295-7.244,10.825l-0.069,0.583H377.406l-1.054-17.187l0.618-0.08c13.385-1.699,23.482-13.152,23.482-26.639
				c0-6.595-2.451-12.959-6.902-17.917l-1.327-1.478L650.859,111.928z M290.142,456.42l52.381-39.24l52.165,39.236l-52.375,36.21
				L290.142,456.42z M397.813,533.921H286.596L342.31,495.4L397.813,533.921z M295.318,378.817l47.398-33.178l47.212,33.174
				l-47.404,35.51L295.318,378.817z M299.742,312.651l43.149-31.75l42.977,31.748l-43.145,30.2L299.742,312.651z M303.917,249.272
				l39.143-29.857l38.972,29.857l-39.136,28.793L303.917,249.272z M318.493,197.726h24.335l0.514,0.585l0.515-0.585h23.877
				l-24.674,18.82L318.493,197.726z M363.142,172.322l-18.094-16.607l30.317-27.501l1.731,28.234L363.142,172.322z M377.294,159.683
				l1.664,27.16l-14.133-12.975L377.294,159.683z M361.638,174.034l-18.295,20.813l-18.379-20.91l18.391-16.685L361.638,174.034z
				 M373.86,126.5l-30.499,27.666l-30.14-27.666H373.86z M313.855,124.22l38.507-27.408l0.393,0.482
				c5.111,6.254,12.653,9.86,20.696,9.895l0.622,0.002l1.046,17.029H313.855z M341.668,155.702l-18.211,16.519l-14.082-16.017
				l1.896-28.398L341.668,155.702z M321.762,173.757l-14.433,13.094l1.833-27.43L321.762,173.757z M307.249,153.783L283.268,126.5
				h25.803L307.249,153.783z M311.763,195.439h-5.009l0.247-3.646L311.763,195.439z M307.783,189.52l15.486-14.049l17.552,19.968
				h-25.31L307.783,189.52z M345.864,195.439l17.457-19.86l15.177,13.932l-7.769,5.928H345.864z M379.263,191.8l0.227,3.639h-4.996
				L379.263,191.8z M379.235,154.014l-1.688-27.514h25.872L379.235,154.014z M373.571,55.718c13.565,0,24.599,11.034,24.599,24.597
				c0,12.214-9.135,22.676-21.247,24.337c-1.267,0.175-2.33,0.255-3.352,0.255l-0.352-0.018c-7.179-0.101-13.937-3.328-18.542-8.849
				c-0.73-0.877-1.431-1.872-2.135-3.034c-2.334-3.849-3.566-8.238-3.566-12.692C348.976,66.752,360.008,55.718,373.571,55.718z
				 M355.87,59.988l-1.673,1.744c-4.841,5.044-7.507,11.644-7.507,18.583c0,4.958,1.396,9.833,4.037,14.094l0.329,0.53
				l-41.133,29.282h-132.86l-0.071-0.583c-0.555-4.62-3.334-8.711-7.434-10.941l-1.441-0.785L355.87,59.988z M155.91,115.323
				c2.01-1.366,4.356-2.085,6.786-2.085c0.129,0,0.255,0.015,0.549,0.052c5.699,0.262,10.485,4.536,11.384,10.161
				c0.1,0.627,0.19,1.245,0.19,1.908c0,0.666-0.09,1.284-0.19,1.908c-0.661,4.139-3.341,7.59-7.166,9.23
				c-1.292,0.555-2.727,0.871-4.415,0.953c-0.114,0.018-0.231,0.031-0.352,0.031c-4.201,0-8.048-2.161-10.287-5.783
				c-0.795-1.288-1.335-2.654-1.605-4.065c-0.154-0.808-0.227-1.551-0.227-2.273C150.577,121.339,152.569,117.588,155.91,115.323z
				 M99.659,195.439l50.944-62.242l0.508,0.687c2.716,3.683,7.047,5.882,11.585,5.882c1.043,0,2.122-0.125,3.203-0.372l0.387-0.089
				l49.338,56.133H99.659z M217.975,195.048l-0.493-0.618c-3.047-3.799-10.853-12.679-29.781-34.211l-19.08-21.71l0.748-0.393
				c4.208-2.211,7.058-6.334,7.62-11.032l0.071-0.583h101.158L217.975,195.048z M220.663,195.439l60.081-68.349L307.033,157
				l-2.565,38.438H220.663z M306.603,197.726h8.143l26.438,20.253l-37.861,28.88L306.603,197.726z M303.018,251.449l37.952,28.033
				l-41.881,30.814L303.018,251.449z M298.791,314.775l41.939,29.468l-46.061,32.24L298.791,314.775z M294.372,380.959l46.25,34.79
				l-51.13,38.302L294.372,380.959z M289.193,458.54l51.113,35.473l-56.07,38.765L289.193,458.54z M443.219,637.025v22.913H236.361
				v-22.913H443.219z M422.57,536.2v98.537H261.835V536.2H422.57z M400.18,532.782l-55.863-38.767l51.307-35.474L400.18,532.782z
				 M395.35,454.06l-50.924-38.307l46.442-34.786L395.35,454.06z M390.591,376.483l-45.885-32.238l42.101-29.472L390.591,376.483z
				 M386.533,310.3l-41.714-30.813l38.104-28.039L386.533,310.3z M382.641,246.863l-37.701-28.88l26.557-20.257h8.132
				L382.641,246.863z M381.776,195.439l-2.343-38.192l26.509-30.157l60.075,68.349H381.776z M468.542,194.847L408.467,126.5h120.151
				L468.542,194.847z M471.065,195.439l60.077-68.349l60.075,68.349H471.065z M563.298,160.219L533.667,126.5h108.315l0.069,0.583
				c0.35,2.926,1.586,5.645,3.566,7.86l0.394,0.438l-52.442,59.666l-0.495-0.618C589.961,190.542,581.604,181.04,563.298,160.219z"
				/>
		</g>
		<g>
			<path d="M402.604,556.443H281.799v58.054h120.806V556.443z M400.318,612.212H284.081V558.73h116.237V612.212z"/>
		</g>
		<g>
			<path d="M424.794,203.566l-0.545-0.117h-37.641l4.689,80.306h58.89l8.586-12.45v-0.352
				C458.774,217.849,425.014,203.668,424.794,203.566z M456.487,270.595l-7.499,10.881H393.45l-4.421-75.742h34.987l0.132,0.06
				c3.287,1.509,32.12,16.139,32.338,64.593L456.487,270.595z"/>
		</g>
		<g>
			<path d="M422.577,213.239l-0.251-0.14h-25.483l1.703,29.171l28.013,31.834h18.557l3.976-5.766l-0.009-0.365
				C448.098,230.069,428.55,216.5,422.577,213.239z M446.789,267.658l-2.872,4.16h-16.329l-26.808-30.464l-1.517-25.969h22.482
				l0.153,0.086c5.554,3.164,23.767,16.264,24.884,51.968L446.789,267.658z"/>
		</g>
		<g>
			<path d="M720.831,380.062l-66.889-31.968l1.455-0.549c1.889-0.715,3.587-1.757,5.052-3.103l-1.621-1.619
				c-2.455,2.23-5.605,3.449-8.947,3.449c-7.356,0-13.34-5.982-13.34-13.334c0-7.356,5.984-13.34,13.34-13.34h1.141v-9.118h7.857
				l8.886-28.018h-16.744v-61.878h36.599v-15.931h-75.48v15.931h36.597v61.878h-16.741l8.886,28.018h7.855v6.863l-0.589,0.065
				c-7.918,0.879-13.892,7.555-13.892,15.529c0,6.442,4.067,12.31,10.118,14.6l1.452,0.549l-66.897,31.975h-0.877v30.17H721.71
				v-30.17H720.831z M614.424,218.298v-11.36h70.917v11.36H614.424z M642.554,308.199l-7.436-23.452h29.528l-7.438,23.452H642.554z
				 M649.88,348.684l63.009,30.116l-0.285,1.262H587.161l-0.288-1.262L649.88,348.684z M719.426,407.946h-139.09v-6.771h139.09
				V407.946z M719.426,398.891h-139.09v-10.42h139.09V398.891z M719.426,386.182h-139.09v-3.836h139.09V386.182z"/>
		</g>
		<g>
			<path d="M361.51,91.029c2.919,3.283,6.937,5.204,11.307,5.407c0,0,0.605,0.039,0.754,0.039c0.854,0,1.74-0.082,2.712-0.249
				c7.79-1.325,13.443-8.015,13.443-15.912c0-8.905-7.248-16.151-16.156-16.151s-16.156,7.246-16.156,16.151
				c0,2.753,0.717,5.482,2.075,7.892C360.043,89.192,360.724,90.141,361.51,91.029z M373.571,66.447
				c7.648,0,13.872,6.222,13.872,13.867c0,6.585-4.685,12.307-11.138,13.604c-0.903,0.181-1.822,0.272-2.734,0.272
				c-0.354,0-0.702-0.026-1.052-0.054c-3.445-0.26-6.649-1.792-9.029-4.316c-0.882-0.936-1.625-1.973-2.208-3.086
				c-1.035-1.977-1.582-4.197-1.582-6.42C359.699,72.669,365.921,66.447,373.571,66.447z"/>
		</g>
	</g>
	<g>
		<path fill="#B8EFFF" d="M965.799,191.417c-4.254-6.846-11.821-11.43-20.457-11.43h-6.349
			c-1.301-10.332-6.056-19.585-13.087-26.557c-8.563-11.68-22.371-19.287-37.933-19.287c-15.082,0-29.22,7.246-38.071,19.447
			c-6.386-2.507-13.113-3.773-20.009-3.773c-20.865,0-39.523,11.536-48.928,30.17h-21.012c-13.284,0-24.094,10.807-24.094,24.095
			c0,10.876,7.251,20.081,17.168,23.065c3.647,2.537,8.069,4.032,12.849,4.032h16.062c6.156,11.121,15.922,19.605,27.406,24.277
			c7.797,4.489,16.825,7.069,26.472,7.069c21.602,0,40.159-12.873,48.528-31.346h66.919c12.449,0,22.542-10.092,22.542-22.54
			C973.806,201.73,970.691,195.554,965.799,191.417z"/>
		<path d="M835.816,263.632c-9.478,0-18.822-2.496-27.025-7.216c-11.521-4.676-21.308-13.253-27.501-24.13h-15.413
			c-4.782,0-9.39-1.428-13.338-4.13c-10.48-3.237-17.785-13.108-17.785-24.074c0-13.896,11.305-25.202,25.2-25.202h20.337
			c9.68-18.628,28.623-30.17,49.603-30.17c6.753,0,13.349,1.193,19.62,3.544c9.072-12.05,23.385-19.218,38.46-19.218
			c15.25,0,29.764,7.38,38.822,19.739c7.015,6.935,11.7,16.214,13.161,26.105h5.385c8.689,0,16.641,4.408,21.304,11.803
			c5.258,4.51,8.269,11.045,8.269,17.956c0,13.038-10.609,23.646-23.65,23.646h-66.21
			C876.111,251.354,856.865,263.632,835.816,263.632z M759.954,181.094c-12.675,0-22.987,10.313-22.987,22.989
			c0,10.053,6.736,19.104,16.381,22.006l0.312,0.151c3.606,2.507,7.831,3.833,12.218,3.833h16.714l0.315,0.571
			c5.926,10.706,15.465,19.153,26.853,23.789c8.003,4.594,16.966,6.986,26.058,6.986c20.418,0,39.072-12.05,47.521-30.695
			l0.294-0.65h67.632c11.82,0,21.437-9.614,21.437-21.433c0-6.316-2.774-12.288-7.616-16.378L964.858,192
			c-4.242-6.829-11.54-10.906-19.517-10.906h-7.325l-0.121-0.968c-1.229-9.764-5.766-18.965-12.77-25.909
			c-8.759-11.927-22.604-18.967-37.152-18.967c-14.652,0-28.55,7.099-37.177,18.991l-0.502,0.691l-0.797-0.311
			c-6.247-2.453-12.845-3.698-19.604-3.698c-20.369,0-38.736,11.328-47.938,29.563l-0.307,0.607H759.954z"/>
	</g>
	<g>
		<g>
			<rect x="166.536" y="472.621" fill="#FF7571" width="122.312" height="147.581"/>
			<path d="M289.954,621.309H165.429V471.515h124.525V621.309z M167.642,619.096h120.099V473.728H167.642V619.096z"/>
		</g>
		<g>
			<rect x="189.341" y="499.115" fill="#FFFFFF" width="73.937" height="60.81"/>
			<path d="M264.385,561.031h-76.15v-63.022h76.15V561.031z M190.448,558.818h71.724v-58.597h-71.724V558.818z"/>
		</g>
		<g>
			<rect x="288.848" y="472.621" fill="#FF7571" width="122.31" height="147.581"/>
			<path d="M412.264,621.309H287.741V471.515h124.523V621.309z M289.954,619.096h120.097V473.728H289.954V619.096z"/>
		</g>
		<g>
			<rect x="311.651" y="499.115" fill="#FFFFFF" width="73.939" height="60.81"/>
			<path d="M386.697,561.031h-76.152v-63.022h76.152V561.031z M312.757,558.818h71.727v-58.597h-71.727V558.818z"/>
		</g>
		<g>
			<rect x="411.158" y="472.621" fill="#FF7571" width="122.312" height="147.581"/>
			<path d="M534.576,621.309H410.051V471.515h124.525V621.309z M412.264,619.096h120.1V473.728h-120.1V619.096z"/>
		</g>
		<g>
			<rect x="411.158" y="325.042" fill="#FF7571" width="122.312" height="147.581"/>
			<path d="M534.576,473.729H410.051V323.936h124.525V473.729z M412.264,471.517h120.1V326.149h-120.1V471.517z"/>
		</g>
		<g>
			<rect x="787.174" y="620.202" fill="#FFA745" width="122.313" height="147.581"/>
			<path d="M910.593,768.89H786.068V619.096h124.524V768.89z M788.281,766.677H908.38V621.309H788.281V766.677z"/>
		</g>
		<g>
			<rect x="433.961" y="499.115" fill="#FFFFFF" width="73.941" height="60.81"/>
			<path d="M509.009,561.031h-76.154v-63.022h76.154V561.031z M435.067,558.818h71.729v-58.597h-71.729V558.818z"/>
		</g>
		<g>
			<rect x="533.47" y="472.621" fill="#00BCCB" width="122.312" height="147.581"/>
			<path d="M656.888,621.309H532.364V471.515h124.524V621.309z M534.576,619.096h120.099V473.728H534.576V619.096z"/>
		</g>
		<g>
			<rect x="556.273" y="499.115" fill="#FFFFFF" width="73.94" height="60.81"/>
			<path d="M631.318,561.031h-76.152v-63.022h76.152V561.031z M557.379,558.818h71.727v-58.597h-71.727V558.818z"/>
		</g>
		<g>
			<rect x="166.536" y="620.202" fill="#FF7571" width="122.312" height="147.581"/>
			<path d="M289.954,768.89H165.429V619.096h124.525V768.89z M167.642,766.677h120.099V621.309H167.642V766.677z"/>
		</g>
		<g>
			<rect x="189.341" y="646.696" fill="#FFFFFF" width="73.937" height="60.809"/>
			<path d="M264.385,708.611h-76.15V645.59h76.15V708.611z M190.448,706.398h71.724v-58.596h-71.724V706.398z"/>
		</g>
		<g>
			<rect x="288.848" y="620.202" fill="#FF7571" width="122.31" height="147.581"/>
			<path d="M412.264,768.89H287.741V619.096h124.523V768.89z M289.954,766.677h120.097V621.309H289.954V766.677z"/>
		</g>
		<g>
			<rect x="311.651" y="646.696" fill="#FFFFFF" width="73.939" height="60.809"/>
			<path d="M386.697,708.611h-76.152V645.59h76.152V708.611z M312.757,706.398h71.727v-58.596h-71.727V706.398z"/>
		</g>
		<g>
			<rect x="411.158" y="620.202" fill="#FF7571" width="122.312" height="147.581"/>
			<path d="M534.576,768.89H410.051V619.096h124.525V768.89z M412.264,766.677h120.1V621.309h-120.1V766.677z"/>
		</g>
		<g>
			<rect x="433.961" y="646.696" fill="#FFFFFF" width="73.941" height="60.809"/>
			<path d="M509.009,708.611h-76.154V645.59h76.154V708.611z M435.067,706.398h71.729v-58.596h-71.729V706.398z"/>
		</g>
		<g>
			<rect x="533.47" y="620.202" fill="#FF7571" width="122.312" height="147.581"/>
			<path d="M656.888,768.89H532.364V619.096h124.524V768.89z M534.576,766.677h120.099V621.309H534.576V766.677z"/>
		</g>
		<g>
			<rect x="556.273" y="646.696" fill="#FFFFFF" width="73.94" height="60.809"/>
			<path d="M631.318,708.611h-76.152V645.59h76.152V708.611z M557.379,706.398h71.727v-58.596h-71.727V706.398z"/>
		</g>
		<g>
			<rect x="287.741" y="472.621" width="2.213" height="147.581"/>
		</g>
		<g>
			<rect x="91.213" y="471.515" width="197.634" height="2.213"/>
		</g>
		<g>
			<rect x="31.824" y="619.096" width="257.024" height="2.213"/>
		</g>
		<g>
			<rect x="532.364" y="263.302" width="2.212" height="209.319"/>
		</g>
		<g>
			<rect x="410.051" y="295.953" width="2.213" height="176.668"/>
		</g>
		<g>
			<rect x="410.051" y="392.35" width="2.213" height="80.271"/>
		</g>
		<g>
			<g>
				<g>
					<g>
						<g>
							<path fill="#FFA745" d="M909.486,414.906h112.373V300.75H909.486V414.906z M941.832,324.606c0-0.612,0.498-1.094,1.107-1.094
								h42.008c0.603,0,1.096,0.482,1.096,1.094v65.166c0,0.618-0.493,1.104-1.096,1.104h-42.008c-0.609,0-1.107-0.486-1.107-1.104
								V324.606z"/>
						</g>
					</g>
				</g>
			</g>
			<g>
				<g>
					<g>
						<g>
							<rect x="1062.249" y="678.578" fill="#FFFFFF" width="39.807" height="62.985"/>
						</g>
					</g>
				</g>
			</g>
			<g>
				<g>
					<g>
						<g>
							<rect x="1062.249" y="560.943" fill="#FFFFFF" width="39.807" height="62.986"/>
						</g>
					</g>
				</g>
			</g>
			<g>
				<g>
					<g>
						<g>
							<path fill="#FFA745" d="M1024.056,767.783h110.353V652.348h-110.353V767.783z M1060.045,677.484
								c0-0.614,0.496-1.104,1.111-1.104h41.995c0.615,0,1.1,0.49,1.1,1.104v65.166c0,0.609-0.484,1.098-1.1,1.098h-41.995
								c-0.615,0-1.111-0.488-1.111-1.098V677.484z"/>
						</g>
					</g>
				</g>
			</g>
			<g>
				<g>
					<g>
						<g>
							<path fill="#FFA745" d="M1024.056,650.162h110.353V534.718h-110.353V650.162z M1060.045,559.847
								c0-0.605,0.496-1.101,1.111-1.101h41.995c0.615,0,1.1,0.495,1.1,1.101v65.177c0,0.613-0.484,1.106-1.1,1.106h-41.995
								c-0.615,0-1.111-0.493-1.111-1.106V559.847z"/>
						</g>
					</g>
				</g>
			</g>
			<g>
				<g>
					<g>
						<g>
							<rect x="944.034" y="678.578" fill="#FFFFFF" width="39.817" height="62.985"/>
						</g>
					</g>
				</g>
			</g>
			<g>
				<g>
					<g>
						<g>
							<path fill="#FFA745" d="M909.486,767.783h112.373V652.348H909.486V767.783z M941.832,677.484
								c0-0.614,0.498-1.104,1.107-1.104h42.008c0.603,0,1.096,0.49,1.096,1.104v65.166c0,0.609-0.493,1.098-1.096,1.098h-42.008
								c-0.609,0-1.107-0.488-1.107-1.098V677.484z"/>
						</g>
					</g>
				</g>
			</g>
			<g>
				<g>
					<g>
						<g>
							<path fill="#FFA745" d="M909.486,650.162h112.373V534.718H909.486V650.162z M941.832,559.847
								c0-0.605,0.498-1.101,1.107-1.101h42.008c0.603,0,1.096,0.495,1.096,1.101v65.177c0,0.613-0.493,1.106-1.096,1.106h-42.008
								c-0.609,0-1.107-0.493-1.107-1.106V559.847z"/>
						</g>
					</g>
				</g>
			</g>
			<g>
				<g>
					<g>
						<g>
							<rect x="944.034" y="325.693" fill="#FFFFFF" width="39.817" height="62.981"/>
						</g>
					</g>
				</g>
			</g>
			<g>
				<g>
					<g>
						<g>
							<rect x="944.034" y="443.32" fill="#FFFFFF" width="39.817" height="62.99"/>
						</g>
					</g>
				</g>
			</g>
			<g>
				<g>
					<g>
						<g>
							<path fill="#FFA745" d="M909.486,532.533h112.373V417.1H909.486V532.533z M941.832,442.229c0-0.612,0.498-1.103,1.107-1.103
								h42.008c0.603,0,1.096,0.491,1.096,1.103v65.174c0,0.602-0.493,1.101-1.096,1.101h-42.008c-0.609,0-1.107-0.499-1.107-1.101
								V442.229z"/>
						</g>
					</g>
				</g>
			</g>
			<g>
				<g>
					<g>
						<g>
							<rect x="944.034" y="560.943" fill="#FFFFFF" width="39.817" height="62.986"/>
						</g>
					</g>
				</g>
			</g>
			<g>
				<g>
					<g>
						<g>
							<rect x="1169.938" y="678.578" fill="#FFFFFF" width="39.814" height="62.985"/>
						</g>
					</g>
				</g>
			</g>
			<g>
				<g>
					<g>
						<g>
							<path fill="#FFA745" d="M1136.605,767.783h109.811V652.348h-109.811V767.783z M1167.756,677.484
								c0-0.614,0.483-1.104,1.088-1.104h42.016c0.601,0,1.089,0.49,1.089,1.104v65.166c0,0.609-0.488,1.098-1.089,1.098h-42.016
								c-0.604,0-1.088-0.488-1.088-1.098V677.484z"/>
						</g>
					</g>
				</g>
			</g>
			<g>
				<g>
					<g>
						<g>
							<path fill="#231F20" d="M1061.156,626.13h41.995c0.615,0,1.1-0.493,1.1-1.106v-65.177c0-0.605-0.484-1.101-1.1-1.101h-41.995
								c-0.615,0-1.111,0.495-1.111,1.101v65.177C1060.045,625.637,1060.541,626.13,1061.156,626.13z M1062.249,560.943h39.807
								v62.986h-39.807V560.943z"/>
						</g>
					</g>
				</g>
			</g>
			<g>
				<g>
					<g>
						<g>
							<path fill="#231F20" d="M1061.156,743.748h41.995c0.615,0,1.1-0.488,1.1-1.098v-65.166c0-0.614-0.484-1.104-1.1-1.104
								h-41.995c-0.615,0-1.111,0.49-1.111,1.104v65.166C1060.045,743.26,1060.541,743.748,1061.156,743.748z M1062.249,678.578
								h39.807v62.985h-39.807V678.578z"/>
						</g>
					</g>
				</g>
			</g>
			<g>
				<g>
					<g>
						<g>
							<path fill="#231F20" d="M942.939,390.876h42.008c0.603,0,1.096-0.486,1.096-1.104v-65.166c0-0.612-0.493-1.094-1.096-1.094
								h-42.008c-0.609,0-1.107,0.482-1.107,1.094v65.166C941.832,390.39,942.33,390.876,942.939,390.876z M944.034,325.693h39.817
								v62.981h-39.817V325.693z"/>
						</g>
					</g>
				</g>
			</g>
			<g>
				<g>
					<g>
						<g>
							<path fill="#231F20" d="M942.939,508.503h42.008c0.603,0,1.096-0.499,1.096-1.101v-65.174c0-0.612-0.493-1.103-1.096-1.103
								h-42.008c-0.609,0-1.107,0.491-1.107,1.103v65.174C941.832,508.004,942.33,508.503,942.939,508.503z M944.034,443.32h39.817
								v62.99h-39.817V443.32z"/>
						</g>
					</g>
				</g>
			</g>
			<g>
				<g>
					<g>
						<g>
							<path fill="#231F20" d="M942.939,626.13h42.008c0.603,0,1.096-0.493,1.096-1.106v-65.177c0-0.605-0.493-1.101-1.096-1.101
								h-42.008c-0.609,0-1.107,0.495-1.107,1.101v65.177C941.832,625.637,942.33,626.13,942.939,626.13z M944.034,560.943h39.817
								v62.986h-39.817V560.943z"/>
						</g>
					</g>
				</g>
			</g>
			<g>
				<g>
					<g>
						<g>
							<path fill="#231F20" d="M942.939,743.748h42.008c0.603,0,1.096-0.488,1.096-1.098v-65.166c0-0.614-0.493-1.104-1.096-1.104
								h-42.008c-0.609,0-1.107,0.49-1.107,1.104v65.166C941.832,743.26,942.33,743.748,942.939,743.748z M944.034,678.578h39.817
								v62.985h-39.817V678.578z"/>
						</g>
					</g>
				</g>
			</g>
			<g>
				<g>
					<g>
						<g>
							<path fill="#231F20" d="M1168.844,743.748h42.016c0.601,0,1.089-0.488,1.089-1.098v-65.166c0-0.614-0.488-1.104-1.089-1.104
								h-42.016c-0.604,0-1.088,0.49-1.088,1.104v65.166C1167.756,743.26,1168.239,743.748,1168.844,743.748z M1169.938,678.578
								h39.814v62.985h-39.814V678.578z"/>
						</g>
					</g>
				</g>
			</g>
			<g>
				<g>
					<g>
						<rect x="900.54" y="414.857" width="186.401" height="2.103"/>
					</g>
				</g>
			</g>
			<g>
				<g>
					<g>
						<rect x="900.54" y="299.698" width="153.983" height="2.101"/>
					</g>
				</g>
			</g>
			<g>
				<g>
					<g>
						<rect x="854.834" y="532.287" width="377.335" height="2.103"/>
					</g>
				</g>
			</g>
			<g>
				<g>
					<g>
						<rect x="1021.907" y="275.019" width="2.103" height="492.764"/>
					</g>
				</g>
			</g>
			<g>
				<g>
					<g>
						<rect x="908.436" y="275.019" width="2.101" height="492.764"/>
					</g>
				</g>
			</g>
			<g>
				<g>
					<g>
						<rect x="1134.35" y="491.037" width="2.101" height="276.746"/>
					</g>
				</g>
			</g>
			<g>
				<g>
					<g>
						<rect x="896.434" y="649.959" width="384.359" height="2.103"/>
					</g>
				</g>
			</g>
		</g>
		<g>
			<circle fill="#00BCCB" cx="700.695" cy="568.317" r="229.359"/>
			<path d="M700.696,798.785c-127.081,0-230.467-103.388-230.467-230.468c0-127.079,103.386-230.464,230.467-230.464
				c127.077,0,230.465,103.385,230.465,230.464C931.161,695.397,827.773,798.785,700.696,798.785z M700.696,340.066
				c-125.86,0-228.254,102.394-228.254,228.251c0,125.86,102.394,228.255,228.254,228.255
				c125.858,0,228.252-102.395,228.252-228.255C928.948,442.459,826.555,340.066,700.696,340.066z"/>
		</g>
		<g>
			<polygon fill="#E3BDA6" points="700.696,500.943 700,500.641 657.102,519.541 657.102,544.088 700,557.309 700.696,557.098 
				742.903,544.088 742.903,519.541 			"/>
			<path d="M700,558.414c-0.108,0-0.218-0.018-0.324-0.05l-42.901-13.219c-0.462-0.144-0.78-0.571-0.78-1.058v-24.547
				c0-0.438,0.259-0.836,0.659-1.014l42.901-18.9c0.281-0.127,0.605-0.127,0.888,0l0.694,0.303l42.213,18.598
				c0.4,0.178,0.658,0.575,0.658,1.014v24.547c0,0.486-0.316,0.914-0.779,1.058l-42.909,13.221
				C700.217,558.398,700.108,558.414,700,558.414z M658.208,543.271l41.796,12.88l0.372-0.112l41.42-12.768v-23.009l-41.792-18.414
				l-41.796,18.414V543.271z"/>
		</g>
		<g>
			<path fill="#F8CEB5" d="M782.658,437.504c0,0,0.745-15.702-11.422-11.391c1.928-6.432,3.374-12.51,4.418-18.26h-74.958h-79.72
				c0.597,6.657,1.725,12.654,2.922,17.582c-7.086,0.95-6.565,12.069-6.565,12.069c-1.28,35.852,20.906,41.816,20.906,41.816
				C647.626,535.188,700,544.088,700,544.088s0.247-0.038,0.696-0.134c6.181-1.279,52.299-12.534,61.056-64.634
				C761.752,479.32,783.939,473.356,782.658,437.504z"/>
			<path d="M700,545.195c-0.061,0-0.123-0.005-0.186-0.016c-0.527-0.091-52.85-9.611-62.555-65.025
				c-3.832-1.424-22.201-9.988-21.031-42.689c-0.021-0.383-0.43-10.861,6.332-12.873c-1.288-5.515-2.191-11.108-2.686-16.64
				c-0.03-0.309,0.073-0.616,0.285-0.847c0.208-0.229,0.506-0.358,0.817-0.358h154.678c0.328,0,0.64,0.145,0.849,0.397
				c0.209,0.25,0.299,0.583,0.24,0.905c-0.973,5.357-2.275,10.883-3.879,16.454c3.189-0.672,5.771,0.024,7.658,2.003
				c3.546,3.717,3.255,10.751,3.239,11.049c1.17,32.619-17.197,41.174-21.031,42.598c-9.197,52.528-56.435,63.77-61.809,64.883
				c-0.48,0.102-0.748,0.145-0.748,0.145C700.117,545.19,700.059,545.195,700,545.195z M622.19,408.959
				c0.542,5.4,1.479,10.848,2.784,16.214c0.073,0.305,0.015,0.627-0.16,0.886c-0.177,0.259-0.458,0.43-0.769,0.471
				c-5.995,0.806-5.61,10.822-5.606,10.921c-1.231,34.56,19.218,40.561,20.089,40.8c0.415,0.115,0.73,0.458,0.802,0.884
				c8.869,52.787,57.317,63.173,60.677,63.828c0.108-0.021,0.262-0.052,0.458-0.093c5.253-1.087,51.517-12.103,60.195-63.735
				c0.072-0.426,0.385-0.77,0.803-0.884c0.87-0.24,21.319-6.241,20.09-40.709c0.003-0.153,0.256-6.485-2.636-9.513
				c-1.664-1.744-4.089-2.016-7.309-0.874c-0.394,0.137-0.83,0.046-1.133-0.242c-0.302-0.287-0.419-0.719-0.298-1.119
				c1.707-5.692,3.099-11.348,4.145-16.836H622.19z"/>
		</g>
		<g>
			<path fill="#FFC547" d="M756.408,316.394v22.87c0,6.74-5.461,12.199-12.195,12.199c-6.735,0-12.194-5.458-12.194-12.199v-31.177
				c0-2.187,0.583-4.238,1.593-6.017c-6.731-2.792-13.92-4.693-21.42-5.588v65.311c0,6.736-5.457,12.192-12.191,12.197h-0.004
				c-6.736,0-12.197-5.461-12.197-12.197v-65.311c-7.501,0.895-14.69,2.796-21.418,5.588c1.009,1.779,1.593,3.83,1.593,6.017v31.177
				c0,6.74-5.459,12.199-12.193,12.199s-12.195-5.458-12.195-12.199v-22.873c-16.703,14.857-27.235,36.498-27.235,60.606v27.037H700
				h83.638v-27.037C783.639,352.889,773.108,331.251,756.408,316.394z"/>
			<path d="M783.639,405.141H616.352c-0.611,0-1.106-0.495-1.106-1.106v-27.037c0-23.436,10.062-45.827,27.605-61.434
				c0.329-0.29,0.795-0.359,1.188-0.182c0.398,0.177,0.655,0.573,0.655,1.009v22.873c0,6.116,4.975,11.092,11.088,11.092
				s11.086-4.977,11.086-11.092v-31.177c0-1.908-0.501-3.801-1.448-5.47c-0.156-0.276-0.188-0.605-0.086-0.905
				c0.104-0.3,0.331-0.542,0.625-0.663c6.9-2.864,14.207-4.77,21.712-5.665c0.315-0.052,0.626,0.059,0.864,0.27
				c0.238,0.21,0.371,0.512,0.371,0.828v65.311c0,6.115,4.975,11.09,11.091,11.09c6.116-0.004,11.089-4.979,11.089-11.09v-65.311
				c0-0.316,0.136-0.618,0.371-0.828c0.238-0.209,0.551-0.32,0.866-0.27c7.499,0.895,14.806,2.801,21.712,5.665
				c0.292,0.121,0.521,0.363,0.626,0.663c0.101,0.3,0.068,0.629-0.088,0.905c-0.946,1.668-1.447,3.562-1.447,5.47v31.177
				c0,6.116,4.975,11.092,11.088,11.092s11.088-4.977,11.088-11.092v-22.87c0-0.437,0.256-0.832,0.653-1.009
				s0.862-0.108,1.188,0.182c17.543,15.607,27.603,37.997,27.603,61.431v27.037C784.745,404.646,784.25,405.141,783.639,405.141z
				 M617.458,402.928h165.074v-25.93c0-21.969-9.087-42.998-25.019-58.086v20.353c0,7.336-5.966,13.305-13.301,13.305
				c-7.334,0-13.301-5.969-13.301-13.305v-31.177c0-1.874,0.401-3.732,1.169-5.444c-6.01-2.386-12.315-4.032-18.783-4.905v64.055
				c0,7.33-5.965,13.299-13.295,13.303c-7.341,0-13.31-5.969-13.31-13.303v-64.055c-6.47,0.873-12.776,2.52-18.781,4.905
				c0.767,1.709,1.168,3.57,1.168,5.444v31.177c0,7.336-5.964,13.305-13.298,13.305s-13.301-5.969-13.301-13.305v-20.355
				c-15.933,15.089-25.022,36.117-25.022,58.088V402.928z"/>
		</g>
		<g>
			<path fill="#FFE099" d="M788.987,404.034h-5.349H700h-83.649h-5.349c-4.977,0-9.011,4.035-9.011,9.018
				c0,4.975,4.035,9.007,9.011,9.007H700h88.987c4.979,0,9.016-4.033,9.016-9.007C798.003,408.069,793.967,404.034,788.987,404.034z
				"/>
			<path d="M788.987,423.166H611.003c-5.578,0-10.118-4.536-10.118-10.114c0-5.582,4.54-10.125,10.118-10.125h177.984
				c5.58,0,10.122,4.543,10.122,10.125C799.109,418.63,794.567,423.166,788.987,423.166z M611.003,405.141
				c-4.359,0-7.905,3.548-7.905,7.912c0,4.357,3.546,7.901,7.905,7.901h177.984c4.361,0,7.909-3.544,7.909-7.901
				c0-4.363-3.548-7.912-7.909-7.912H611.003z"/>
		</g>
		<g>
			<path fill="#FFE099" d="M700,283.693h-0.004c-6.736,0-12.197,5.461-12.197,12.194v0.595v65.311
				c0,6.736,5.461,12.197,12.197,12.197H700c6.734-0.004,12.191-5.461,12.191-12.197v-65.311v-0.595
				C712.191,289.156,706.734,283.697,700,283.693z"/>
			<path d="M700.003,375.096c-0.002,0-0.002,0-0.002,0h-0.004c-7.334,0-13.303-5.969-13.303-13.303v-65.905
				c0-7.334,5.969-13.301,13.303-13.301c7.337,0.004,13.302,5.971,13.302,13.301v65.905
				C713.298,369.123,707.333,375.092,700.003,375.096z M700,284.8c-6.12,0-11.095,4.975-11.095,11.088v65.905
				c0,6.115,4.975,11.09,11.091,11.09L700,373.99v-1.106c6.112-0.004,11.084-4.979,11.084-11.09v-65.905
				C711.085,289.779,706.112,284.804,700,284.8z"/>
		</g>
		<g>
			<g>
				<g>
					<path fill="#FFE099" d="M744.213,295.888c-4.545,0-8.504,2.496-10.602,6.183c-1.01,1.779-1.593,3.83-1.593,6.017v31.177
						c0,6.74,5.459,12.199,12.194,12.199c6.734,0,12.195-5.458,12.195-12.199v-22.87v-8.307
						C756.408,301.353,750.947,295.888,744.213,295.888z"/>
					<path d="M744.213,352.569c-7.334,0-13.301-5.969-13.301-13.305v-31.177c0-2.291,0.601-4.562,1.737-6.563
						c2.368-4.16,6.799-6.743,11.563-6.743c7.335,0,13.301,5.969,13.301,13.306v31.177
						C757.514,346.601,751.548,352.569,744.213,352.569z M744.213,296.994c-3.972,0-7.665,2.155-9.641,5.623
						c-0.946,1.668-1.447,3.562-1.447,5.47v31.177c0,6.116,4.975,11.092,11.088,11.092s11.088-4.977,11.088-11.092v-31.177
						C755.301,301.971,750.326,296.994,744.213,296.994z"/>
				</g>
			</g>
		</g>
		<g>
			<g>
				<g>
					<path fill="#FFE099" d="M666.381,302.07c-2.098-3.687-6.053-6.183-10.6-6.183c-6.734,0-12.195,5.465-12.195,12.199v8.305
						v22.873c0,6.74,5.461,12.199,12.195,12.199s12.193-5.458,12.193-12.199v-31.177C667.975,305.9,667.391,303.849,666.381,302.07z
						"/>
					<path d="M655.782,352.569c-7.334,0-13.301-5.969-13.301-13.305v-31.177c0-7.337,5.967-13.306,13.301-13.306
						c4.767,0,9.197,2.583,11.562,6.743c1.136,2.001,1.737,4.272,1.737,6.563v31.177
						C669.08,346.601,663.116,352.569,655.782,352.569z M655.782,296.994c-6.113,0-11.088,4.977-11.088,11.093v31.177
						c0,6.116,4.975,11.092,11.088,11.092s11.086-4.977,11.086-11.092v-31.177c0-1.908-0.501-3.801-1.448-5.47
						C663.447,299.149,659.753,296.994,655.782,296.994z"/>
				</g>
			</g>
		</g>
		<g>
			<g>
				<path d="M700.761,556.819c-0.609,0-1.117-0.495-1.117-1.106c0-0.612,0.484-1.106,1.096-1.106h0.021
					c0.612,0,1.107,0.494,1.107,1.106C701.868,556.324,701.373,556.819,700.761,556.819z"/>
			</g>
		</g>
		<g>
			<g>
				<polygon fill="#FFFFFF" points="743.258,544.621 742.903,544.088 742.664,545.299 				"/>
				<path d="M742.664,546.405c-0.165,0-0.331-0.036-0.486-0.112c-0.45-0.223-0.694-0.717-0.599-1.209l0.237-1.21
					c0.088-0.44,0.433-0.784,0.871-0.87c0.438-0.089,0.888,0.099,1.137,0.471l0.354,0.531c0.278,0.415,0.239,0.967-0.089,1.343
					l-0.592,0.678C743.281,546.273,742.975,546.405,742.664,546.405z"/>
			</g>
		</g>
		<g>
			<g>
				<polygon fill="#F5F5F5" points="742.664,545.299 742.903,544.088 702.847,556.43 700.696,555.713 711.506,580.938 				"/>
				<path d="M711.506,582.045c-0.059,0-0.116-0.005-0.173-0.014c-0.376-0.061-0.696-0.309-0.845-0.656
					c-10.898-25.432-10.898-25.432-10.898-25.662c0-0.357,0.169-0.689,0.459-0.897c0.289-0.209,0.658-0.264,0.998-0.153l1.813,0.605
					l39.718-12.236c0.376-0.118,0.778-0.025,1.067,0.236c0.29,0.26,0.419,0.652,0.346,1.035l-0.239,1.21
					c-0.037,0.19-0.126,0.367-0.253,0.514l-31.16,35.64C712.126,581.908,711.821,582.045,711.506,582.045z M702.674,557.523
					c2.146,5.006,7.289,17.005,9.156,21.361l28.798-32.938l-37.455,11.539C703.011,557.536,702.84,557.55,702.674,557.523z"/>
			</g>
		</g>
		<g>
			<polygon fill="#00486C" points="700.696,555.713 689.883,580.938 700.696,593.099 711.506,580.938 			"/>
			<path d="M700.696,594.205c-0.315,0-0.618-0.137-0.828-0.372l-10.812-12.16c-0.285-0.319-0.361-0.775-0.19-1.171l10.812-25.226
				c0.175-0.406,0.574-0.668,1.018-0.668c0,0,0,0,0.002,0c0.443,0,0.845,0.268,1.018,0.677c0.125,0.296,10.805,25.217,10.805,25.217
				c0.169,0.396,0.096,0.852-0.19,1.171l-10.81,12.16C701.313,594.068,701.012,594.205,700.696,594.205z M691.175,580.729
				l9.521,10.702l9.516-10.702c-5.615-13.1-8.262-19.276-9.511-22.222L691.175,580.729z"/>
		</g>
		<g>
			<g>
				<polygon fill="#FFFFFF" points="700.696,555.713 700,555.479 697.157,556.428 657.872,544.324 689.883,580.938 				"/>
				<path d="M689.883,582.045c-0.315,0-0.623-0.137-0.834-0.379l-32.009-36.614c-0.327-0.371-0.365-0.916-0.095-1.331
					c0.268-0.412,0.78-0.605,1.253-0.453l38.946,11.998l2.507-0.837c0.229-0.073,0.476-0.075,0.705,0.002l0.694,0.233
					c0.292,0.098,0.529,0.313,0.657,0.597c0.125,0.281,0.127,0.603,0.006,0.889l-10.813,25.226
					c-0.146,0.348-0.467,0.596-0.843,0.656C689.997,582.04,689.939,582.045,689.883,582.045z M661.269,546.528l28.29,32.356
					l9.381-21.887l-1.433,0.48c-0.221,0.068-0.456,0.074-0.679,0.006L661.269,546.528z"/>
			</g>
		</g>
		<g>
			<g>
				<polygon fill="#FFFFFF" points="700.098,762.763 700.171,762.907 700.249,762.763 700.171,762.369 				"/>
				<path d="M700.208,763.94c-0.004,0-0.009,0-0.011,0c-0.413-0.004-0.828-0.164-1.014-0.531l-0.073-0.146
					c-0.108-0.218-0.145-0.464-0.1-0.704l0.074-0.395c0.097-0.52,0.551-0.899,1.081-0.902c0.002,0,0.004,0,0.006,0
					c0.53,0,0.983,0.374,1.087,0.893l0.078,0.393c0.048,0.252,0.009,0.513-0.112,0.738
					C701.029,763.646,700.617,763.94,700.208,763.94z"/>
			</g>
		</g>
		<g>
			<g>
				<path fill="#415560" d="M700.696,761.907l72.692-139.59l-16.98-22.368l26.304-13.423l-16.586-21.86
					c-6.442-2.801-11.462-5.332-14.427-7.357l-8.441-12.688l-0.594,0.678L700.696,759.7V761.907z"/>
				<path d="M700.696,763.014c-0.089,0-0.177-0.011-0.264-0.033c-0.497-0.12-0.843-0.563-0.843-1.073V759.7l41.989-214.613
					c0.038-0.192,0.125-0.37,0.253-0.517l0.594-0.679c0.225-0.259,0.57-0.406,0.903-0.376c0.346,0.023,0.659,0.205,0.852,0.49
					l8.32,12.508c2.826,1.898,7.682,4.361,14.065,7.137c0.176,0.075,0.326,0.196,0.441,0.348l16.586,21.86
					c0.196,0.26,0.268,0.595,0.194,0.915c-0.071,0.319-0.283,0.59-0.575,0.738l-25.124,12.821l16.182,21.313
					c0.26,0.343,0.299,0.803,0.1,1.181l-72.692,139.59C701.483,762.791,701.101,763.014,700.696,763.014z M743.472,546.938
					l-40.91,208.991l69.522-133.502l-16.558-21.81c-0.199-0.261-0.271-0.596-0.197-0.916c0.071-0.319,0.283-0.59,0.577-0.739
					l25.124-12.821l-15.611-20.577c-6.604-2.881-11.427-5.351-14.345-7.343c-0.116-0.08-0.218-0.184-0.298-0.301L743.472,546.938z"
					/>
			</g>
		</g>
		<g>
			<g>
				<polygon fill="#FFFFFF" points="700.171,762.369 700.249,762.763 700.696,761.907 700.696,759.7 				"/>
				<path d="M700.249,763.869c-0.052,0-0.106-0.004-0.158-0.011c-0.464-0.067-0.836-0.419-0.929-0.882l-0.078-0.394
					c-0.026-0.14-0.026-0.285,0-0.428l0.525-2.67c0.11-0.557,0.629-0.919,1.193-0.887c0.569,0.056,1,0.531,1,1.102v2.207
					c0,0.177-0.043,0.354-0.125,0.512l-0.447,0.856C701.038,763.645,700.658,763.869,700.249,763.869z"/>
			</g>
		</g>
		<g>
			<g>
				<polygon fill="#E6E6E6" points="700.249,762.763 700.342,763.236 700.696,763.236 700.696,761.907 				"/>
				<path d="M700.696,764.343h-0.354c-0.531,0-0.985-0.376-1.087-0.896l-0.093-0.473c-0.047-0.246-0.009-0.502,0.105-0.724
					l0.448-0.856c0.233-0.449,0.748-0.685,1.245-0.562c0.493,0.121,0.843,0.563,0.843,1.074v1.329
					C701.803,763.848,701.306,764.343,700.696,764.343z"/>
			</g>
		</g>
		<g>
			<g>
				<polygon fill="#FFFFFF" points="700.098,762.763 700,763.236 700.171,762.907 				"/>
				<path d="M700,764.343c-0.121,0-0.246-0.02-0.367-0.063c-0.519-0.184-0.826-0.724-0.715-1.264l0.095-0.474
					c0.092-0.46,0.469-0.812,0.936-0.875c0.471-0.064,0.923,0.178,1.137,0.595c0.159,0.317,0.232,0.838,0.068,1.153l-0.168,0.329
					C700.792,764.12,700.407,764.343,700,764.343z"/>
			</g>
		</g>
		<g>
			<g>
				<polygon fill="#DBDBDB" points="700.696,593.099 700.696,593.099 714.116,620.357 700.696,709.267 700.696,759.7 
					742.664,545.299 711.506,580.938 				"/>
				<path d="M700.696,760.807c-0.034,0-0.071-0.002-0.108-0.004c-0.566-0.057-0.999-0.531-0.999-1.103v-50.434l13.381-88.731
					l-13.269-26.948c-0.199-0.403-0.134-0.889,0.167-1.224l10.809-12.16l31.154-35.633c0.33-0.376,0.873-0.479,1.32-0.266
					c0.449,0.221,0.695,0.715,0.599,1.206l-41.97,214.401C701.678,760.438,701.22,760.807,700.696,760.807z M702.017,593.277
					l13.092,26.591c0.1,0.204,0.136,0.431,0.102,0.653l-13.42,88.909l0.009,38.872l38.989-199.177l-28.45,32.54L702.017,593.277z"/>
			</g>
		</g>
		<g>
			<g>
				<polygon fill="#E6E6E6" points="700.696,593.099 700.696,593.099 700.696,593.099 				"/>
				<path d="M700.761,594.205c-0.609,0-1.117-0.495-1.117-1.106c0-0.612,0.484-1.106,1.096-1.106h0.021
					c0.612,0,1.107,0.494,1.107,1.106C701.868,593.71,701.373,594.205,700.761,594.205z"/>
			</g>
		</g>
		<g>
			<g>
				<polygon fill="#F0F0F0" points="700.696,759.7 700.696,709.267 700.696,709.273 687.272,620.357 700.696,593.099 
					689.883,580.938 657.872,544.324 657.463,544.198 700.171,762.369 				"/>
				<path d="M700.171,763.476L700.171,763.476c-0.529,0-0.983-0.374-1.086-0.895L656.378,544.41
					c-0.075-0.38,0.057-0.773,0.346-1.033c0.288-0.262,0.696-0.356,1.063-0.234l0.408,0.125c0.197,0.058,0.374,0.173,0.508,0.328
					l32.014,36.614l10.805,12.153c0.299,0.335,0.365,0.82,0.167,1.224l-13.271,26.948l13.364,88.516
					c0.013,0.071,0.021,0.143,0.021,0.216c0,0.056-0.004,0.112-0.013,0.166l0.013,50.268l-0.545,2.883
					C701.154,763.102,700.701,763.476,700.171,763.476z M659.252,547.585l40.355,206.145l-0.018-44.456l-13.411-88.752
					c-0.035-0.223,0.002-0.449,0.102-0.653l13.094-26.591l-10.317-11.604L659.252,547.585z"/>
			</g>
		</g>
		<g>
			<g>
				<polygon fill="#FFFFFF" points="700.171,762.907 700.342,763.236 700.249,762.763 				"/>
				<path d="M700.342,764.343c-0.406,0-0.791-0.223-0.985-0.599l-0.169-0.329c-0.168-0.324-0.164-0.711,0.009-1.031
					c0.22-0.414,0.726-0.708,1.18-0.644c0.462,0.07,0.868,0.353,0.959,0.811l0.091,0.474c0.104,0.54-0.203,1.076-0.722,1.258
					C700.584,764.323,700.463,764.343,700.342,764.343z"/>
			</g>
		</g>
		<g>
			<g>
				<polygon fill="#FFFFFF" points="700,763.236 700.342,763.236 700.171,762.907 				"/>
				<path d="M700.342,764.343H700c-0.384,0-0.743-0.201-0.944-0.532c-0.201-0.328-0.214-0.739-0.037-1.082l0.168-0.329
					c0.381-0.734,1.587-0.734,1.967,0l0.169,0.329c0.177,0.343,0.164,0.754-0.037,1.082
					C701.086,764.142,700.727,764.343,700.342,764.343z"/>
			</g>
		</g>
		<g>
			<g>
				<path fill="#415560" d="M643.935,599.949l-16.981,22.368l73.144,140.445l0.073-0.394l-42.708-218.171l-0.361-0.11l-8.804,13.221
					c-2.889,1.972-7.712,4.42-13.906,7.133l-16.759,22.085L643.935,599.949z"/>
				<path d="M700.098,763.869c-0.408,0-0.788-0.228-0.981-0.597L625.973,622.83c-0.199-0.381-0.16-0.841,0.099-1.184l16.182-21.313
					l-25.124-12.821c-0.29-0.148-0.501-0.419-0.574-0.738c-0.074-0.32,0-0.655,0.196-0.915l16.759-22.085
					c0.112-0.15,0.264-0.271,0.437-0.346c6.207-2.717,10.762-5.042,13.549-6.916l8.686-13.037c0.27-0.406,0.773-0.59,1.242-0.445
					l0.363,0.11c0.389,0.121,0.683,0.445,0.761,0.847l42.71,218.171c0.026,0.137,0.026,0.277,0,0.415l-0.073,0.394
					c-0.086,0.465-0.458,0.821-0.925,0.891C700.206,763.865,700.152,763.869,700.098,763.869z M628.259,622.428l69.522,133.491
					l-40.986-209.374l-7.576,11.376c-0.08,0.119-0.179,0.221-0.296,0.301c-2.844,1.942-7.494,4.335-13.824,7.116l-15.787,20.804
					l25.126,12.821c0.292,0.149,0.503,0.42,0.577,0.739c0.073,0.32,0,0.655-0.199,0.916L628.259,622.428z"/>
			</g>
		</g>
		<g>
			<polygon fill="#00486C" points="700.696,593.099 687.272,620.357 700.696,709.273 700.696,709.267 714.116,620.357 			"/>
			<path d="M700.701,710.459c-0.549,0-1.016-0.473-1.1-1.021l-13.422-88.916c-0.035-0.223,0.002-0.449,0.102-0.653l13.422-27.258
				c0.186-0.379,0.571-0.618,0.994-0.618l0,0c0.419,0,0.804,0.239,0.992,0.618l13.42,27.258c0.1,0.204,0.136,0.431,0.102,0.653
				l-13.42,88.909c0,0.579-0.441,0.981-1.019,1.024C700.748,710.457,700.725,710.459,700.701,710.459z M688.417,620.535
				l12.283,81.36l12.27-81.36l-12.274-24.933L688.417,620.535z"/>
		</g>
		<g>
			<path fill="#65787C" d="M700.173,797.672v-34.436H700l0.097-0.474l-73.144-140.445l16.981-22.368l-26.302-13.423l16.759-22.085
				c-11.799,5.16-28.568,11.278-46.43,16.895c0,0-36.277,6.807-51.249,25.856c0,0-0.856,0.709-2.219,2.948v39.765v27.013v49.455
				C576.165,770.18,634.975,797.525,700.173,797.672z"/>
			<path d="M700.173,798.778h-0.002c-63.544-0.143-122.666-25.587-166.479-71.643c-0.194-0.205-0.305-0.479-0.305-0.763V610.141
				c0-0.203,0.056-0.402,0.162-0.575c1.199-1.974,2.055-2.857,2.351-3.132c15.093-19.101,50.36-25.904,51.856-26.186
				c17.479-5.503,34.36-11.648,46.19-16.82c0.462-0.201,1-0.065,1.314,0.328c0.312,0.396,0.315,0.953,0.013,1.353l-15.961,21.033
				l25.126,12.821c0.292,0.149,0.503,0.42,0.577,0.739c0.073,0.32,0,0.655-0.199,0.916l-16.558,21.81l72.82,139.825
				c0.1,0.19,0.141,0.407,0.119,0.618c0.052,0.114,0.082,0.237,0.082,0.365v34.436c0,0.294-0.117,0.575-0.325,0.782
				C700.748,798.662,700.467,798.778,700.173,798.778z M535.601,725.93c43.106,45.148,101.099,70.199,163.466,70.632V763.7
				c-0.123-0.211-0.197-0.451-0.149-0.685l0.017-0.089L625.973,622.83c-0.199-0.381-0.16-0.841,0.099-1.184l16.182-21.313
				l-25.124-12.821c-0.29-0.148-0.501-0.419-0.574-0.738c-0.074-0.32,0-0.655,0.196-0.915l14.234-18.76
				c-11.565,4.83-26.84,10.309-42.693,15.292c-0.484,0.1-36.171,6.986-50.711,25.484c-0.047,0.063-0.104,0.119-0.164,0.169l0,0
				c0,0-0.7,0.62-1.817,2.409V725.93z"/>
		</g>
		<g>
			<path fill="#65787C" d="M866.896,649.905v-33.341c-2.144-6.154-3.604-9.372-3.604-9.372c-14.967-19.05-51.26-25.856-51.26-25.856
				c-17.602-5.534-34.14-11.555-45.906-16.67l16.586,21.86l-26.304,13.423l16.98,22.368l-72.692,139.59v1.329h-0.523v34.436
				c0.173,0,0.348,0.007,0.523,0.007c65.406,0,124.419-27.383,166.2-71.306v-49.455V649.905z"/>
			<path d="M700.696,798.785l-0.523-0.007c-0.611,0-1.106-0.495-1.106-1.106v-34.436c0-0.396,0.208-0.744,0.523-0.94v-0.389
				c0-0.177,0.043-0.353,0.125-0.511l72.369-138.969l-16.558-21.81c-0.199-0.261-0.271-0.596-0.197-0.916
				c0.071-0.319,0.283-0.59,0.577-0.739l25.124-12.821l-15.786-20.809c-0.305-0.399-0.301-0.955,0.011-1.351
				c0.312-0.397,0.852-0.527,1.312-0.332c11.78,5.121,28.474,11.184,45.799,16.631c1.37,0.248,36.746,7.071,51.796,26.229
				c0.056,0.069,0.104,0.145,0.138,0.225c0.061,0.134,1.505,3.334,3.644,9.465c0.041,0.119,0.061,0.242,0.061,0.365v109.809
				c0,0.283-0.107,0.558-0.302,0.763C823.746,773.339,764.438,798.785,700.696,798.785z M701.28,764.176v32.396
				c62.758-0.158,121.146-25.226,164.51-70.643V616.754c-1.841-5.273-3.177-8.357-3.453-8.984
				c-14.596-18.427-50.148-25.279-50.508-25.347c-15.708-4.932-30.813-10.336-42.309-15.114l14.073,18.55
				c0.196,0.26,0.268,0.595,0.194,0.915c-0.071,0.319-0.283,0.59-0.575,0.738l-25.124,12.821l16.182,21.313
				c0.26,0.343,0.299,0.803,0.1,1.181l-72.567,139.35v1.06C701.803,763.632,701.594,763.979,701.28,764.176z"/>
		</g>
		<g>
			<rect x="908.436" y="766.677" width="366.122" height="2.213"/>
		</g>
	</g>
	<g>
		<g>
			<path fill="#FF7571" d="M417.675,893.125c0,9.454,7.689,17.146,17.137,17.146c9.452,0,17.141-7.691,17.141-17.146
				c0-9.453-7.689-17.142-17.141-17.142C425.364,875.983,417.675,883.672,417.675,893.125z"/>
		</g>
		<g>
			<path fill="#FFC547" d="M403.892,880.556c0.079-0.194,0.156-0.389,0.24-0.581c0.032-0.075,0.071-0.155,0.106-0.233
				c0.058-0.132,0.116-0.262,0.177-0.394l0.039-0.084c0.132-0.292,0.238-0.523,0.344-0.743c0.093-0.188,0.188-0.374,0.285-0.56
				l0.076-0.143v-0.003l0.112-0.216c0.086-0.164,0.173-0.33,0.262-0.495l0.002-0.002h-0.002c0.054-0.1,0.114-0.198,0.17-0.298
				c0.052-0.089,0.102-0.179,0.151-0.264l0.168-0.292c0.102-0.175,0.204-0.35,0.307-0.522l0.411-0.638l0.082-0.128
				c0.119-0.188,0.242-0.378,0.367-0.562c0-0.002,0.002-0.005,0.004-0.007l0,0c0.061-0.093,0.126-0.182,0.19-0.272
				c0.028-0.036,0.052-0.075,0.08-0.112l0.106-0.146l0.052-0.076l0.004-0.004l0.165-0.233c0.108-0.149,0.214-0.301,0.326-0.448
				l0.002-0.001c0.086-0.115,0.175-0.228,0.264-0.34l0.069-0.084l0.25-0.322c0.13-0.166,0.259-0.333,0.394-0.495l0.004-0.002v-0.002
				l0.207-0.24l0.29-0.335l0.042-0.047c0.164-0.192,0.328-0.385,0.499-0.571l0.212-0.222c0-0.003,0.004-0.003,0.004-0.005
				c0.566-0.611,1.163-1.206,1.768-1.768l0.004-0.004l0.229-0.217c0.201-0.184,0.415-0.367,0.629-0.549l0.222-0.194
				c0.113-0.097,0.226-0.196,0.337-0.29c0,0,0.002,0,0.002-0.002c0.158-0.132,0.322-0.257,0.486-0.385l0.076-0.058l0.277-0.221
				c0.132-0.108,0.266-0.214,0.404-0.317c0,0,0,0,0-0.003l0,0c0.147-0.108,0.294-0.211,0.441-0.315l0.242-0.173l0.004-0.004
				l0.237-0.169c0.121-0.088,0.242-0.175,0.365-0.259c0.002,0,0.002-0.002,0.004-0.002c0.002-0.003,0.002-0.003,0.004-0.005
				c0.192-0.13,0.391-0.257,0.586-0.38l0.199-0.13c0.179-0.117,0.356-0.231,0.54-0.346c0.236-0.143,0.473-0.279,0.711-0.415
				l0.158-0.091c0.169-0.1,0.339-0.2,0.511-0.294c0.166-0.091,0.336-0.18,0.507-0.268l0.43-0.223
				c0.16-0.082,0.317-0.164,0.479-0.244c0.242-0.119,0.488-0.229,0.732-0.34c0.24-0.112,0.48-0.223,0.726-0.328
				c0.21-0.091,0.426-0.178,0.638-0.262l0.099-0.041l0.03-0.011l0.104-0.043c0.207-0.082,0.415-0.167,0.624-0.244l0.737-0.26
				c0.013-0.004,0.024-0.009,0.037-0.013c0.015-0.007,0.032-0.011,0.049-0.018c0.173-0.061,0.348-0.121,0.523-0.177
				c0.059-0.02,0.124-0.044,0.182-0.063c0.238-0.076,0.48-0.146,0.72-0.218l0.028-0.008l0.03-0.008l0.113-0.033
				c0.222-0.064,0.445-0.129,0.667-0.186v-0.002c0.201-0.054,0.404-0.104,0.607-0.151l0.376-0.091
				c0.203-0.05,0.408-0.098,0.618-0.141c0.149-0.03,0.302-0.061,0.458-0.089c0.091-0.017,0.179-0.036,0.27-0.054
				c0.009,0,0.015-0.001,0.024-0.004c0.285-0.057,0.573-0.109,0.862-0.153c0.128-0.022,0.257-0.039,0.387-0.059
				c0.063-0.009,0.125-0.02,0.19-0.028l0.186-0.028c0.296-0.039,0.592-0.077,0.886-0.111c0.049-0.005,0.099-0.01,0.151-0.014
				c0.199-0.021,0.398-0.041,0.601-0.059c0.313-0.025,0.616-0.052,0.92-0.069c0.255-0.017,0.506-0.027,0.761-0.036l0.112-0.005
				v-8.107L299.58,814.91c-0.614-0.168-0.977-0.806-0.811-1.42c0.168-0.598,0.821-0.97,1.416-0.81l133.474,36.584v-28.113h-3.803
				h-47.93c-0.307,0-0.594-0.119-0.81-0.335l-28.591-28.176h-74.54h-48.427v78.1l21.226,21.23h20.512l0.004-0.1h0.002v-0.007H271.3
				l0.037-0.777v-0.002c0.02-0.303,0.045-0.604,0.071-0.906c0-0.013,0-0.025,0.002-0.038c0.015-0.171,0.032-0.34,0.049-0.508
				c0.007-0.074,0.013-0.149,0.022-0.223v-0.003c0.032-0.298,0.073-0.594,0.112-0.89c0.035-0.251,0.074-0.508,0.112-0.764
				c0.047-0.293,0.1-0.583,0.156-0.87v-0.003l0.023-0.112l0.022-0.114c0.034-0.177,0.069-0.356,0.108-0.533
				c0.054-0.253,0.114-0.504,0.175-0.759l0.022-0.091l0,0l0.039-0.166c0.048-0.193,0.095-0.39,0.149-0.584h-0.002
				c0.076-0.278,0.156-0.553,0.236-0.825c0.073-0.249,0.145-0.497,0.223-0.744l0.021,0.007l0.004-0.009l-0.022-0.007l0.271-0.794
				l0.015,0.006l0.002-0.002l-0.015-0.007c0.084-0.246,0.171-0.489,0.262-0.732c0.102-0.264,0.205-0.52,0.309-0.778v-0.004
				l0.298-0.718c0.11-0.257,0.225-0.508,0.344-0.759c0.106-0.233,0.218-0.473,0.333-0.708c0.091-0.187,0.186-0.368,0.281-0.552
				l0.093-0.177c0.018-0.032,0.03-0.057,0.045-0.087c0.002-0.006,0.006-0.013,0.011-0.019c0.121-0.229,0.216-0.416,0.313-0.588
				h-0.002c0.087-0.158,0.177-0.312,0.269-0.465l0.142-0.247l0.004-0.006l0.082-0.143c0.104-0.178,0.208-0.354,0.316-0.527
				c0.088-0.145,0.181-0.29,0.276-0.435l0.161-0.244l0,0l0.002-0.004h-0.002l0.432-0.655c0.158-0.225,0.313-0.445,0.474-0.663
				l0.097-0.135c0.121-0.168,0.242-0.337,0.368-0.501c0.125-0.164,0.254-0.326,0.384-0.49l0.112-0.141
				c0.162-0.205,0.324-0.411,0.491-0.611c0.002-0.003,0.002-0.003,0.002-0.003v-0.002c0.143-0.171,0.292-0.337,0.44-0.506
				l0.035-0.041l0.143-0.162c0.143-0.164,0.286-0.326,0.432-0.486c0.13-0.145,0.272-0.291,0.413-0.436l0.143-0.147l0.114-0.119
				l0.433-0.442c0.194-0.192,0.393-0.376,0.588-0.558l0.108-0.105c0.151-0.146,0.307-0.29,0.464-0.433
				c0.165-0.149,0.335-0.294,0.504-0.437l0.104-0.091h0.002l0.212-0.182c0.127-0.112,0.257-0.223,0.389-0.331
				c0.006-0.006,0.015-0.013,0.023-0.017c0-0.003,0,0,0-0.003c0.074-0.058,0.147-0.114,0.22-0.17
				c0.087-0.069,0.173-0.139,0.26-0.206l0.305-0.237c0.149-0.114,0.296-0.231,0.447-0.344c0.03-0.021,0.063-0.043,0.093-0.063
				c0.141-0.105,0.281-0.207,0.421-0.306l0.141-0.098c0.033-0.023,0.05-0.034,0.08-0.056v-0.003c0.19-0.134,0.38-0.268,0.57-0.397
				c0,0,0-0.002,0.002-0.002c0.158-0.104,0.317-0.205,0.478-0.307l0.201-0.128l0.12-0.075c0.181-0.117,0.362-0.233,0.548-0.346
				c0,0,0,0,0-0.003c0.164-0.097,0.329-0.189,0.493-0.282l0.415-0.236c0.095-0.054,0.19-0.107,0.285-0.162
				c0.065-0.035,0.127-0.073,0.19-0.107c0.004,0,0.006-0.002,0.008-0.005c0.117-0.061,0.234-0.121,0.35-0.182
				c0.041-0.019,0.082-0.043,0.121-0.063l0.264-0.134l0.005-0.002l0.224-0.114c0.156-0.078,0.311-0.158,0.469-0.233
				c0.166-0.082,0.339-0.158,0.514-0.236l0.482-0.217c0.155-0.068,0.311-0.142,0.471-0.206c0.121-0.055,0.246-0.1,0.372-0.15
				c0.061-0.022,0.121-0.049,0.184-0.072l0.437-0.171c0.173-0.069,0.344-0.137,0.517-0.194v-0.002
				c0.272-0.102,0.549-0.192,0.825-0.283l0.195-0.067c0.174-0.059,0.347-0.119,0.522-0.173c0.151-0.048,0.309-0.091,0.467-0.134
				c0.039-0.011,0.077-0.023,0.117-0.035l0.216-0.061l0.052-0.015l0.722-0.201c0.002,0,0.004-0.002,0.004-0.002
				c0.229-0.057,0.467-0.11,0.7-0.162l0.276-0.063c0.204-0.048,0.407-0.098,0.612-0.142c0.002,0,0.002,0,0.002,0
				c0.004,0,0.009,0,0.011-0.001c0.231-0.046,0.462-0.085,0.694-0.126l0.397-0.068c0.182-0.035,0.363-0.067,0.544-0.096
				c0.245-0.039,0.497-0.066,0.748-0.097l0.462-0.059c0.147-0.02,0.296-0.041,0.445-0.057c0.292-0.027,0.583-0.05,0.879-0.068
				l0.428-0.03c0.123-0.012,0.249-0.022,0.376-0.028c0.564-0.028,1.13-0.043,1.703-0.043c0.572,0,1.141,0.015,1.705,0.043
				c0.121,0.006,0.242,0.017,0.363,0.025l0.454,0.035c0.29,0.02,0.58,0.039,0.862,0.066h0.002c0.151,0.016,0.298,0.037,0.447,0.057
				l0.462,0.059c0.018,0.002,0.033,0.004,0.05,0.005c0.229,0.026,0.458,0.055,0.684,0.09c0.003,0.002,0.008,0.002,0.012,0.002
				c0.186,0.028,0.368,0.063,0.551,0.096l0.396,0.071c0.229,0.038,0.46,0.077,0.687,0.123h0.002
				c0.153,0.032,0.305,0.066,0.456,0.104l0.275,0.062h0.002l0.175,0.042c0.231,0.052,0.462,0.104,0.694,0.16l0.209,0.061
				l0.517,0.143v0.002l0.009,0.002v-0.002l0.281,0.08c0.186,0.052,0.375,0.104,0.562,0.164v-0.002
				c0.168,0.052,0.337,0.11,0.505,0.169l0.375,0.125l0.041,0.013c0.203,0.067,0.409,0.138,0.612,0.212
				c0.184,0.062,0.361,0.137,0.542,0.208l0.415,0.164c0.186,0.071,0.372,0.141,0.553,0.22c0.004,0.003,0.004,0.003,0.007,0.003
				c0.145,0.058,0.292,0.126,0.438,0.192l0.264,0.116l0.009,0.005l0.292,0.131c0.156,0.069,0.309,0.139,0.46,0.212
				c0.167,0.078,0.329,0.162,0.488,0.244l0.435,0.223c0.173,0.087,0.343,0.173,0.514,0.264c0.076,0.041,0.149,0.085,0.223,0.126
				c0.095,0.054,0.19,0.107,0.285,0.162l0.175,0.099v0.003l0.002-0.003l0.205,0.119c0.167,0.095,0.335,0.19,0.5,0.29
				c0,0,0,0,0.002,0c0.205,0.125,0.409,0.255,0.609,0.385l0.002,0.002l0.097,0.063l0.108,0.067c0.177,0.112,0.354,0.225,0.529,0.341
				c0.199,0.132,0.394,0.271,0.588,0.408c0.186,0.132,0.324,0.233,0.473,0.339c0.08,0.06,0.167,0.115,0.245,0.176
				c0.146,0.108,0.291,0.221,0.436,0.331l0.193,0.148l-0.003,0.004l0.009,0.005v-0.002l0.622,0.49
				c0.03,0.026,0.061,0.051,0.093,0.079c0.114,0.099,0.231,0.195,0.345,0.293l0.169,0.145l0.004,0.005l0.227,0.194
				c0.125,0.107,0.25,0.214,0.372,0.326c0.138,0.121,0.276,0.255,0.415,0.387l0.164,0.153v0.005l0.002-0.002l0.572,0.547l0,0
				c0.143,0.14,0.281,0.284,0.419,0.43l0.272,0.278c0.139,0.145,0.277,0.287,0.411,0.437c0.037,0.039,0.071,0.08,0.108,0.121
				c0.09,0.099,0.181,0.199,0.272,0.303l0.154,0.175l0.153,0.175c0.021,0.026,0.041,0.051,0.063,0.074
				c0.102,0.116,0.201,0.232,0.3,0.35c0.171,0.203,0.338,0.41,0.502,0.622l0.138,0.178c0.121,0.149,0.24,0.298,0.357,0.451
				c0.145,0.188,0.283,0.383,0.423,0.577c0.015,0.021,0.028,0.041,0.045,0.061l0.462,0.655c0.112,0.162,0.218,0.326,0.324,0.488
				l0.112,0.173c0.147,0.227,0.294,0.449,0.437,0.676c0.138,0.23,0.272,0.459,0.404,0.688c0.167,0.281,0.29,0.488,0.406,0.7
				l0.002,0.002l0,0c0.125,0.233,0.247,0.463,0.363,0.694l0.004,0.006l0.061,0.112c0.004,0.014,0.011,0.024,0.017,0.037
				c0.084,0.16,0.168,0.319,0.246,0.479c0.013,0.027,0.026,0.05,0.039,0.073h-0.002c0.002,0.006,0.006,0.014,0.011,0.02v0.003
				c0,0,0,0,0,0.002c0.061,0.119,0.117,0.242,0.173,0.363c0.03,0.061,0.061,0.123,0.088,0.184l0.072,0.155l0,0l0.004,0.007
				l0.112,0.244c0.078,0.168,0.156,0.339,0.229,0.51c0.078,0.18,0.151,0.363,0.225,0.545l0.073,0.175
				c0.052,0.127,0.093,0.235,0.134,0.339c0.065,0.158,0.121,0.303,0.173,0.443c0.091,0.243,0.177,0.49,0.264,0.735
				c0.102,0.293,0.19,0.546,0.272,0.797c0.078,0.253,0.151,0.501,0.225,0.75c0.099,0.343,0.17,0.581,0.235,0.823l0.188,0.754
				c0.069,0.285,0.134,0.564,0.197,0.845c0.054,0.253,0.104,0.508,0.153,0.768c0.052,0.283,0.104,0.572,0.154,0.86l0.114,0.775
				c0,0.002,0,0.004,0,0.004c0.039,0.294,0.077,0.586,0.11,0.88c0.028,0.231,0.049,0.467,0.071,0.707
				c0,0.025,0.002,0.045,0.004,0.071l0,0c0.026,0.3,0.052,0.603,0.069,0.901c0.014,0.203,0.021,0.406,0.03,0.608l0.004,0.094
				l0.002,0.077v0.003l0.007,0.104l63.437-0.046l0.002-0.067c0.009-0.25,0.021-0.503,0.035-0.756V891.1
				c0.02-0.307,0.043-0.609,0.069-0.912l0.013-0.121c0.017-0.214,0.039-0.43,0.061-0.641c0.032-0.297,0.073-0.591,0.112-0.885
				v-0.002l0.009-0.061l0.021-0.139c0.009-0.073,0.021-0.148,0.033-0.223l0.049-0.339l0,0v-0.002c0.047-0.29,0.1-0.575,0.156-0.858
				l0.021-0.127c0.041-0.212,0.082-0.424,0.125-0.636c0.043-0.208,0.095-0.415,0.143-0.62l0.052-0.211
				c0.06-0.256,0.121-0.511,0.186-0.762c0.069-0.253,0.143-0.504,0.216-0.756l0.05-0.169c0.063-0.212,0.123-0.426,0.19-0.636
				c0.088-0.266,0.175-0.524,0.268-0.788l0.08-0.229c0.059-0.172,0.117-0.345,0.182-0.516c0.097-0.253,0.199-0.505,0.3-0.756
				L403.892,880.556z M262.695,870.615H242.04c-0.638,0-1.156-0.519-1.156-1.156c0-0.635,0.519-1.154,1.156-1.154h20.655
				c0.637,0,1.154,0.52,1.154,1.154C263.849,870.097,263.333,870.615,262.695,870.615z M262.695,858.038H242.04
				c-0.638,0-1.156-0.519-1.156-1.156s0.519-1.156,1.156-1.156h20.655c0.637,0,1.154,0.519,1.154,1.156
				S263.333,858.038,262.695,858.038z M275.873,841.629c0,0.638-0.519,1.156-1.154,1.156H242.04c-0.638,0-1.156-0.519-1.156-1.156
				v-32.678c0-0.636,0.519-1.154,1.156-1.154h32.679c0.635,0,1.154,0.519,1.154,1.154V841.629z M387.483,873.74h-33.563
				c-0.64,0-1.159-0.519-1.159-1.156c0-0.636,0.519-1.154,1.159-1.154h33.563c0.638,0,1.154,0.519,1.154,1.154
				C388.638,873.222,388.121,873.74,387.483,873.74z"/>
		</g>
		<g>
			<path fill="#B8EFFF" d="M353.811,790.666l28.588,28.176H428l-61.896-126.081h-86.964v97.568H353
				C353.305,790.329,353.592,790.447,353.811,790.666z M353.309,711.847c0.551-0.265,1.212-0.032,1.476,0.521l38.609,80.771
				c0.264,0.552,0.03,1.212-0.521,1.477c-0.153,0.073-0.317,0.108-0.478,0.108c-0.411,0-0.808-0.231-0.998-0.629l-38.609-80.771
				C352.524,712.771,352.758,712.11,353.309,711.847z M352.205,768.357l-25.671-55.046c-0.257-0.553-0.02-1.212,0.534-1.469
				c0.553-0.261,1.214-0.02,1.472,0.535l25.671,55.046c0.257,0.554,0.017,1.213-0.536,1.471c-0.151,0.07-0.311,0.103-0.467,0.103
				C352.791,768.997,352.391,768.762,352.205,768.357z"/>
		</g>
		<g>
			<path fill="#E6E7E8" d="M304.66,862.049c-17.139,0-31.08,13.941-31.08,31.076c0,17.137,13.941,31.079,31.08,31.079
				c17.135,0,31.076-13.942,31.076-31.079C335.736,875.99,321.795,862.049,304.66,862.049z M304.66,912.578
				c-10.725,0-19.452-8.727-19.452-19.453c0-10.726,8.727-19.452,19.452-19.452s19.451,8.727,19.451,19.452
				C324.111,903.852,315.385,912.578,304.66,912.578z"/>
		</g>
		<g>
			<path fill="#FF7571" d="M304.66,875.983c-9.453,0-17.142,7.688-17.142,17.142c0,9.454,7.689,17.146,17.142,17.146
				c9.45,0,17.139-7.691,17.139-17.146C321.799,883.672,314.11,875.983,304.66,875.983z"/>
		</g>
		<g>
			<rect x="243.194" y="810.106" fill="#DBA93D" width="30.369" height="30.367"/>
		</g>
		<g>
			<path fill="#B8EFFF" d="M510.612,879.691c3.92,0,7.11-3.188,7.11-7.107s-3.189-7.107-7.11-7.107
				c-2.874,0-5.448,1.717-6.561,4.376l-0.03,0.078c-0.342,0.844-0.515,1.737-0.515,2.653
				C503.507,876.504,506.697,879.691,510.612,879.691z"/>
		</g>
		<g>
			<path fill="#E6E7E8" d="M483.422,862.907l18.946,5.192c1.66-3.045,4.776-4.934,8.244-4.934c5.195,0,9.418,4.225,9.418,9.418
				c0,5.19-4.223,9.416-9.418,9.416c-5.19,0-9.413-4.226-9.413-9.416c0-0.784,0.121-1.563,0.313-2.323l-0.032-0.009l-17.861-4.896
				c0.953,8.985,4.942,17.422,11.326,23.806c7.477,7.479,17.422,11.596,28,11.596c10.17,0,19.802-3.829,27.175-10.79l-55.979-55.985
				C486.837,841.723,482.956,852.223,483.422,862.907z"/>
		</g>
		<g>
			<path fill="#E6E7E8" d="M403.737,893.125c0,17.137,13.94,31.079,31.076,31.079c17.137,0,31.08-13.942,31.08-31.079
				c0-17.135-13.943-31.076-31.08-31.076C417.677,862.049,403.737,875.99,403.737,893.125z M454.266,893.125
				c0,10.727-8.726,19.453-19.453,19.453c-10.723,0-19.447-8.727-19.447-19.453c0-10.726,8.724-19.452,19.447-19.452
				C445.54,873.673,454.266,882.399,454.266,893.125z"/>
		</g>
		<g>
			<path d="M552.58,889.161l-57.635-57.639c-0.419-0.419-1.214-0.419-1.633,0c-8.096,8.093-12.508,19.27-12.206,30.747l-45.14-12.37
				v-29.902c0-0.637-0.519-1.155-1.154-1.155h-4.235l0,0l-62.716-127.745c-0.192-0.392-0.599-0.646-1.035-0.646h-88.842
				c-0.638,0-1.156,0.519-1.156,1.156v98.723h-48.424c-0.635,0-1.154,0.519-1.154,1.156v79.732c0,0.308,0.123,0.605,0.337,0.817
				l21.904,21.906c0.218,0.219,0.508,0.339,0.817,0.339h20.988h0.024c0.616,17.813,15.471,32.234,33.34,32.234
				c17.865,0,32.72-14.421,33.334-32.234h0.026h63.435h0.021c0.616,17.813,15.469,32.234,33.336,32.234
				c18.412,0,33.39-14.979,33.39-33.39c0-17.868-14.422-32.719-32.236-33.337v-0.017v-7.478L481.23,864.7
				c0.831,9.859,5.105,19.118,12.081,26.095c7.918,7.914,18.442,12.272,29.634,12.272c11.196,0,21.721-4.358,29.634-12.272
				c0.22-0.221,0.341-0.51,0.339-0.819C552.919,889.667,552.798,889.377,552.58,889.161z M279.141,692.761h86.964L428,818.842
				h-45.602l-28.588-28.176c-0.218-0.219-0.506-0.337-0.811-0.337h-73.859V692.761z M304.66,924.204
				c-17.139,0-31.08-13.942-31.08-31.079c0-17.135,13.941-31.076,31.08-31.076c17.135,0,31.076,13.941,31.076,31.076
				C335.736,910.262,321.795,924.204,304.66,924.204z M403.348,881.985l-0.08,0.229c-0.093,0.264-0.179,0.522-0.268,0.788
				c-0.067,0.21-0.128,0.424-0.19,0.636l-0.05,0.169c-0.073,0.252-0.147,0.503-0.216,0.756c-0.065,0.251-0.125,0.506-0.186,0.762
				l-0.052,0.211c-0.047,0.205-0.099,0.412-0.143,0.62c-0.043,0.212-0.084,0.424-0.125,0.636l-0.021,0.127
				c-0.056,0.283-0.108,0.568-0.156,0.858v0.002l0,0l-0.049,0.339c-0.011,0.074-0.024,0.149-0.033,0.223l-0.021,0.139l-0.009,0.061
				v0.002c-0.039,0.294-0.08,0.588-0.112,0.885c-0.021,0.211-0.043,0.427-0.061,0.641l-0.013,0.121
				c-0.025,0.303-0.049,0.605-0.069,0.912v0.002c-0.013,0.253-0.026,0.506-0.035,0.756l-0.002,0.067l-63.437,0.046l-0.007-0.104
				v-0.003l-0.002-0.077l-0.004-0.094c-0.009-0.202-0.017-0.405-0.03-0.608c-0.017-0.299-0.043-0.602-0.069-0.901l0,0
				c-0.002-0.026-0.004-0.046-0.004-0.071c-0.022-0.24-0.043-0.476-0.071-0.707c-0.033-0.294-0.071-0.586-0.11-0.88
				c0,0,0-0.002,0-0.004l-0.114-0.775c-0.05-0.288-0.102-0.577-0.154-0.86c-0.05-0.26-0.099-0.515-0.153-0.768
				c-0.063-0.28-0.127-0.56-0.197-0.845l-0.188-0.754c-0.065-0.242-0.136-0.48-0.235-0.823c-0.074-0.249-0.147-0.497-0.225-0.75
				c-0.082-0.251-0.17-0.504-0.272-0.797c-0.086-0.245-0.173-0.492-0.264-0.735c-0.052-0.141-0.108-0.285-0.173-0.443
				c-0.041-0.104-0.083-0.212-0.134-0.339l-0.073-0.175c-0.074-0.182-0.146-0.365-0.225-0.545c-0.074-0.171-0.151-0.342-0.229-0.51
				l-0.112-0.244l-0.004-0.007l0,0l-0.072-0.155c-0.028-0.061-0.058-0.123-0.088-0.184c-0.056-0.121-0.112-0.244-0.173-0.363
				c0-0.002,0-0.002,0-0.002v-0.003c-0.004-0.006-0.009-0.014-0.011-0.02h0.002c-0.013-0.023-0.026-0.046-0.039-0.073
				c-0.078-0.16-0.162-0.319-0.246-0.479c-0.006-0.013-0.013-0.023-0.017-0.037l-0.061-0.112l-0.004-0.006
				c-0.117-0.231-0.238-0.461-0.363-0.694l0,0l-0.002-0.002c-0.117-0.212-0.24-0.419-0.406-0.7
				c-0.132-0.229-0.266-0.457-0.404-0.688c-0.143-0.227-0.289-0.449-0.437-0.676l-0.112-0.173c-0.106-0.162-0.212-0.326-0.324-0.488
				l-0.462-0.655c-0.017-0.02-0.03-0.039-0.045-0.061c-0.141-0.194-0.279-0.389-0.423-0.577c-0.117-0.153-0.236-0.302-0.357-0.451
				l-0.138-0.178c-0.164-0.212-0.331-0.419-0.502-0.622c-0.1-0.117-0.199-0.233-0.3-0.35c-0.021-0.023-0.041-0.048-0.063-0.074
				l-0.153-0.175l-0.154-0.175c-0.091-0.104-0.182-0.204-0.272-0.303c-0.037-0.041-0.071-0.082-0.108-0.121
				c-0.134-0.149-0.272-0.292-0.411-0.437l-0.272-0.278c-0.138-0.146-0.277-0.29-0.419-0.43l0,0l-0.572-0.547l-0.002,0.002v-0.005
				l-0.164-0.153c-0.139-0.132-0.277-0.266-0.415-0.387c-0.121-0.112-0.247-0.219-0.372-0.326l-0.227-0.194l-0.004-0.005
				l-0.169-0.145c-0.114-0.098-0.231-0.194-0.345-0.293c-0.033-0.028-0.063-0.053-0.093-0.079l-0.622-0.49v0.002l-0.009-0.005
				l0.003-0.004l-0.193-0.148c-0.145-0.11-0.29-0.223-0.436-0.331c-0.079-0.061-0.165-0.116-0.245-0.176
				c-0.149-0.105-0.287-0.207-0.473-0.339c-0.194-0.138-0.389-0.276-0.588-0.408c-0.175-0.116-0.352-0.229-0.529-0.341l-0.108-0.067
				l-0.097-0.063l-0.002-0.002c-0.201-0.13-0.404-0.26-0.609-0.385c-0.002,0-0.002,0-0.002,0c-0.165-0.1-0.333-0.195-0.5-0.29
				l-0.205-0.119l-0.002,0.003v-0.003l-0.175-0.099c-0.095-0.055-0.19-0.108-0.285-0.162c-0.074-0.041-0.147-0.085-0.223-0.126
				c-0.171-0.091-0.341-0.177-0.514-0.264l-0.435-0.223c-0.16-0.082-0.322-0.166-0.488-0.244c-0.152-0.073-0.305-0.143-0.46-0.212
				l-0.292-0.131l-0.009-0.005l-0.264-0.116c-0.147-0.066-0.294-0.135-0.438-0.192c-0.002,0-0.002,0-0.007-0.003
				c-0.181-0.079-0.367-0.148-0.553-0.22l-0.415-0.164c-0.182-0.071-0.359-0.146-0.542-0.208c-0.203-0.074-0.409-0.145-0.612-0.212
				l-0.041-0.013l-0.375-0.125c-0.168-0.059-0.336-0.117-0.505-0.169v0.002c-0.186-0.061-0.376-0.112-0.562-0.164l-0.281-0.08v0.002
				l-0.009-0.002v-0.002l-0.517-0.143l-0.209-0.061c-0.231-0.057-0.462-0.108-0.694-0.16l-0.175-0.042h-0.002l-0.275-0.062
				c-0.151-0.037-0.302-0.071-0.456-0.104h-0.002c-0.227-0.046-0.458-0.085-0.687-0.123l-0.396-0.071
				c-0.184-0.033-0.365-0.067-0.551-0.096c-0.004,0-0.009,0-0.012-0.002c-0.226-0.035-0.455-0.063-0.684-0.09
				c-0.017-0.001-0.032-0.003-0.05-0.005l-0.462-0.059c-0.149-0.02-0.296-0.041-0.447-0.057h-0.002
				c-0.283-0.027-0.573-0.047-0.862-0.066l-0.454-0.035c-0.121-0.009-0.242-0.02-0.363-0.025c-0.564-0.028-1.133-0.043-1.705-0.043
				c-0.573,0-1.139,0.015-1.703,0.043c-0.127,0.006-0.253,0.017-0.376,0.028l-0.428,0.03c-0.296,0.019-0.588,0.041-0.879,0.068
				c-0.149,0.016-0.298,0.037-0.445,0.057l-0.462,0.059c-0.251,0.03-0.503,0.058-0.748,0.097c-0.181,0.028-0.363,0.061-0.544,0.096
				l-0.397,0.068c-0.231,0.041-0.462,0.08-0.694,0.126c-0.002,0.001-0.006,0.001-0.011,0.001c0,0,0,0-0.002,0
				c-0.206,0.044-0.409,0.094-0.612,0.142l-0.276,0.063c-0.233,0.052-0.471,0.105-0.7,0.162c0,0-0.002,0.002-0.004,0.002
				l-0.722,0.201l-0.052,0.015l-0.216,0.061c-0.04,0.012-0.078,0.024-0.117,0.035c-0.158,0.043-0.315,0.086-0.467,0.134
				c-0.175,0.054-0.348,0.114-0.522,0.173l-0.195,0.067c-0.276,0.091-0.553,0.182-0.825,0.283v0.002
				c-0.173,0.058-0.344,0.125-0.517,0.194l-0.437,0.171c-0.063,0.023-0.123,0.05-0.184,0.072c-0.126,0.051-0.251,0.096-0.372,0.15
				c-0.16,0.064-0.315,0.138-0.471,0.206l-0.482,0.217c-0.175,0.078-0.348,0.154-0.514,0.236c-0.158,0.075-0.313,0.155-0.469,0.233
				l-0.224,0.114l-0.005,0.002l-0.264,0.134c-0.039,0.02-0.08,0.044-0.121,0.063c-0.116,0.061-0.233,0.121-0.35,0.182
				c-0.002,0.003-0.004,0.005-0.008,0.005c-0.063,0.034-0.125,0.072-0.19,0.107c-0.095,0.055-0.19,0.108-0.285,0.162l-0.415,0.236
				c-0.164,0.093-0.329,0.186-0.493,0.282c0,0.003,0,0.003,0,0.003c-0.186,0.112-0.367,0.229-0.548,0.346l-0.12,0.075l-0.201,0.128
				c-0.16,0.102-0.32,0.203-0.478,0.307c-0.002,0-0.002,0.002-0.002,0.002c-0.19,0.13-0.38,0.264-0.57,0.397v0.003
				c-0.03,0.021-0.047,0.032-0.08,0.056l-0.141,0.098c-0.14,0.099-0.281,0.2-0.421,0.306c-0.03,0.021-0.063,0.042-0.093,0.063
				c-0.151,0.112-0.298,0.229-0.447,0.344l-0.305,0.237c-0.086,0.067-0.173,0.137-0.26,0.206c-0.073,0.056-0.146,0.112-0.22,0.17
				c0,0.003,0,0,0,0.003c-0.008,0.004-0.017,0.011-0.023,0.017c-0.132,0.108-0.262,0.219-0.389,0.331l-0.212,0.182h-0.002
				l-0.104,0.091c-0.169,0.143-0.339,0.287-0.504,0.437c-0.158,0.143-0.313,0.287-0.464,0.433l-0.108,0.105
				c-0.195,0.182-0.394,0.365-0.588,0.558l-0.433,0.442l-0.114,0.119l-0.143,0.147c-0.141,0.145-0.283,0.291-0.413,0.436
				c-0.146,0.16-0.289,0.322-0.432,0.486l-0.143,0.162l-0.035,0.041c-0.149,0.169-0.298,0.335-0.44,0.506v0.002c0,0,0,0-0.002,0.003
				c-0.167,0.2-0.329,0.406-0.491,0.611l-0.112,0.141c-0.129,0.164-0.259,0.326-0.384,0.49c-0.126,0.164-0.247,0.333-0.368,0.501
				l-0.097,0.135c-0.16,0.218-0.316,0.438-0.474,0.663l-0.432,0.655h0.002l-0.002,0.004l0,0l-0.161,0.244
				c-0.095,0.145-0.188,0.29-0.276,0.435c-0.108,0.173-0.212,0.35-0.316,0.527l-0.082,0.143l-0.004,0.006l-0.142,0.247
				c-0.091,0.153-0.182,0.307-0.269,0.465h0.002c-0.097,0.172-0.192,0.358-0.313,0.588c-0.004,0.006-0.008,0.013-0.011,0.019
				c-0.015,0.03-0.028,0.055-0.045,0.087l-0.093,0.177c-0.095,0.184-0.19,0.365-0.281,0.552c-0.114,0.235-0.227,0.475-0.333,0.708
				c-0.119,0.251-0.233,0.502-0.344,0.759l-0.298,0.718v0.004c-0.104,0.259-0.207,0.515-0.309,0.778
				c-0.091,0.243-0.177,0.486-0.262,0.732l0.015,0.007l-0.002,0.002l-0.015-0.006l-0.271,0.794l0.022,0.007l-0.004,0.009
				l-0.021-0.007c-0.078,0.247-0.149,0.495-0.223,0.744c-0.08,0.272-0.16,0.547-0.236,0.825h0.002
				c-0.054,0.194-0.102,0.391-0.149,0.584l-0.039,0.166l0,0l-0.022,0.091c-0.061,0.255-0.121,0.506-0.175,0.759
				c-0.039,0.177-0.074,0.356-0.108,0.533l-0.022,0.114l-0.023,0.112v0.003c-0.056,0.287-0.108,0.577-0.156,0.87
				c-0.039,0.256-0.078,0.513-0.112,0.764c-0.039,0.296-0.08,0.592-0.112,0.89v0.003c-0.009,0.073-0.015,0.148-0.022,0.223
				c-0.017,0.168-0.034,0.337-0.049,0.508c-0.002,0.013-0.002,0.025-0.002,0.038c-0.026,0.303-0.052,0.604-0.071,0.906v0.002
				l-0.037,0.777h0.002v0.007H271.3l-0.004,0.1h-20.512l-21.226-21.23v-78.1h48.427h74.54l28.591,28.176
				c0.216,0.216,0.503,0.335,0.81,0.335h47.93h3.803v28.113l-133.474-36.584c-0.594-0.16-1.247,0.212-1.416,0.81
				c-0.167,0.614,0.197,1.252,0.811,1.42l134.079,36.749v8.107l-0.112,0.005c-0.255,0.009-0.506,0.02-0.761,0.036
				c-0.305,0.018-0.607,0.044-0.92,0.069c-0.203,0.018-0.402,0.037-0.601,0.059c-0.052,0.004-0.102,0.009-0.151,0.014
				c-0.294,0.034-0.59,0.072-0.886,0.111l-0.186,0.028c-0.064,0.009-0.127,0.02-0.19,0.028c-0.13,0.02-0.259,0.036-0.387,0.059
				c-0.29,0.044-0.577,0.097-0.862,0.153c-0.009,0.003-0.015,0.004-0.024,0.004c-0.091,0.018-0.179,0.037-0.27,0.054
				c-0.156,0.028-0.309,0.059-0.458,0.089c-0.21,0.043-0.415,0.091-0.618,0.141l-0.376,0.091c-0.203,0.048-0.406,0.098-0.607,0.151
				v0.002c-0.223,0.057-0.445,0.121-0.667,0.186l-0.113,0.033l-0.03,0.008l-0.028,0.008c-0.24,0.072-0.482,0.142-0.72,0.218
				c-0.058,0.019-0.123,0.043-0.182,0.063c-0.175,0.056-0.35,0.116-0.523,0.177c-0.017,0.007-0.034,0.011-0.049,0.018
				c-0.013,0.004-0.024,0.009-0.037,0.013l-0.737,0.26c-0.209,0.077-0.417,0.162-0.624,0.244l-0.104,0.043l-0.03,0.011l-0.099,0.041
				c-0.212,0.084-0.428,0.171-0.638,0.262c-0.246,0.105-0.486,0.216-0.726,0.328c-0.244,0.11-0.49,0.221-0.732,0.34
				c-0.162,0.08-0.32,0.162-0.479,0.244l-0.43,0.223c-0.171,0.088-0.341,0.177-0.507,0.268c-0.171,0.094-0.342,0.194-0.511,0.294
				l-0.158,0.091c-0.238,0.136-0.475,0.272-0.711,0.415c-0.184,0.114-0.361,0.229-0.54,0.346l-0.199,0.13
				c-0.195,0.123-0.394,0.25-0.586,0.38c-0.002,0.002-0.002,0.002-0.004,0.005c-0.002,0-0.002,0.002-0.004,0.002
				c-0.123,0.084-0.244,0.171-0.365,0.259l-0.237,0.169l-0.004,0.004l-0.242,0.173c-0.147,0.104-0.293,0.207-0.441,0.315l0,0
				c0,0.003,0,0.003,0,0.003c-0.138,0.104-0.272,0.209-0.404,0.317l-0.277,0.221l-0.076,0.058c-0.164,0.128-0.329,0.253-0.486,0.385
				c0,0.002-0.002,0.002-0.002,0.002c-0.112,0.094-0.225,0.193-0.337,0.29l-0.222,0.194c-0.214,0.182-0.428,0.365-0.629,0.549
				l-0.229,0.217l-0.004,0.004c-0.605,0.562-1.202,1.156-1.768,1.768c0,0.002-0.004,0.002-0.004,0.005l-0.212,0.222
				c-0.171,0.187-0.335,0.379-0.499,0.571l-0.042,0.047l-0.29,0.335l-0.207,0.24v0.002l-0.004,0.002
				c-0.134,0.162-0.264,0.329-0.394,0.495l-0.25,0.322l-0.069,0.084c-0.088,0.112-0.177,0.225-0.264,0.34l-0.002,0.001
				c-0.112,0.147-0.218,0.299-0.326,0.448l-0.165,0.233l-0.004,0.004l-0.052,0.076l-0.106,0.146
				c-0.028,0.037-0.052,0.076-0.08,0.112c-0.064,0.091-0.129,0.18-0.19,0.272l0,0c-0.002,0.002-0.004,0.005-0.004,0.007
				c-0.125,0.184-0.249,0.374-0.367,0.562l-0.082,0.128l-0.411,0.638c-0.104,0.173-0.206,0.348-0.307,0.522l-0.168,0.292
				c-0.05,0.085-0.1,0.175-0.151,0.264c-0.056,0.1-0.117,0.198-0.17,0.298h0.002l-0.002,0.002c-0.089,0.165-0.175,0.331-0.262,0.495
				l-0.112,0.216v0.003l-0.076,0.143c-0.097,0.186-0.192,0.371-0.285,0.56c-0.106,0.22-0.212,0.451-0.344,0.743l-0.039,0.084
				c-0.061,0.132-0.119,0.262-0.177,0.394c-0.035,0.078-0.074,0.158-0.106,0.233c-0.084,0.192-0.162,0.387-0.24,0.581l-0.063,0.158
				c-0.102,0.251-0.203,0.503-0.3,0.756C403.465,881.641,403.406,881.813,403.348,881.985z M465.892,893.125
				c0,17.137-13.943,31.079-31.08,31.079c-17.135,0-31.076-13.942-31.076-31.079c0-17.135,13.94-31.076,31.076-31.076
				C451.949,862.049,465.892,875.99,465.892,893.125z M522.945,900.757c-10.578,0-20.523-4.116-28-11.596
				c-6.383-6.384-10.373-14.82-11.326-23.806l17.861,4.896l0.032,0.009c-0.192,0.761-0.313,1.539-0.313,2.323
				c0,5.19,4.223,9.416,9.413,9.416c5.195,0,9.418-4.226,9.418-9.416c0-5.193-4.223-9.418-9.418-9.418
				c-3.468,0-6.584,1.889-8.244,4.934l-18.946-5.192c-0.467-10.685,3.415-21.185,10.719-28.926l55.979,55.985
				C542.747,896.928,533.115,900.757,522.945,900.757z M503.507,872.584c0-0.916,0.173-1.81,0.515-2.653l0.03-0.078
				c1.113-2.659,3.687-4.376,6.561-4.376c3.92,0,7.11,3.188,7.11,7.107s-3.189,7.107-7.11,7.107
				C506.697,879.691,503.507,876.504,503.507,872.584z"/>
		</g>
		<g>
			<path d="M304.66,873.673c-10.725,0-19.452,8.727-19.452,19.452c0,10.727,8.727,19.453,19.452,19.453s19.451-8.727,19.451-19.453
				C324.111,882.399,315.385,873.673,304.66,873.673z M304.66,910.271c-9.453,0-17.142-7.691-17.142-17.146
				c0-9.453,7.689-17.142,17.142-17.142c9.45,0,17.139,7.688,17.139,17.142C321.799,902.579,314.11,910.271,304.66,910.271z"/>
		</g>
		<g>
			<path d="M415.365,893.125c0,10.727,8.724,19.453,19.447,19.453c10.727,0,19.453-8.727,19.453-19.453
				c0-10.726-8.726-19.452-19.453-19.452C424.089,873.673,415.365,882.399,415.365,893.125z M451.954,893.125
				c0,9.454-7.689,17.146-17.141,17.146c-9.448,0-17.137-7.691-17.137-17.146c0-9.453,7.689-17.142,17.137-17.142
				C444.265,875.983,451.954,883.672,451.954,893.125z"/>
		</g>
		<g>
			<path d="M274.719,807.797H242.04c-0.638,0-1.156,0.519-1.156,1.154v32.678c0,0.638,0.519,1.156,1.156,1.156h32.679
				c0.635,0,1.154-0.519,1.154-1.156v-32.678C275.873,808.315,275.354,807.797,274.719,807.797z M273.563,840.474h-30.369v-30.367
				h30.369V840.474z"/>
		</g>
		<g>
			<path d="M387.483,871.43h-33.563c-0.64,0-1.159,0.519-1.159,1.154c0,0.638,0.519,1.156,1.159,1.156h33.563
				c0.638,0,1.154-0.519,1.154-1.156C388.638,871.948,388.121,871.43,387.483,871.43z"/>
		</g>
		<g>
			<path d="M262.695,855.726H242.04c-0.638,0-1.156,0.519-1.156,1.156s0.519,1.156,1.156,1.156h20.655
				c0.637,0,1.154-0.519,1.154-1.156S263.333,855.726,262.695,855.726z"/>
		</g>
		<g>
			<path d="M262.695,868.305H242.04c-0.638,0-1.156,0.52-1.156,1.154c0,0.638,0.519,1.156,1.156,1.156h20.655
				c0.637,0,1.154-0.519,1.154-1.156C263.849,868.824,263.333,868.305,262.695,868.305z"/>
		</g>
		<g>
			<path d="M391.397,794.094c0.19,0.397,0.587,0.629,0.998,0.629c0.16,0,0.324-0.035,0.478-0.108
				c0.551-0.265,0.785-0.925,0.521-1.477l-38.609-80.771c-0.264-0.553-0.925-0.785-1.476-0.521
				c-0.551,0.264-0.785,0.925-0.521,1.476L391.397,794.094z"/>
		</g>
		<g>
			<path d="M353.674,768.895c0.553-0.258,0.793-0.917,0.536-1.471l-25.671-55.046c-0.257-0.555-0.918-0.796-1.472-0.535
				c-0.553,0.257-0.791,0.916-0.534,1.469l25.671,55.046c0.186,0.404,0.585,0.64,1.002,0.64
				C353.363,768.997,353.523,768.965,353.674,768.895z"/>
		</g>
	</g>
	<g>
		<path d="M288.848,600.078h-73.695c-0.611,0-1.106-0.494-1.106-1.106c0-0.611,0.495-1.106,1.106-1.106h73.695
			c0.609,0,1.106,0.495,1.106,1.106C289.954,599.584,289.457,600.078,288.848,600.078z"/>
	</g>
	<g>
		<path d="M330.776,582.045h-41.928c-0.614,0-1.106-0.495-1.106-1.106c0-0.612,0.493-1.106,1.106-1.106h41.928
			c0.612,0,1.106,0.494,1.106,1.106C331.882,581.55,331.388,582.045,330.776,582.045z"/>
	</g>
	<g>
		<path d="M454.623,737.461h-41.931c-0.609,0-1.106-0.494-1.106-1.105c0-0.612,0.497-1.107,1.106-1.107h41.931
			c0.611,0,1.106,0.495,1.106,1.107C455.729,736.967,455.234,737.461,454.623,737.461z"/>
	</g>
	<g>
		<path d="M208.466,756.906h-41.931c-0.611,0-1.106-0.495-1.106-1.106s0.495-1.106,1.106-1.106h41.931
			c0.609,0,1.106,0.495,1.106,1.106S209.076,756.906,208.466,756.906z"/>
	</g>
	<g>
		<path d="M190.031,756.906c-0.612,0-1.106-0.495-1.106-1.106v-24.978c0-0.611,0.495-1.105,1.106-1.105
			c0.611,0,1.106,0.494,1.106,1.105V755.8C191.137,756.411,190.642,756.906,190.031,756.906z"/>
	</g>
	<g>
		<path d="M229.558,609.667c-0.609,0-1.106-0.495-1.106-1.106v-23.088c0-0.612,0.497-1.107,1.106-1.107
			c0.614,0,1.107,0.495,1.107,1.107v23.088C230.665,609.172,230.172,609.667,229.558,609.667z"/>
	</g>
	<g>
		<path d="M266.602,609.667c-0.611,0-1.106-0.495-1.106-1.106v-27.622c0-0.612,0.495-1.106,1.106-1.106
			c0.612,0,1.106,0.494,1.106,1.106v27.622C267.708,609.172,267.214,609.667,266.602,609.667z"/>
	</g>
	<g>
		<path d="M304.774,591.41c-0.611,0-1.106-0.494-1.106-1.106v-15.898c0-0.61,0.495-1.106,1.106-1.106
			c0.612,0,1.106,0.496,1.106,1.106v15.898C305.881,590.916,305.386,591.41,304.774,591.41z"/>
	</g>
	<g>
		<path d="M326.43,600.078c-0.611,0-1.106-0.494-1.106-1.106v-24.566c0-0.61,0.495-1.106,1.106-1.106
			c0.612,0,1.106,0.496,1.106,1.106v24.566C327.537,599.584,327.042,600.078,326.43,600.078z"/>
	</g>
	<g>
		<path d="M433.658,747.973c-0.611,0-1.106-0.495-1.106-1.106v-23.235c0-0.611,0.495-1.106,1.106-1.106
			c0.612,0,1.106,0.495,1.106,1.106v23.235C434.765,747.478,434.27,747.973,433.658,747.973z"/>
	</g>
	<g>
		<path d="M484.758,444.426h-73.6c-0.612,0-1.106-0.495-1.106-1.106c0-0.612,0.495-1.106,1.106-1.106h73.6
			c0.609,0,1.106,0.495,1.106,1.106C485.864,443.931,485.367,444.426,484.758,444.426z"/>
	</g>
	<g>
		<path d="M465.577,454.767c-0.61,0-1.107-0.495-1.107-1.106V417.1c0-0.612,0.497-1.106,1.107-1.106
			c0.613,0,1.106,0.495,1.106,1.106v36.56C466.684,454.271,466.19,454.767,465.577,454.767z"/>
	</g>
	<g>
		<path d="M446.789,621.309c-0.611,0-1.106-0.495-1.106-1.106v-45.797c0-0.61,0.495-1.106,1.106-1.106
			c0.612,0,1.106,0.496,1.106,1.106v45.797C447.895,620.813,447.4,621.309,446.789,621.309z"/>
	</g>
	<g>
		<path d="M454.623,600.078h-34.039c-0.614,0-1.106-0.494-1.106-1.106c0-0.611,0.493-1.106,1.106-1.106h34.039
			c0.611,0,1.106,0.495,1.106,1.106C455.729,599.584,455.234,600.078,454.623,600.078z"/>
	</g>
	<g>
		<g>
			<path fill="#E6E7E8" d="M1135.447,874.674H949.945c-13.904,0-25.221,11.313-25.221,25.221c0,13.906,11.316,25.222,25.221,25.222
				h185.502c13.906,0,25.22-11.315,25.22-25.222C1160.667,885.986,1149.354,874.674,1135.447,874.674z M962.07,914.72
				c-8.18,0-14.833-6.651-14.833-14.825c0-8.179,6.653-14.833,14.833-14.833c8.176,0,14.825,6.654,14.825,14.833
				C976.896,908.068,970.246,914.72,962.07,914.72z M1015.819,914.72c-8.175,0-14.826-6.651-14.826-14.825
				c0-8.179,6.651-14.833,14.826-14.833c8.178,0,14.831,6.654,14.831,14.833C1030.65,908.068,1023.997,914.72,1015.819,914.72z
				 M1069.575,914.72c-8.178,0-14.831-6.651-14.831-14.825c0-8.179,6.653-14.833,14.831-14.833c8.173,0,14.824,6.654,14.824,14.833
				C1084.399,908.068,1077.748,914.72,1069.575,914.72z M1123.324,914.72c-8.173,0-14.824-6.651-14.824-14.825
				c0-8.179,6.651-14.833,14.824-14.833c8.178,0,14.829,6.654,14.829,14.833C1138.153,908.068,1131.502,914.72,1123.324,914.72z"/>
		</g>
		<g>
			<path fill="#E6E7E8" d="M844.158,784.783c-13.357,18.697-10.429,44.895,6.539,60.209l52.544-73.524
				c-6.738-3.745-14.337-5.717-22.056-5.717C866.517,765.751,852.677,772.865,844.158,784.783z"/>
		</g>
		<g>
			<path fill="#FFC547" d="M1015.819,887.315c-6.933,0-12.572,5.645-12.572,12.579c0,6.933,5.64,12.573,12.572,12.573
				c6.935,0,12.575-5.641,12.575-12.573C1028.395,892.96,1022.754,887.315,1015.819,887.315z"/>
		</g>
		<g>
			<path fill="#FFC547" d="M962.07,887.315c-6.935,0-12.577,5.645-12.577,12.579c0,6.933,5.643,12.573,12.577,12.573
				c6.931,0,12.571-5.641,12.571-12.573C974.642,892.96,969.001,887.315,962.07,887.315z"/>
		</g>
		<g>
			<path fill="#FFC547" d="M1069.575,887.315c-6.935,0-12.577,5.645-12.577,12.579c0,6.933,5.643,12.573,12.577,12.573
				c6.933,0,12.57-5.641,12.57-12.573C1082.146,892.96,1076.508,887.315,1069.575,887.315z"/>
		</g>
		<g>
			<path fill="#FFC547" d="M1123.324,887.315c-6.933,0-12.572,5.645-12.572,12.579c0,6.933,5.64,12.573,12.572,12.573
				c6.935,0,12.578-5.641,12.578-12.573C1135.902,892.96,1130.259,887.315,1123.324,887.315z"/>
		</g>
		<g>
			<polygon fill="#B8EFFF" points="1062.623,798.513 1062.623,744.889 1017.646,744.889 1006.529,798.513 			"/>
		</g>
		<g>
			<path fill="#FF7571" d="M1089.879,708.771H989.062L966.27,845.532h207.433v-57.029h-83.823V708.771z M1064.877,800.767h-61.116
				l12.053-58.132h49.063V800.767z"/>
		</g>
		<g>
			<path d="M1092.137,786.249v-79.733h-62.887l-49.874-114.483H872.282l31.084,176.963c-6.829-3.594-14.442-5.5-22.181-5.5
				c-15.396,0-29.922,7.469-38.859,19.977c-14.271,19.979-10.829,48.109,7.834,64.044l0.936,0.8l55.417-77.548l-0.609-0.361
				l-30.938-176.119H977.9l48.889,112.229h-39.636l-23.546,141.271h212.347v-61.537H1092.137z M850.697,844.992
				c-16.968-15.314-19.896-41.512-6.539-60.209c8.519-11.918,22.358-19.032,37.027-19.032c7.719,0,15.317,1.972,22.056,5.717
				L850.697,844.992z M1173.702,845.532H966.27l22.792-136.761h100.817v79.731h83.823V845.532z"/>
		</g>
		<g>
			<path d="M1003.761,800.767h61.116v-58.132h-49.063L1003.761,800.767z M1062.623,744.889v53.624h-56.094l11.116-53.624H1062.623z"
				/>
		</g>
		<g>
			<path d="M1135.447,872.42H949.945c-15.149,0-27.472,12.324-27.472,27.475c0,15.149,12.322,27.474,27.472,27.474h185.502
				c15.149,0,27.474-12.324,27.474-27.474C1162.921,884.744,1150.597,872.42,1135.447,872.42z M1135.447,925.116H949.945
				c-13.904,0-25.221-11.315-25.221-25.222c0-13.908,11.316-25.221,25.221-25.221h185.502c13.906,0,25.22,11.313,25.22,25.221
				C1160.667,913.801,1149.354,925.116,1135.447,925.116z"/>
		</g>
		<g>
			<path d="M962.07,885.062c-8.18,0-14.833,6.654-14.833,14.833c0,8.174,6.653,14.825,14.833,14.825
				c8.176,0,14.825-6.651,14.825-14.825C976.896,891.716,970.246,885.062,962.07,885.062z M962.07,912.468
				c-6.935,0-12.577-5.641-12.577-12.573c0-6.935,5.643-12.579,12.577-12.579c6.931,0,12.571,5.645,12.571,12.579
				C974.642,906.827,969.001,912.468,962.07,912.468z"/>
		</g>
		<g>
			<path d="M1015.819,885.062c-8.175,0-14.826,6.654-14.826,14.833c0,8.174,6.651,14.825,14.826,14.825
				c8.178,0,14.831-6.651,14.831-14.825C1030.65,891.716,1023.997,885.062,1015.819,885.062z M1015.819,912.468
				c-6.933,0-12.572-5.641-12.572-12.573c0-6.935,5.64-12.579,12.572-12.579c6.935,0,12.575,5.645,12.575,12.579
				C1028.395,906.827,1022.754,912.468,1015.819,912.468z"/>
		</g>
		<g>
			<path d="M1069.575,885.062c-8.178,0-14.831,6.654-14.831,14.833c0,8.174,6.653,14.825,14.831,14.825
				c8.173,0,14.824-6.651,14.824-14.825C1084.399,891.716,1077.748,885.062,1069.575,885.062z M1069.575,912.468
				c-6.935,0-12.577-5.641-12.577-12.573c0-6.935,5.643-12.579,12.577-12.579c6.933,0,12.57,5.645,12.57,12.579
				C1082.146,906.827,1076.508,912.468,1069.575,912.468z"/>
		</g>
		<g>
			<path d="M1123.324,885.062c-8.173,0-14.824,6.654-14.824,14.833c0,8.174,6.651,14.825,14.824,14.825
				c8.178,0,14.829-6.651,14.829-14.825C1138.153,891.716,1131.502,885.062,1123.324,885.062z M1123.324,912.468
				c-6.933,0-12.572-5.641-12.572-12.573c0-6.935,5.64-12.579,12.572-12.579c6.935,0,12.578,5.645,12.578,12.579
				C1135.902,906.827,1130.259,912.468,1123.324,912.468z"/>
		</g>
	</g>
	<g>
		<path d="M1024.056,790.018c-0.065,0-0.135-0.007-0.203-0.02c-0.602-0.11-0.997-0.689-0.887-1.29l6.595-35.406
			c0.113-0.601,0.68-1.009,1.293-0.884c0.602,0.11,0.996,0.689,0.887,1.29l-6.596,35.406
			C1025.045,789.646,1024.578,790.018,1024.056,790.018z"/>
	</g>
	<g>
		<path d="M1037.242,780.613c-0.065,0-0.13-0.007-0.197-0.019c-0.603-0.106-1-0.685-0.893-1.285l4.703-26.001
			c0.107-0.604,0.682-0.996,1.285-0.893c0.604,0.107,1.001,0.685,0.893,1.285l-4.702,26.002
			C1038.233,780.239,1037.77,780.613,1037.242,780.613z"/>
	</g>
	<g>
		<path fill="#FF7571" d="M882.893,783.931c0,5.806-4.707,10.513-10.511,10.513c-5.805,0-10.512-4.707-10.512-10.513
			c0-5.803,4.707-10.51,10.512-10.51C878.186,773.421,882.893,778.128,882.893,783.931z"/>
		<path d="M872.382,795.55c-6.405,0-11.618-5.212-11.618-11.619c0-6.403,5.213-11.616,11.618-11.616s11.617,5.213,11.617,11.616
			C883.999,790.338,878.787,795.55,872.382,795.55z M872.382,774.527c-5.187,0-9.405,4.219-9.405,9.403
			c0,5.188,4.219,9.406,9.405,9.406s9.404-4.219,9.404-9.406C881.786,778.746,877.568,774.527,872.382,774.527z"/>
	</g>
	<g>
		<path d="M1093.107,826.396H968.971c-0.611,0-1.106-0.495-1.106-1.106s0.495-1.106,1.106-1.106h124.137
			c0.615,0,1.107,0.495,1.107,1.106S1093.723,826.396,1093.107,826.396z"/>
	</g>
	<g>
		<path d="M1162.921,824.318c-0.611,0-1.106-0.494-1.106-1.105v-25.534c0-0.612,0.495-1.106,1.106-1.106s1.106,0.494,1.106,1.106
			v25.534C1164.027,823.824,1163.532,824.318,1162.921,824.318z"/>
	</g>
	<g>
		<path d="M1152.68,824.318c-0.609,0-1.106-0.494-1.106-1.105v-25.534c0-0.612,0.497-1.106,1.106-1.106
			c0.613,0,1.106,0.494,1.106,1.106v25.534C1153.786,823.824,1153.293,824.318,1152.68,824.318z"/>
	</g>
	<g>
		<path d="M1142.44,824.318c-0.611,0-1.106-0.494-1.106-1.105v-25.534c0-0.612,0.495-1.106,1.106-1.106
			c0.612,0,1.106,0.494,1.106,1.106v25.534C1143.547,823.824,1143.053,824.318,1142.44,824.318z"/>
	</g>
	<g>
		<path d="M1132.202,824.318c-0.614,0-1.106-0.494-1.106-1.105v-25.534c0-0.612,0.492-1.106,1.106-1.106
			c0.608,0,1.106,0.494,1.106,1.106v25.534C1133.309,823.824,1132.811,824.318,1132.202,824.318z"/>
	</g>
	<g>
		<path d="M835.298,875.145H587.711c-0.611,0-1.106-0.494-1.106-1.106c0-0.611,0.495-1.106,1.106-1.106h247.586
			c0.614,0,1.106,0.495,1.106,1.106C836.404,874.65,835.912,875.145,835.298,875.145z"/>
	</g>
	<g>
		<path fill="#D1D3D4" d="M813.065,874.038c3.481-6.172,5.477-13.292,5.477-20.88c0-23.521-19.065-42.585-42.583-42.585
			c-1.785,0-3.542,0.121-5.267,0.335c-10.118-20.365-31.119-34.369-55.402-34.369c-34.153,0-61.838,27.686-61.838,61.838
			c0,3.57,0.32,7.063,0.899,10.466h-21.23c-10.749,0-19.462,8.714-19.462,19.46v5.735H813.065z"/>
		<path d="M813.065,875.145H613.659c-0.61,0-1.106-0.494-1.106-1.106v-5.735c0-11.341,9.228-20.566,20.568-20.566h19.934
			c-0.471-3.131-0.709-6.274-0.709-9.359c0-34.708,28.236-62.944,62.944-62.944c23.804,0,45.206,13.117,56.042,34.287
			c1.573-0.169,3.125-0.253,4.627-0.253c24.091,0,43.689,19.601,43.689,43.691c0,7.497-1.941,14.905-5.619,21.423
			C813.835,874.929,813.468,875.145,813.065,875.145z M614.766,872.932h197.647c3.289-6.049,5.022-12.871,5.022-19.773
			c0-22.872-18.606-41.479-41.477-41.479c-1.658,0-3.383,0.11-5.133,0.326c-0.463,0.065-0.916-0.186-1.126-0.604
			c-10.343-20.822-31.192-33.756-54.41-33.756c-33.487,0-60.731,27.244-60.731,60.731c0,3.387,0.298,6.844,0.884,10.28
			c0.054,0.322-0.035,0.65-0.244,0.898c-0.212,0.249-0.519,0.394-0.847,0.394h-21.23c-10.122,0-18.355,8.233-18.355,18.354V872.932z
			"/>
	</g>
	<g>
		<g>
			<path fill="#D1D3D4" d="M751.777,905.574c0.131-0.845,0.222-1.705,0.222-2.586c0-5.758-2.935-10.825-7.386-13.801
				c0.077-0.923,0.138-1.848,0.138-2.79c0-17.997-14.587-32.586-32.584-32.586s-32.588,14.589-32.588,32.586h-14.998
				c-9.163,0-16.588,7.427-16.588,16.591c0,0.881,0.086,1.741,0.221,2.586H751.777z"/>
			<path d="M751.777,906.681H648.214c-0.545,0-1.008-0.396-1.094-0.934c-0.158-1.007-0.233-1.908-0.233-2.759
				c0-9.758,7.938-17.697,17.695-17.697h13.91c0.586-18.068,15.467-32.586,33.675-32.586c18.576,0,33.69,15.114,33.69,33.692
				c0,0.756-0.039,1.502-0.093,2.245c4.609,3.33,7.341,8.645,7.341,14.346c0,0.851-0.077,1.752-0.234,2.759
				C752.786,906.285,752.321,906.681,751.777,906.681z M649.182,904.468h101.627c0.056-0.522,0.084-1.014,0.084-1.479
				c0-5.181-2.578-9.995-6.896-12.881c-0.335-0.225-0.521-0.611-0.486-1.014c0.073-0.892,0.134-1.787,0.134-2.696
				c0-17.357-14.12-31.479-31.478-31.479c-17.359,0-31.481,14.122-31.481,31.479c0,0.611-0.493,1.106-1.106,1.106h-14.998
				c-8.536,0-15.482,6.945-15.482,15.484C649.1,903.454,649.125,903.945,649.182,904.468z"/>
		</g>
		<g>
			<path d="M771.915,906.681H628.077c-0.614,0-1.106-0.495-1.106-1.106s0.492-1.106,1.106-1.106h143.838
				c0.609,0,1.106,0.495,1.106,1.106S772.524,906.681,771.915,906.681z"/>
		</g>
	</g>
	<g>
		<g>
			<circle fill="#FFE099" cx="1154.385" cy="218.296" r="65.118"/>
			<path d="M1154.385,284.519c-36.515,0-66.225-29.708-66.225-66.222c0-36.517,29.71-66.225,66.225-66.225
				s66.225,29.708,66.225,66.225C1220.609,254.811,1190.899,284.519,1154.385,284.519z M1154.385,154.284
				c-35.296,0-64.012,28.716-64.012,64.012c0,35.296,28.716,64.009,64.012,64.009s64.012-28.713,64.012-64.009
				C1218.396,183,1189.681,154.284,1154.385,154.284z"/>
		</g>
		<g>
			<line fill="#FFE099" x1="1154.385" y1="134.144" x2="1154.385" y2="93.877"/>
			<path d="M1154.385,135.25c-0.611,0-1.106-0.495-1.106-1.106V93.877c0-0.611,0.495-1.107,1.106-1.107s1.106,0.496,1.106,1.107
				v40.267C1155.491,134.755,1154.996,135.25,1154.385,135.25z"/>
		</g>
		<g>
			<line fill="#FFE099" x1="1104.92" y1="150.215" x2="1086.669" y2="125.089"/>
			<path d="M1104.92,151.322c-0.341,0-0.678-0.158-0.894-0.456l-18.252-25.126c-0.361-0.495-0.251-1.187,0.242-1.545
				c0.497-0.359,1.188-0.249,1.547,0.244l18.252,25.126c0.358,0.495,0.251,1.186-0.244,1.545
				C1105.375,151.252,1105.146,151.322,1104.92,151.322z"/>
		</g>
		<g>
			<line fill="#FFE099" x1="1074.353" y1="192.291" x2="1024.045" y2="175.944"/>
			<path d="M1074.353,193.397c-0.114,0-0.23-0.018-0.343-0.054l-50.307-16.346c-0.581-0.188-0.901-0.813-0.711-1.394
				c0.19-0.583,0.813-0.903,1.394-0.711l50.307,16.346c0.581,0.188,0.899,0.813,0.711,1.394
				C1075.25,193.101,1074.818,193.397,1074.353,193.397z"/>
		</g>
		<g>
			<line fill="#FFE099" x1="1074.353" y1="244.298" x2="1044.816" y2="253.895"/>
			<path d="M1044.816,255.001c-0.467,0-0.9-0.296-1.053-0.765c-0.189-0.582,0.13-1.206,0.711-1.394l29.535-9.597
				c0.579-0.19,1.206,0.127,1.394,0.711c0.188,0.582-0.13,1.206-0.711,1.394l-29.534,9.597
				C1045.043,254.984,1044.931,255.001,1044.816,255.001z"/>
		</g>
		<g>
			<line fill="#FFE099" x1="1104.92" y1="286.373" x2="1074.338" y2="328.47"/>
			<path d="M1074.336,329.576c-0.227,0-0.451-0.069-0.65-0.212c-0.493-0.358-0.604-1.05-0.242-1.545l30.583-42.097
				c0.356-0.497,1.048-0.605,1.543-0.245c0.495,0.359,0.604,1.05,0.246,1.545l-30.583,42.097
				C1075.017,329.418,1074.681,329.576,1074.336,329.576z"/>
		</g>
		<g>
			<line fill="#FFE099" x1="1154.383" y1="302.449" x2="1154.383" y2="333.503"/>
			<path d="M1154.383,334.609c-0.609,0-1.106-0.495-1.106-1.106v-31.054c0-0.611,0.497-1.106,1.106-1.106
				c0.613,0,1.106,0.495,1.106,1.106v31.054C1155.489,334.114,1154.996,334.609,1154.383,334.609z"/>
		</g>
		<g>
			<line fill="#FFE099" x1="1203.844" y1="286.373" x2="1244.78" y2="342.715"/>
			<path d="M1244.783,343.822c-0.344,0-0.681-0.158-0.897-0.456l-40.937-56.342c-0.359-0.495-0.248-1.187,0.247-1.545
				c0.492-0.358,1.186-0.249,1.542,0.245l40.937,56.342c0.361,0.495,0.249,1.187-0.244,1.545
				C1245.234,343.752,1245.008,343.822,1244.783,343.822z"/>
		</g>
		<g>
			<line fill="#FFE099" x1="1234.418" y1="244.3" x2="1263.954" y2="253.897"/>
			<path d="M1263.954,255.003c-0.115,0-0.228-0.017-0.343-0.054l-29.534-9.597c-0.581-0.188-0.899-0.813-0.711-1.394
				c0.19-0.583,0.814-0.901,1.394-0.711l29.535,9.597c0.581,0.188,0.9,0.813,0.711,1.394
				C1264.855,254.708,1264.42,255.003,1263.954,255.003z"/>
		</g>
		<g>
			<line fill="#FFE099" x1="1234.418" y1="192.291" x2="1276.26" y2="178.697"/>
			<path d="M1234.418,193.397c-0.467,0-0.898-0.296-1.052-0.765c-0.188-0.582,0.13-1.206,0.711-1.394l41.842-13.593
				c0.579-0.184,1.206,0.127,1.394,0.711c0.188,0.582-0.13,1.206-0.711,1.394l-41.842,13.593
				C1234.647,193.379,1234.532,193.397,1234.418,193.397z"/>
		</g>
		<g>
			<line fill="#FFE099" x1="1203.848" y1="150.215" x2="1244.78" y2="93.877"/>
			<path d="M1203.847,151.322c-0.228,0-0.452-0.069-0.65-0.212c-0.492-0.359-0.604-1.05-0.242-1.545l40.932-56.338
				c0.356-0.495,1.048-0.605,1.545-0.244c0.493,0.359,0.605,1.05,0.244,1.545l-40.932,56.338
				C1204.527,151.164,1204.189,151.322,1203.847,151.322z"/>
		</g>
	</g>
</g>
<rect x="1246.416" y="651.626" width="2.251" height="116.157"/>
</svg>
