<?xml version="1.0" encoding="utf-8"?>
<svg id="master-artboard" viewBox="0 0 1400 980" version="1.1" xmlns="http://www.w3.org/2000/svg" x="0px" y="0px" width="1400px" height="980px" enable-background="new 0 0 1400 980">
<path d="M 0 0 H 1400 V 980 H 0 V 0 Z" fill-rule="evenodd" clip-rule="evenodd" fill="#FFFF66"/>
<g>
	<path d="M 146.8000030517578 681.4000244140625 L 150 682.9000244140625 L 50.5 895.2999877929688 L 71.19999694824219 904.9000244140625 L 170.6999969482422 692.5 L 192.5 702.7000122070312 L 202.89999389648438 680.5999755859375 L 157.10000610351562 659.2000122070312 L 129.6999969482422 650.9000244140625 L 122.80000305175781 665.5999755859375 Z" fill-rule="evenodd" clip-rule="evenodd" fill="#F0D852"/>
	<path d="M 143 675.9000244140625 L 163.6999969482422 685.5999755859375 L 64.19999694824219 897.9000244140625 L 43.5 888.2999877929688 Z" fill-rule="evenodd" clip-rule="evenodd" fill="#FF9933"/>
	<path d="M 139.8000030517578 674.4000244140625 L 185.5 695.7000122070312 L 195.89999389648438 673.5999755859375 L 150.10000610351562 652.2000122070312 L 122.69999694824219 643.9000244140625 L 115.80000305175781 658.5999755859375 Z" fill-rule="evenodd" clip-rule="evenodd" fill="#4D4D4D"/>
</g>
<g>
	<path fill-rule="evenodd" clip-rule="evenodd" fill="#F0D852" d="M178.8,868.8l124.3-165.5l294.2,220.6L178.8,868.8z M232.1,846.4&#10;&#9;&#9;l258.6,34.1L308.9,744.2L232.1,846.4z"/>
	<path fill-rule="evenodd" clip-rule="evenodd" fill="#FFFFFF" d="M171.8,861.8l124.3-165.5l294.2,220.6L171.8,861.8z M225.1,839.4&#10;&#9;&#9;l258.6,34.1L301.9,737.2L225.1,839.4z"/>
	<path fill-rule="evenodd" clip-rule="evenodd" fill="#808080" d="M296.4,709.6l6.3-8.4l0.6,0.5l-6.3,8.4L296.4,709.6z M542.1,893.9&#10;&#9;&#9;l6.3-8.4l0.6,0.5l-6.3,8.4L542.1,893.9z M552.9,896.6l3.7-5l0.6,0.5l-3.7,5L552.9,896.6z M550.8,895.1l3.7-5l0.6,0.5l-3.7,5&#10;&#9;&#9;L550.8,895.1z M548.8,893.5l3.7-5l0.6,0.5l-3.7,5L548.8,893.5z M546.8,892l3.7-5l0.6,0.5l-3.7,5L546.8,892z M531.9,886.2l6.3-8.4&#10;&#9;&#9;l0.6,0.5l-6.3,8.4L531.9,886.2z M542.7,889l3.7-5l0.6,0.5l-3.7,5L542.7,889z M540.6,887.4l3.7-5l0.6,0.5l-3.7,5L540.6,887.4z&#10;&#9;&#9; M538.6,885.9l3.7-5l0.6,0.5l-3.7,5L538.6,885.9z M536.5,884.3l3.7-5l0.6,0.5l-3.7,5L536.5,884.3z M521.7,878.5l6.3-8.4l0.6,0.5&#10;&#9;&#9;l-6.3,8.4L521.7,878.5z M532.4,881.3l3.7-5l0.6,0.5l-3.7,5L532.4,881.3z M530.4,879.7l3.7-5l0.6,0.5l-3.7,5L530.4,879.7z&#10;&#9;&#9; M528.3,878.2l3.7-5l0.6,0.5l-3.7,5L528.3,878.2z M526.3,876.7l3.7-5l0.6,0.5l-3.7,5L526.3,876.7z M511.4,870.8l6.3-8.4l0.6,0.5&#10;&#9;&#9;l-6.3,8.4L511.4,870.8z M522.2,873.6l3.7-5l0.6,0.5l-3.7,5L522.2,873.6z M520.1,872.1l3.7-5l0.6,0.5l-3.7,5L520.1,872.1z&#10;&#9;&#9; M518.1,870.5l3.7-5l0.6,0.5l-3.7,5L518.1,870.5z M516,869l3.7-5l0.6,0.5l-3.7,5L516,869z M501.2,863.2l6.3-8.4l0.6,0.5l-6.3,8.4&#10;&#9;&#9;L501.2,863.2z M511.9,865.9l3.7-5l0.6,0.5l-3.7,5L511.9,865.9z M509.9,864.4l3.7-5l0.6,0.5l-3.7,5L509.9,864.4z M507.8,862.8l3.7-5&#10;&#9;&#9;l0.6,0.5l-3.7,5L507.8,862.8z M505.8,861.3l3.7-5l0.6,0.5l-3.7,5L505.8,861.3z M491,855.5l6.3-8.4l0.6,0.5l-6.3,8.4L491,855.5z&#10;&#9;&#9; M501.7,858.2l3.7-5l0.6,0.5l-3.7,5L501.7,858.2z M499.6,856.7l3.7-5l0.6,0.5l-3.7,5L499.6,856.7z M497.6,855.2l3.7-5l0.6,0.5&#10;&#9;&#9;l-3.7,5L497.6,855.2z M495.5,853.6l3.7-5l0.6,0.5l-3.7,5L495.5,853.6z M480.7,847.8l6.3-8.4l0.6,0.5l-6.3,8.4L480.7,847.8z&#10;&#9;&#9; M491.5,850.6l3.7-5l0.6,0.5l-3.7,5L491.5,850.6z M489.4,849l3.7-5l0.6,0.5l-3.7,5L489.4,849z M487.4,847.5l3.7-5l0.6,0.5l-3.7,5&#10;&#9;&#9;L487.4,847.5z M485.3,845.9l3.7-5l0.6,0.5l-3.7,5L485.3,845.9z M470.5,840.1l6.3-8.4l0.6,0.5l-6.3,8.4L470.5,840.1z M481.2,842.9&#10;&#9;&#9;l3.7-5l0.6,0.5l-3.7,5L481.2,842.9z M479.2,841.4l3.7-5l0.6,0.5l-3.7,5L479.2,841.4z M477.1,839.8l3.7-5l0.6,0.5l-3.7,5&#10;&#9;&#9;L477.1,839.8z M475.1,838.3l3.7-5l0.6,0.5l-3.7,5L475.1,838.3z M460.2,832.5l6.3-8.4l0.6,0.5l-6.3,8.4L460.2,832.5z M471,835.2&#10;&#9;&#9;l3.7-5l0.6,0.5l-3.7,5L471,835.2z M468.9,833.7l3.7-5l0.6,0.5l-3.7,5L468.9,833.7z M466.9,832.1l3.7-5l0.6,0.5l-3.7,5L466.9,832.1z&#10;&#9;&#9; M464.9,830.6l3.7-5l0.6,0.5l-3.7,5L464.9,830.6z M450,824.8l6.3-8.4l0.6,0.5l-6.3,8.4L450,824.8z M460.8,827.5l3.7-5l0.6,0.5&#10;&#9;&#9;l-3.7,5L460.8,827.5z M458.7,826l3.7-5l0.6,0.5l-3.7,5L458.7,826z M456.7,824.5l3.7-5l0.6,0.5l-3.7,5L456.7,824.5z M454.6,822.9&#10;&#9;&#9;l3.7-5l0.6,0.5l-3.7,5L454.6,822.9z M439.8,817.1l6.3-8.4l0.6,0.5l-6.3,8.4L439.8,817.1z M450.5,819.9l3.7-5l0.6,0.5l-3.7,5&#10;&#9;&#9;L450.5,819.9z M448.5,818.3l3.7-5l0.6,0.5l-3.7,5L448.5,818.3z M446.4,816.8l3.7-5l0.6,0.5l-3.7,5L446.4,816.8z M444.4,815.2l3.7-5&#10;&#9;&#9;l0.6,0.5l-3.7,5L444.4,815.2z M429.5,809.4l6.3-8.4l0.6,0.5l-6.3,8.4L429.5,809.4z M440.3,812.2l3.7-5l0.6,0.5l-3.7,5L440.3,812.2z&#10;&#9;&#9; M438.2,810.6l3.7-5l0.6,0.5l-3.7,5L438.2,810.6z M436.2,809.1l3.7-5l0.6,0.5l-3.7,5L436.2,809.1z M434.1,807.6l3.7-5l0.6,0.5&#10;&#9;&#9;l-3.7,5L434.1,807.6z M419.3,801.8l6.3-8.4l0.6,0.5l-6.3,8.4L419.3,801.8z M430,804.5l3.7-5l0.6,0.5l-3.7,5L430,804.5z M428,803&#10;&#9;&#9;l3.7-5l0.6,0.5l-3.7,5L428,803z M425.9,801.4l3.7-5l0.6,0.5l-3.7,5L425.9,801.4z M423.9,799.9l3.7-5l0.6,0.5l-3.7,5L423.9,799.9z&#10;&#9;&#9; M409.1,794.1l6.3-8.4l0.6,0.5l-6.3,8.4L409.1,794.1z M419.8,796.8l3.7-5l0.6,0.5l-3.7,5L419.8,796.8z M417.7,795.3l3.7-5l0.6,0.5&#10;&#9;&#9;l-3.7,5L417.7,795.3z M415.7,793.7l3.7-5l0.6,0.5l-3.7,5L415.7,793.7z M413.7,792.2l3.7-5l0.6,0.5l-3.7,5L413.7,792.2z&#10;&#9;&#9; M398.8,786.4l6.3-8.4l0.6,0.5l-6.3,8.4L398.8,786.4z M409.6,789.2l3.7-5l0.6,0.5l-3.7,5L409.6,789.2z M407.5,787.6l3.7-5l0.6,0.5&#10;&#9;&#9;l-3.7,5L407.5,787.6z M405.5,786.1l3.7-5l0.6,0.5l-3.7,5L405.5,786.1z M403.4,784.5l3.7-5l0.6,0.5l-3.7,5L403.4,784.5z&#10;&#9;&#9; M388.6,778.7l6.3-8.4l0.6,0.5l-6.3,8.4L388.6,778.7z M399.3,781.5l3.7-5l0.6,0.5l-3.7,5L399.3,781.5z M397.3,779.9l3.7-5l0.6,0.5&#10;&#9;&#9;l-3.7,5L397.3,779.9z M395.2,778.4l3.7-5l0.6,0.5l-3.7,5L395.2,778.4z M393.2,776.9l3.7-5l0.6,0.5l-3.7,5L393.2,776.9z&#10;&#9;&#9; M378.3,771.1l6.3-8.4l0.6,0.5l-6.3,8.4L378.3,771.1z M389.1,773.8l3.7-5l0.6,0.5l-3.7,5L389.1,773.8z M387.1,772.3l3.7-5l0.6,0.5&#10;&#9;&#9;l-3.7,5L387.1,772.3z M385,770.7l3.7-5l0.6,0.5l-3.7,5L385,770.7z M383,769.2l3.7-5l0.6,0.5l-3.7,5L383,769.2z M368.1,763.4&#10;&#9;&#9;l6.3-8.4l0.6,0.5l-6.3,8.4L368.1,763.4z M378.9,766.1l3.7-5l0.6,0.5l-3.7,5L378.9,766.1z M376.8,764.6l3.7-5l0.6,0.5l-3.7,5&#10;&#9;&#9;L376.8,764.6z M374.8,763l3.7-5l0.6,0.5l-3.7,5L374.8,763z M372.7,761.5l3.7-5l0.6,0.5l-3.7,5L372.7,761.5z M357.9,755.7l6.3-8.4&#10;&#9;&#9;l0.6,0.5l-6.3,8.4L357.9,755.7z M368.6,758.5l3.7-5l0.6,0.5l-3.7,5L368.6,758.5z M366.6,756.9l3.7-5l0.6,0.5l-3.7,5L366.6,756.9z&#10;&#9;&#9; M364.5,755.4l3.7-5l0.6,0.5l-3.7,5L364.5,755.4z M362.5,753.8l3.7-5l0.6,0.5l-3.7,5L362.5,753.8z M347.6,748l6.3-8.4l0.6,0.5&#10;&#9;&#9;l-6.3,8.4L347.6,748z M358.4,750.8l3.7-5l0.6,0.5l-3.7,5L358.4,750.8z M356.3,749.2l3.7-5l0.6,0.5l-3.7,5L356.3,749.2z&#10;&#9;&#9; M354.3,747.7l3.7-5l0.6,0.5l-3.7,5L354.3,747.7z M352.2,746.2l3.7-5l0.6,0.5l-3.7,5L352.2,746.2z M337.4,740.3l6.3-8.4l0.6,0.5&#10;&#9;&#9;l-6.3,8.4L337.4,740.3z M348.1,743.1l3.7-5l0.6,0.5l-3.7,5L348.1,743.1z M346.1,741.6l3.7-5l0.6,0.5l-3.7,5L346.1,741.6z M344,740&#10;&#9;&#9;l3.7-5l0.6,0.5l-3.7,5L344,740z M342,738.5l3.7-5l0.6,0.5l-3.7,5L342,738.5z M327.2,732.7l6.3-8.4l0.6,0.5l-6.3,8.4L327.2,732.7z&#10;&#9;&#9; M337.9,735.4l3.7-5l0.6,0.5l-3.7,5L337.9,735.4z M335.8,733.9l3.7-5l0.6,0.5l-3.7,5L335.8,733.9z M333.8,732.3l3.7-5l0.6,0.5&#10;&#9;&#9;l-3.7,5L333.8,732.3z M331.8,730.8l3.7-5l0.6,0.5l-3.7,5L331.8,730.8z M316.9,725l6.3-8.4l0.6,0.5l-6.3,8.4L316.9,725z&#10;&#9;&#9; M327.7,727.8l3.7-5l0.6,0.5l-3.7,5L327.7,727.8z M325.6,726.2l3.7-5l0.6,0.5l-3.7,5L325.6,726.2z M323.6,724.7l3.7-5l0.6,0.5&#10;&#9;&#9;l-3.7,5L323.6,724.7z M321.5,723.1l3.7-5l0.6,0.5l-3.7,5L321.5,723.1z M306.7,717.3l6.3-8.4l0.6,0.5l-6.3,8.4L306.7,717.3z&#10;&#9;&#9; M317.4,720.1l3.7-5l0.6,0.5l-3.7,5L317.4,720.1z M315.4,718.5l3.7-5l0.6,0.5l-3.7,5L315.4,718.5z M313.3,717l3.7-5l0.6,0.5l-3.7,5&#10;&#9;&#9;L313.3,717z M311.3,715.4l3.7-5l0.6,0.5l-3.7,5L311.3,715.4z M552.4,901.5l6.3-8.4l0.6,0.5L553,902L552.4,901.5z M307.2,712.4&#10;&#9;&#9;l3.7-5l0.6,0.5l-3.7,5L307.2,712.4z M305.2,710.9l3.7-5l0.6,0.5l-3.7,5L305.2,710.9z M303.1,709.3l3.7-5l0.6,0.5l-3.7,5&#10;&#9;&#9;L303.1,709.3z M301.1,707.8l3.7-5l0.6,0.5l-3.7,5L301.1,707.8z"/>
</g>
<g>
	<path fill-rule="evenodd" clip-rule="evenodd" fill="#F0D852" d="M1062.1,727.5l-2.3,3.3c27.3,32.9,32.8,48.2,49.8,49.3&#10;&#9;&#9;c0.5,0.7,1.2,1.3,1.8,1.9l-2.3,1.1l7,15.3l-3.6,0.7l2,8.4l-13.6,2.8l0.7,3.8c6.3-1.1,15.9,4.5,16.5,9.2c8.4,70,51.9,111,61.1,131&#10;&#9;&#9;c3.4,7.3,13.8,1.4,13.3-1.3l-3.9-25.6l-2.8-0.6c-11.9-18.5-52.3-60.1-48.9-116.1l-3.3-7l-3.2-8l-5-10.8c4.4-1.2,8.1-4.2,10.1-8.4&#10;&#9;&#9;l9.7,6.9l7.2,4.7l6.3,4.5c55.7,6.9,89.2,54.2,105.2,69.3l0.1,2.8l24.5,8.6c2.6,0.9,10.4-8.2,3.7-12.8c-18-12.7-50.3-63-117.6-84.2&#10;&#9;&#9;c-4.5-1.4-8.3-12-6.1-17.9l-3.6-1.4l-5.2,12.9l-7.9-3.5l-1.3,3.4l-13.8-9.7l-1.5,2.1c-0.4-0.8-0.9-1.5-1.5-2.2&#10;&#9;&#9;c2-17-12.1-25.1-39.4-58l-3.6,1.7l7.6,16.6c5.7-2.6,12.2,11.5,6.5,14.2l9.8,21.2c-2.4,1.1-4.7,3-6.2,5.2l-19.1-13.5&#10;&#9;&#9;c-3.6,5.2-16.4-3.8-12.7-9L1062.1,727.5z"/>
	<path fill-rule="evenodd" clip-rule="evenodd" fill="#CCCCCC" d="M1055.1,720.5l-2.3,3.3c27.5,33.1,32.8,48.4,50.2,49.3&#10;&#9;&#9;c7.5,8.4,20.9,6.3,25.8-3.7l9.7,6.9l8.3-11.7l-16.7-11.7l-1.5,2.1c-5.4-9.3-20.2-10.7-26.8-1.4l-19.1-13.5&#10;&#9;&#9;c-1.5,2.2-5.6,1.9-9.1-0.6c-3.5-2.5-5.1-6.3-3.6-8.4L1055.1,720.5z"/>
	<path fill-rule="evenodd" clip-rule="evenodd" fill="#999999" d="M1097.2,750.2l-8.5-6c-1.1,1.5,0,4,2.4,5.6&#10;&#9;&#9;C1093.4,751.5,1096.1,751.7,1097.2,750.2L1097.2,750.2z"/>
	<path fill-rule="evenodd" clip-rule="evenodd" fill="#FFFFFF" d="M1084.2,696.4l3.6-1.7c27.5,33.1,41.6,41.2,39.3,58.3&#10;&#9;&#9;c6.8,9,2.3,21.7-8.4,24.7l5,10.8l-13,6l-8.5-18.5l2.3-1.1c-8.2-7-6.8-21.8,3.6-26.6l-9.8-21.2c2.4-1.1,2.9-5.2,1.1-9.1&#10;&#9;&#9;c-1.8-3.9-5.2-6.2-7.6-5.1L1084.2,696.4z"/>
	<path fill-rule="evenodd" clip-rule="evenodd" fill="#999999" d="M1105.7,743.2l-4.3-9.4c1.6-0.7,3.9,0.8,5.1,3.4&#10;&#9;&#9;C1107.6,739.7,1107.3,742.4,1105.7,743.2L1105.7,743.2z"/>
	<path fill-rule="evenodd" clip-rule="evenodd" fill="#666666" d="M1110.2,753c5.3-2.4,11.5-0.1,14,5.2c2.4,5.3,0.1,11.5-5.2,14&#10;&#9;&#9;c-5.3,2.4-11.5,0.1-14-5.2C1102.6,761.7,1104.9,755.5,1110.2,753L1110.2,753z M1110.8,754.3c4.6-2.1,10-0.1,12.1,4.5&#10;&#9;&#9;c2.1,4.6,0.1,10-4.5,12.1c-4.6,2.1-10,0.1-12.1-4.5C1104.2,761.8,1106.2,756.4,1110.8,754.3L1110.8,754.3z"/>
	<path d="M 1138.5 776.2000122070312 L 1145.199951171875 759.0999755859375 L 1153.0999755859375 762.7000122070312 L 1145.800048828125 780.9000244140625 Z" fill-rule="evenodd" clip-rule="evenodd" fill="#EB8723"/>
	<path fill-rule="evenodd" clip-rule="evenodd" fill="#FF9933" d="M1158.4,749.8l3.6,1.4c-2.2,5.9,1.5,16.5,6.1,17.9&#10;&#9;&#9;c67.3,21.2,99.6,71.4,117.6,84.2c6.6,4.7-1.1,13.7-3.7,12.8l-24.5-8.6l-0.1-2.8c-16-15.1-49.5-62.4-105.2-69.3l-6.3-4.5&#10;&#9;&#9;L1158.4,749.8z"/>
	<path fill-rule="evenodd" clip-rule="evenodd" fill="#4D4D4D" d="M1191.6,778.3c51.6,24,78.3,63.9,94,75c6.6,4.7-1.1,13.7-3.7,12.8&#10;&#9;&#9;l-17.5-6.1l-0.1-5.4c-20.5-20.5-38.1-41.8-66.1-58.3C1192.5,792.9,1190.7,786.1,1191.6,778.3L1191.6,778.3z"/>
	<path d="M 1123.5999755859375 788.5999755859375 L 1105.5999755859375 792 L 1107.5999755859375 800.4000244140625 L 1126.9000244140625 796.5 Z" fill-rule="evenodd" clip-rule="evenodd" fill="#EB8723"/>
	<path fill-rule="evenodd" clip-rule="evenodd" fill="#FF9933" d="M1094,803.2l0.7,3.8c6.3-1.1,15.9,4.5,16.5,9.2&#10;&#9;&#9;c8.4,70,51.9,111,61.1,131c3.4,7.3,13.8,1.4,13.3-1.3l-3.9-25.6l-2.8-0.6c-11.9-18.5-52.3-60.1-48.9-116.1l-3.3-7L1094,803.2z"/>
	<path fill-rule="evenodd" clip-rule="evenodd" fill="#4D4D4D" d="M1115.9,841.1c14.1,55.1,48.4,88.7,56.5,106.2&#10;&#9;&#9;c3.4,7.3,13.8,1.4,13.3-1.3l-2.8-18.3l-5.3-1.1c-16.4-23.8-34.1-45.1-45.2-75.6C1130.1,844.7,1123.7,841.6,1115.9,841.1&#10;&#9;&#9;L1115.9,841.1z"/>
</g>
<g>
	<path fill-rule="evenodd" clip-rule="evenodd" fill="#F0D852" d="M1335.2,688.5c0.9,0.3,1.4,1.3,1.1,2.7l-1.7,7.5&#10;&#9;&#9;c-0.4,1.8-2.1,3.6-3.7,3.9l-8.1,1.6c-0.6,0.1-1.1,0-1.5-0.2l-15.4,15c-2.2,2.2-5,3.4-7.9,3.7l13.2,13.5l-8.8,8.6l-1-1l5.6-5.5&#10;&#9;&#9;l-16.6-17c-1.1-0.6-2.2-1.4-3.1-2.3l-43.9-44.9c-4.4-4.5-5.7-10.3-2.4-15.3c-3.8-4.2-11.2-14.2-14.5-22.4l-0.5,0.2l-3.4-10.2&#10;&#9;&#9;l0.4-0.2c-0.5-1.9-1-3.8-1.4-5.7c-7.3-21.2-35-37.2-44.5-59.4c-5.4-12.6-6.3-28-2-41c6.1-18.2,16.4-17.5,16,3.5&#10;&#9;&#9;c-0.1,7.4-0.3,17.2,2.2,27.8c2.3,9.9,8.5,21,14.7,32.3c6.7,12.2,13.5,24.5,16.1,36.1c0.4,1.9,0.8,3.7,1.3,5.5l0.5-0.2l3.3,10&#10;&#9;&#9;l-0.4,0.2c3.1,7.8,7.6,15,13.8,21.3c0.3-0.4,0.6-0.7,1-1.1l22.5-22c17.7-17.3,45.6-16.6,63,0.7&#10;&#9;&#9;C1343.6,648.9,1345.5,671.5,1335.2,688.5L1335.2,688.5z M1217.2,606.7c-3.1-7.2-7.2-14.7-11.3-22c-6.3-11.4-12.5-22.7-15-32.9&#10;&#9;&#9;c-2.6-10.9-2.4-20.9-2.3-28.5c0.2-15.1-5.2-20.1-11-2.6c-4.1,12.4-3.2,27.2,1.9,39.2C1186.9,577,1205.9,591.2,1217.2,606.7&#10;&#9;&#9;L1217.2,606.7z"/>
	<path fill-rule="evenodd" clip-rule="evenodd" fill="#4D4D4D" d="M1318.9,683.1l8.1-1.6c1.6-0.3,2.7,0.9,2.2,2.7l-1.7,7.5&#10;&#9;&#9;c-0.4,1.8-2.1,3.6-3.7,3.9l-8.1,1.6c-1.7,0.3-2.7-0.9-2.3-2.7l1.7-7.5C1315.6,685.2,1317.2,683.5,1318.9,683.1L1318.9,683.1z"/>
	<path d="M 1283.0999755859375 707.5999755859375 L 1304.199951171875 729.2000122070312 L 1301.0999755859375 732.2000122070312 L 1280 710.5999755859375 Z" fill-rule="evenodd" clip-rule="evenodd" fill="#FFFFFF"/>
	<path fill="#221F20" d="M1235.3,651.9c-10.5-10.7-16.1-23.6-19.2-38.1c-7.3-21.2-35-37.2-44.5-59.4c-5.4-12.6-6.3-28-2-41&#10;&#9;&#9;c6.1-18.2,16.4-17.5,16,3.5c-0.1,7.4-0.3,17.2,2.2,27.8c2.4,9.9,8.5,21,14.7,32.3c6.7,12.2,13.5,24.5,16,36.1&#10;&#9;&#9;c3,14.1,8.4,26.6,18.6,37L1235.3,651.9z M1211.6,600.2c-3.1-7.2-7.2-14.7-11.3-22c-6.3-11.4-12.5-22.7-14.9-32.9&#10;&#9;&#9;c-2.6-10.9-2.4-20.9-2.3-28.5c0.3-15.1-5.2-20.1-11-2.6c-4.1,12.4-3.2,27.2,1.9,39.2C1181.3,570.6,1200.3,584.7,1211.6,600.2&#10;&#9;&#9;L1211.6,600.2z"/>
	<path d="M 1303.0999755859375 728.0999755859375 L 1304.199951171875 729.2000122070312 L 1295.4000244140625 737.7000122070312 L 1294.4000244140625 736.7000122070312 Z" fill-rule="evenodd" clip-rule="evenodd" fill="#999999"/>
	<path fill-rule="evenodd" clip-rule="evenodd" fill="#FF9933" d="M1322,627.1L1322,627.1c17.1,17.5,16.8,45.8-0.7,62.9l-22.4,21.9&#10;&#9;&#9;c-5.2,5-13.5,4.9-18.6-0.2l-43.9-44.9c-5.1-5.1-5-13.5,0.2-18.5l22.5-22C1276.6,609.3,1304.9,609.6,1322,627.1L1322,627.1z"/>
	<path fill-rule="evenodd" clip-rule="evenodd" fill="#4D4D4D" d="M1311.4,637.5L1311.4,637.5c11.4,11.6,11.2,30.5-0.5,41.9&#10;&#9;&#9;L1296,694c-3.5,3.3-9,3.3-12.4-0.2l-29.2-29.8c-3.4-3.4-3.3-9,0.1-12.3l14.9-14.6C1281.2,625.7,1300,625.9,1311.4,637.5&#10;&#9;&#9;L1311.4,637.5z"/>
	<path fill-rule="evenodd" clip-rule="evenodd" fill="#FFFFFF" d="M1307.4,641.4L1307.4,641.4c9.2,9.4,9.1,24.8-0.4,34l-12.1,11.9&#10;&#9;&#9;c-2.8,2.7-7.3,2.7-10-0.1l-23.7-24.3c-2.7-2.8-2.7-7.3,0.1-10l12.1-11.9C1282.8,631.8,1298.2,631.9,1307.4,641.4L1307.4,641.4z&#10;&#9;&#9; M1306.5,642.3L1306.5,642.3c8.7,9,8.6,23.4-0.4,32.2l-11.5,11.2c-2.7,2.6-6.9,2.5-9.5-0.1l-22.4-23c-2.6-2.6-2.6-6.9,0.1-9.5&#10;&#9;&#9;l11.5-11.2C1283.2,633.2,1297.7,633.4,1306.5,642.3L1306.5,642.3z"/>
	<path d="M 1220.300048828125 618.4000244140625 L 1217 619.5999755859375 L 1220.4000244140625 629.7999877929688 L 1223.5999755859375 628.4000244140625 Z" fill-rule="evenodd" clip-rule="evenodd" fill="#FFFFFF"/>
</g>
<g>
	<path fill-rule="evenodd" clip-rule="evenodd" fill="#F0D852" d="M1078.6,190.6l17.4-6.6l4.3,11.3l3.4-1.3l-3-7.9&#10;&#9;&#9;c-1.4-3.7,1.2-9.4,4.8-10.8l93.1-35.6c3.5-1.4,7.6,0.3,8.8,1.8l52.3-20c8.3-3.2,17.1-1.8,24,2.8c2.7,1.8,3.8,5.3,3.1,7.4&#10;&#9;&#9;c-1.4,4-3,9.6,7.6,18.8c35.6,31.1,65.9,103.2,72.8,124.1c1.5,4.5,5.9,8.6,8.7,11.9c4.4,5.1,7.5,10.1,3.5,13.6&#10;&#9;&#9;c-0.8,0.7-1.9,1.5-3.2,2.4c1.3,3.1-0.7,6.5-2.8,8.7l24.5,49.4c0.8,1.6-0.3,3.6-2.1,5.2c1.3,3.2,2.9,6.3,4.2,9.3v14.6&#10;&#9;&#9;c-3.7-6.2-7.3-12.9-10.3-20.4c-2.3,0.6-4.4,0.5-5.2-1l-28.1-49.2c-3.3,0.3-6.2-0.1-8.3-1.2c-6.4,3-11.7,5.3-13.6,5.7&#10;&#9;&#9;c-4.5,0.9-10.2-6.6-6.4-12.2c5.4-8.1-0.4-15.7-1.9-18c-8.2-12.7-16.3-23.3-24.3-32.4l-6.8,2.6c-4.5,1.7-10.6,0-13.4-3.8l-14.6-20.1&#10;&#9;&#9;c-3.1-4.3-6.7-6.6-10.7-5l-12.5,4.8c-4.6,1.7-9.8-0.6-11.5-5.1l-39.1,14.9c-13.4,5.1-30.4-0.1-37.7-14.4l-15.4,5.9&#10;&#9;&#9;c-4.5,1.7-9.9-0.9-11.5-5.1l-1.2-3.1c-3.7,1.4-9.4-1.2-10.8-4.8l-3.9-10.1l-3.4,1.3l4.3,11.3l-17.4,6.7l-1.1-2.9l-5.7,2.2l0,0&#10;&#9;&#9;l1.1,2.9c-11.4,4.4-23.5,6.9-38.5,1.9l-2.8-7.3c-3.5,1.4-7.2,2.3-11.5,1.8l-1.9-4.9c2.8-3.2,6.2-4.9,9.8-6.3l-2.8-7.3&#10;&#9;&#9;c7.8-13.6,18.5-19.9,30-24.2l1.1,2.8l0,0l5.7-2.2L1078.6,190.6z"/>
	<path d="M 1071.5999755859375 183.60000610351562 L 1089 177 L 1106.699951171875 223.1999969482422 L 1089.300048828125 229.89999389648438 Z" fill-rule="evenodd" clip-rule="evenodd" fill="#4D4D4D"/>
	<path d="M 1093.300048828125 188.3000030517578 L 1096.699951171875 186.89999389648438 L 1105.800048828125 210.6999969482422 L 1102.4000244140625 211.89999389648438 Z" fill-rule="evenodd" clip-rule="evenodd" fill="#333333"/>
	<path d="M 1072.5999755859375 186.5 L 1066.9000244140625 188.6999969482422 L 1082.5 229.1999969482422 L 1088.199951171875 227.10000610351562 Z" fill-rule="evenodd" clip-rule="evenodd" fill="#333333"/>
	<path fill-rule="evenodd" clip-rule="evenodd" fill="#DE852C" d="M1098.5,168.2c-3.7,1.4-6.3,7.1-4.8,10.8l16,41.7&#10;&#9;&#9;c1.4,3.7,7.1,6.2,10.8,4.8l23.6-9l-5.6-14.7c-5.8-15.1,1.5-31.8,16.3-38.5c2.4-7.3,6.9-14.2,15.9-17.6l29.7-11.4&#10;&#9;&#9;c-1.2-1.4-5.3-3.1-8.8-1.8L1098.5,168.2z"/>
	<path fill-rule="evenodd" clip-rule="evenodd" fill="#4D4D4D" d="M1226.9,206.5l27.5-10.5c4.5-1.7,9.7,0.6,11.5,5.1l3.6,9.5&#10;&#9;&#9;c0.3,0.8,0.5,1.7,0.6,2.5c4.4-1,9.6,0.7,12.1,4.2l18.6,25.6c2.8,3.8,1.3,8.4-3.3,10.2l-9.5,3.6c-4.5,1.7-10.6,0-13.4-3.8&#10;&#9;&#9;l-14.6-20.1c-3.1-4.3-6.7-6.6-10.7-5l-12.5,4.8c-4.6,1.7-9.8-0.6-11.5-5.1l-3.6-9.5C1220,213.4,1222.3,208.2,1226.9,206.5&#10;&#9;&#9;L1226.9,206.5z"/>
	<path fill-rule="evenodd" clip-rule="evenodd" fill="#4D4D4D" d="M1349.3,312.2l28.1,49.2c2.6,4.5,15.8-3,13.5-7.7l-24.5-49.4&#10;&#9;&#9;L1349.3,312.2z"/>
	<path fill-rule="evenodd" clip-rule="evenodd" fill="#FFB833" d="M1350.4,293.2c8.7-3.3,17.2-2.2,19,2.6&#10;&#9;&#9;c1.8,4.8-3.8,11.3-12.5,14.6c-8.7,3.3-17.2,2.2-19-2.6C1336.1,303,1341.6,296.5,1350.4,293.2L1350.4,293.2z"/>
	<path fill-rule="evenodd" clip-rule="evenodd" fill="#FF9933" d="M1170.7,145.9l82-31.4c8.3-3.2,17.1-1.8,24,2.8&#10;&#9;&#9;c2.7,1.8,3.8,5.3,3.1,7.4c-1.4,4-3,9.6,7.6,18.8c35.6,31.1,65.9,103.2,72.8,124.1c1.5,4.5,5.9,8.6,8.7,11.9&#10;&#9;&#9;c4.4,5.1,7.5,10.1,3.5,13.6c-7.9,7-39.6,22.4-45,23.5c-4.5,0.9-10.1-6.6-6.4-12.2c5.4-8.1-0.4-15.7-1.9-18&#10;&#9;&#9;c-49.3-75.7-94.7-82.3-122-71.9c-13.4,5.1-28.7-1.6-33.8-15.1l-7.6-19.9C1150.4,166.2,1157.2,151,1170.7,145.9L1170.7,145.9z"/>
	<path fill-rule="evenodd" clip-rule="evenodd" fill="#FFB833" d="M1155.9,163c-16.2,6.2-23.3,23.7-17.4,39l8.8,23&#10;&#9;&#9;c6.4,16.6,24.7,22.9,39,17.4l90-34.4c16.5-6.3,23.6-23,17.4-39l-8.8-23c-6.5-16.9-24.6-22.9-39-17.4L1155.9,163z"/>
	<path fill="#333333" d="M1388.8,358.9c3.2,8.1,7.5,15.3,11.2,21.9v12.8c-6.1-9-12.4-19.1-17.3-31.2&#10;&#9;&#9;C1384.8,361.8,1387.2,360.5,1388.8,358.9L1388.8,358.9z"/>
	<path fill-rule="evenodd" clip-rule="evenodd" fill="#4D4D4D" d="M1035.9,210c7.8-13.6,18.5-19.9,30-24.2l17.7,46.3&#10;&#9;&#9;c-11.4,4.4-23.5,6.9-38.5,1.9L1035.9,210z"/>
	<path fill-rule="evenodd" clip-rule="evenodd" fill="#B3B3B3" d="M1028.9,223.7c2.8-3.2,6.2-4.9,9.8-6.3l3.6,9.3&#10;&#9;&#9;c-3.5,1.4-7.2,2.3-11.5,1.8L1028.9,223.7z"/>
	<path fill-rule="evenodd" clip-rule="evenodd" fill="#FFB833" d="M1099.2,172.7c1.6-0.6,3.4,0.2,4,1.8c0.6,1.6-0.2,3.4-1.8,4&#10;&#9;&#9;c-1.6,0.6-3.4-0.2-4-1.8C1096.8,175.1,1097.6,173.3,1099.2,172.7L1099.2,172.7z"/>
	<path fill-rule="evenodd" clip-rule="evenodd" fill="#FFB833" d="M1115.7,215.8c1.6-0.6,3.4,0.2,4,1.8c0.6,1.6-0.2,3.4-1.8,4&#10;&#9;&#9;c-1.6,0.6-3.4-0.2-4-1.8C1113.3,218.2,1114.1,216.5,1115.7,215.8L1115.7,215.8z"/>
	<path fill-rule="evenodd" clip-rule="evenodd" fill="#FFB833" d="M1147.4,157.6c1.6-0.6,3.4,0.2,4,1.8c0.6,1.6-0.2,3.4-1.8,4&#10;&#9;&#9;c-1.6,0.6-3.4-0.2-4-1.8C1144.9,160,1145.8,158.2,1147.4,157.6L1147.4,157.6z"/>
	<path fill-rule="evenodd" clip-rule="evenodd" fill="#FF9933" d="M1163.2,229c1.6-0.6,3.4,0.2,4,1.8c0.6,1.6-0.2,3.4-1.8,4&#10;&#9;&#9;c-1.6,0.6-3.4-0.2-4-1.8C1160.8,231.4,1161.6,229.6,1163.2,229L1163.2,229z"/>
	<path fill-rule="evenodd" clip-rule="evenodd" fill="#FFB833" d="M1302.9,188.5c1.6-0.6,3.4,0.2,4,1.8c0.6,1.6-0.2,3.4-1.8,4&#10;&#9;&#9;c-1.6,0.6-3.4-0.2-4-1.8C1300.5,190.9,1301.3,189.1,1302.9,188.5L1302.9,188.5z"/>
	<path fill-rule="evenodd" clip-rule="evenodd" fill="#FFB833" d="M1327.6,252.1c1.6-0.6,3.4,0.2,4,1.8c0.6,1.6-0.2,3.4-1.8,4&#10;&#9;&#9;c-1.6,0.6-3.4-0.2-4-1.8C1325.2,254.5,1326,252.7,1327.6,252.1L1327.6,252.1z"/>
	<path fill="#FFB833" d="M1288.3,214.6c11.7,26.7,30.1,51.4,46.8,75.3c2.9,4.2,11.3,0.8,14.9-1.2c3.3-1.9,9.8-6.9,7.7-11.3&#10;&#9;&#9;c-12.5-25.8-27.9-52.4-45.6-75c-3.4-4.3-12.4-1-16.3,1.2C1292.5,205.5,1286.3,210.2,1288.3,214.6L1288.3,214.6z M1287,215.1&#10;&#9;&#9;c-2.3-5.2,4.1-10.4,8.1-12.7c4.6-2.6,14.2-5.9,18.2-0.9c17.7,22.6,33.2,49.4,45.7,75.3c2.6,5.2-4.3,10.7-8.3,13.1&#10;&#9;&#9;c-4.3,2.4-13.2,5.8-16.7,0.8C1317.2,266.7,1298.8,241.9,1287,215.1L1287,215.1z"/>
	<path fill-rule="evenodd" clip-rule="evenodd" fill="#FFB833" d="M1296.6,223.5c6.6-2.6,14,0.8,16.6,7.4c2.6,6.6-0.8,14.1-7.4,16.6&#10;&#9;&#9;c-6.6,2.6-14.1-0.8-16.6-7.4C1286.6,233.4,1289.9,226,1296.6,223.5L1296.6,223.5z"/>
	<path fill-rule="evenodd" clip-rule="evenodd" fill="#4D4D4D" d="M1298.1,227.4c4.4-1.7,9.4,0.5,11.1,5s-0.5,9.4-5,11.2&#10;&#9;&#9;c-4.4,1.7-9.4-0.5-11.2-5C1291.4,234,1293.6,229.1,1298.1,227.4L1298.1,227.4z"/>
	<path fill-rule="evenodd" clip-rule="evenodd" fill="#4D4D4D" d="M1303.4,189.6c1-0.4,2.1,0.1,2.5,1.1c0.4,1-0.1,2.1-1.1,2.5&#10;&#9;&#9;c-1,0.4-2.1-0.1-2.5-1.1C1301.8,191.1,1302.3,190,1303.4,189.6L1303.4,189.6z"/>
	<path fill-rule="evenodd" clip-rule="evenodd" fill="#4D4D4D" d="M1328,253.2c1-0.4,2.1,0.1,2.5,1.1c0.4,1-0.1,2.1-1.1,2.5&#10;&#9;&#9;c-1,0.4-2.1-0.1-2.5-1.2C1326.5,254.7,1327,253.6,1328,253.2L1328,253.2z"/>
	<path fill-rule="evenodd" clip-rule="evenodd" fill="#4D4D4D" d="M1163.6,230.1c1-0.4,2.1,0.1,2.5,1.2c0.4,1-0.1,2.1-1.1,2.5&#10;&#9;&#9;c-1,0.4-2.1-0.1-2.5-1.1C1162.1,231.6,1162.6,230.5,1163.6,230.1L1163.6,230.1z"/>
	<path fill-rule="evenodd" clip-rule="evenodd" fill="#4D4D4D" d="M1116.1,216.9c1-0.4,2.1,0.1,2.5,1.1c0.4,1-0.1,2.1-1.1,2.5&#10;&#9;&#9;c-1,0.4-2.1-0.1-2.5-1.1C1114.6,218.4,1115.1,217.3,1116.1,216.9L1116.1,216.9z"/>
	<path fill-rule="evenodd" clip-rule="evenodd" fill="#4D4D4D" d="M1099.6,173.8c1-0.4,2.1,0.1,2.5,1.1c0.4,1-0.1,2.1-1.1,2.5&#10;&#9;&#9;c-1,0.4-2.1-0.1-2.5-1.1C1098.1,175.3,1098.6,174.2,1099.6,173.8L1099.6,173.8z"/>
	<path fill-rule="evenodd" clip-rule="evenodd" fill="#4D4D4D" d="M1147.8,158.6c1-0.4,2.1,0.1,2.5,1.2c0.4,1-0.1,2.1-1.1,2.5&#10;&#9;&#9;c-1,0.4-2.1-0.1-2.5-1.1C1146.2,160.2,1146.8,159,1147.8,158.6L1147.8,158.6z"/>
	<path fill-rule="evenodd" clip-rule="evenodd" fill="#4D4D4D" d="M1242.9,152.4l10-3.8c4.5-1.7,9.4-1.2,13.3,1.2l-21.2,8.1&#10;&#9;&#9;L1242.9,152.4z M1269.1,152c1.4,1.5,2.6,3.2,3.4,5.2l-24.2,9.3l-2.2-5.7L1269.1,152z M1273.6,160.2l2.2,5.7l-24.3,9.3l-2.2-5.7&#10;&#9;&#9;L1273.6,160.2z M1277,168.9c0.8,2,1.1,4.1,1,6.2l-23,8.8l-2.2-5.7L1277,168.9z M1277.3,178.6c-1.3,4.3-4.5,8-9.1,9.8l-10.1,3.8&#10;&#9;&#9;l-2.1-5.5L1277.3,178.6z"/>
	<path fill-rule="evenodd" clip-rule="evenodd" fill="#333333" d="M1079.2,185.3l9.8-3.7l0.9,2.2l-9.8,3.8L1079.2,185.3z&#10;&#9;&#9; M1093,221.3l9.8-3.8l0.8,2.2l-9.8,3.7L1093,221.3z M1090.7,215.3l9.8-3.7l0.9,2.2l-9.8,3.8L1090.7,215.3z M1088.4,209.3l9.8-3.8&#10;&#9;&#9;l0.8,2.2l-9.8,3.7L1088.4,209.3z M1086.1,203.3l9.8-3.8l0.8,2.2l-9.8,3.8L1086.1,203.3z M1083.8,197.3l9.8-3.7l0.8,2.2l-9.8,3.8&#10;&#9;&#9;L1083.8,197.3z M1081.5,191.4l9.8-3.8l0.8,2.2l-9.8,3.7L1081.5,191.4z"/>
	<path fill-rule="evenodd" clip-rule="evenodd" fill="#333333" d="M1055.5,194.4l9.8-3.7l0.9,2.2l-9.8,3.8L1055.5,194.4z&#10;&#9;&#9; M1069.3,230.4l9.8-3.8l0.8,2.2l-9.8,3.7L1069.3,230.4z M1067,224.4l9.8-3.7l0.8,2.2l-9.8,3.8L1067,224.4z M1064.7,218.4l9.8-3.8&#10;&#9;&#9;l0.8,2.2l-9.8,3.7L1064.7,218.4z M1062.4,212.4l9.8-3.8l0.8,2.2l-9.8,3.7L1062.4,212.4z M1060.1,206.4l9.8-3.7l0.9,2.2l-9.8,3.8&#10;&#9;&#9;L1060.1,206.4z M1057.8,200.4l9.8-3.8l0.8,2.2l-9.8,3.7L1057.8,200.4z"/>
	<path fill-rule="evenodd" clip-rule="evenodd" fill="#FF9933" d="M1120.5,225.6l1.2,3.1c1.6,4.3,7,6.9,11.5,5.1l15.4-5.9l-4.5-11.3&#10;&#9;&#9;L1120.5,225.6z"/>
	<path d="M 1159.5999755859375 184 L 1175.0999755859375 224.5 L 1245.699951171875 197.5 L 1230.199951171875 157 Z" fill-rule="evenodd" clip-rule="evenodd" fill="#4D4D4D"/>
</g>
<g>
	<path fill-rule="evenodd" clip-rule="evenodd" fill="#F0D852" d="M887.4,946.3c-1.4,1.6-3.8,1.7-5.4,0.3l-1.5-1.3&#10;&#9;&#9;c-1.5-1.4-1.7-3.8-0.4-5.4L970,837l10.4-7l4.6-3.7c0.9-0.7,1.4-0.3,0.8,0.7l-3,5.1l-5.6,11.3L887.4,946.3z"/>
	<path d="M 890 928.2999877929688 L 882.7000122070312 922 L 963 830 L 970.2999877929688 836.2999877929688 Z" fill-rule="evenodd" clip-rule="evenodd" fill="#FF9933"/>
	<path d="M 975.7999877929688 825.0999755859375 L 973.5 823 L 963 830 L 970.2999877929688 836.2999877929688 Z" fill-rule="evenodd" clip-rule="evenodd" fill="#FFDFA8"/>
	<path fill-rule="evenodd" clip-rule="evenodd" fill="#4D4D4D" d="M975.8,825.1l-2.4-2.1l4.6-3.7c0.9-0.7,1.4-0.3,0.8,0.7&#10;&#9;&#9;L975.8,825.1z"/>
	<path fill-rule="evenodd" clip-rule="evenodd" fill="#FF9999" d="M890,928.3l-7.2-6.3l-9.6,11c-1.4,1.6-1.2,4,0.3,5.4l1.5,1.3&#10;&#9;&#9;c1.6,1.4,4,1.2,5.4-0.3L890,928.3z"/>
	<path d="M 891.5 926.5999755859375 L 884.2000122070312 920.2999877929688 L 877.5999755859375 927.9000244140625 L 884.7999877929688 934.2000122070312 Z" fill-rule="evenodd" clip-rule="evenodd" fill="#FFFFFF"/>
</g>
<g>
	<path d="M 65.19999694824219 252.6999969482422 L 90.0999984741211 238.39999389648438 L 225.10000610351562 474.70001220703125 L 95.5999984741211 548.5 L 81.4000015258789 523.5999755859375 L 185.89999389648438 464 Z" fill-rule="evenodd" clip-rule="evenodd" fill="#F0D852"/>
	<path d="M 58.20000076293945 245.6999969482422 L 83.0999984741211 231.39999389648438 L 218.10000610351562 467.70001220703125 L 178.89999389648438 457 Z" fill-rule="evenodd" clip-rule="evenodd" fill="#FFFFFF"/>
	<path d="M 88.5999984741211 541.5 L 74.4000015258789 516.5999755859375 L 178.89999389648438 457 L 218.10000610351562 467.70001220703125 Z" fill-rule="evenodd" clip-rule="evenodd" fill="#666666"/>
	<path fill-rule="evenodd" clip-rule="evenodd" fill="#808080" d="M80.5,258l13.5-7.7l0.6,1L81,259.1L80.5,258z M193.2,455.5&#10;&#9;&#9;l13.5-7.7l0.6,1l-13.5,7.7L193.2,455.5z M183.8,439l13.5-7.7l0.6,1l-13.5,7.7L183.8,439z M196.8,449l8-4.5l0.6,1l-8,4.5L196.8,449z&#10;&#9;&#9; M194.9,445.7l8-4.5l0.6,1l-8,4.5L194.9,445.7z M193.1,442.5l8-4.6l0.6,1l-8,4.5L193.1,442.5z M191.2,439.2l8-4.6l0.6,1l-8,4.5&#10;&#9;&#9;L191.2,439.2z M174.4,422.6l13.5-7.7l0.6,1l-13.5,7.7L174.4,422.6z M187.4,432.6l8-4.6l0.6,1l-8,4.5L187.4,432.6z M185.6,429.3&#10;&#9;&#9;l8-4.6l0.6,1l-8,4.6L185.6,429.3z M183.7,426l8-4.5l0.6,1l-8,4.6L183.7,426z M181.8,422.7l8-4.5l0.6,1l-8,4.6L181.8,422.7z&#10;&#9;&#9; M165,406.1l13.5-7.7l0.6,1l-13.5,7.7L165,406.1z M178,416.1l8-4.5l0.6,1l-8,4.6L178,416.1z M176.1,412.8l8-4.5l0.6,1l-8,4.6&#10;&#9;&#9;L176.1,412.8z M174.3,409.6l8-4.5l0.6,1l-8,4.5L174.3,409.6z M172.4,406.3l8-4.6l0.6,1l-8,4.5L172.4,406.3z M155.6,389.7l13.5-7.7&#10;&#9;&#9;l0.6,1l-13.5,7.7L155.6,389.7z M168.6,399.7l8-4.6l0.6,1l-8,4.5L168.6,399.7z M166.8,396.4l8-4.6l0.6,1l-8,4.5L166.8,396.4z&#10;&#9;&#9; M164.9,393.1l8-4.6l0.6,1l-8,4.5L164.9,393.1z M163,389.8l8-4.6l0.6,1l-8,4.6L163,389.8z M146.2,373.2l13.5-7.7l0.6,1l-13.5,7.7&#10;&#9;&#9;L146.2,373.2z M159.2,383.2l8-4.5l0.6,1l-8,4.6L159.2,383.2z M157.4,379.9l8-4.5l0.6,1l-8,4.6L157.4,379.9z M155.5,376.6l8-4.5&#10;&#9;&#9;l0.6,1l-8,4.6L155.5,376.6z M153.6,373.4l8-4.5l0.6,1l-8,4.5L153.6,373.4z M136.8,356.8l13.5-7.7l0.6,1l-13.5,7.7L136.8,356.8z&#10;&#9;&#9; M149.8,366.8l8-4.6l0.6,1l-8,4.5L149.8,366.8z M147.9,363.5l8-4.6l0.6,1l-8,4.5L147.9,363.5z M146.1,360.2l8-4.6l0.6,1l-8,4.5&#10;&#9;&#9;L146.1,360.2z M144.2,356.9l8-4.6l0.6,1l-8,4.5L144.2,356.9z M127.4,340.3l13.5-7.7l0.6,1l-13.5,7.7L127.4,340.3z M140.5,350.3&#10;&#9;&#9;l8-4.5l0.6,1l-8,4.6L140.5,350.3z M138.6,347l8-4.5l0.6,1l-8,4.6L138.6,347z M136.7,343.7l8-4.5l0.6,1l-8,4.6L136.7,343.7z&#10;&#9;&#9; M134.8,340.5l8-4.5l0.6,1l-8,4.6L134.8,340.5z M118.1,323.8l13.5-7.7l0.6,1l-13.5,7.7L118.1,323.8z M131,333.9l8-4.5l0.6,1l-8,4.5&#10;&#9;&#9;L131,333.9z M129.1,330.6l8-4.6l0.6,1l-8,4.5L129.1,330.6z M127.3,327.3l8-4.6l0.6,1l-8,4.5L127.3,327.3z M125.4,324l8-4.6l0.6,1&#10;&#9;&#9;l-8,4.5L125.4,324z M108.6,307.4l13.5-7.7l0.6,1l-13.5,7.7L108.6,307.4z M121.7,317.4l8-4.6l0.6,1l-8,4.6L121.7,317.4z&#10;&#9;&#9; M119.8,314.1l8-4.5l0.6,1l-8,4.6L119.8,314.1z M117.9,310.8l8-4.5l0.6,1l-8,4.6L117.9,310.8z M116,307.6l8-4.5l0.6,1l-8,4.6&#10;&#9;&#9;L116,307.6z M99.3,290.9l13.5-7.7l0.6,1L99.8,292L99.3,290.9z M112.2,301l8-4.5l0.6,1l-8,4.6L112.2,301z M110.4,297.7l8-4.5l0.6,1&#10;&#9;&#9;l-8,4.5L110.4,297.7z M108.5,294.4l8-4.6l0.6,1l-8,4.5L108.5,294.4z M106.6,291.1l8-4.6l0.6,1l-8,4.5L106.6,291.1z M89.8,274.5&#10;&#9;&#9;l13.5-7.7l0.6,1l-13.5,7.7L89.8,274.5z M102.9,284.5l8-4.6l0.6,1l-8,4.5L102.9,284.5z M101,281.3l8-4.6l0.6,1l-8,4.5L101,281.3z&#10;&#9;&#9; M99.1,278l8-4.6l0.6,1l-8,4.6L99.1,278z M97.2,274.6l8-4.5l0.6,1l-8,4.6L97.2,274.6z M93.4,268.1l8-4.5l0.6,1l-8,4.6L93.4,268.1z&#10;&#9;&#9; M91.6,264.8l8-4.5l0.6,1l-8,4.6L91.6,264.8z M89.7,261.5l8-4.5l0.6,1l-8,4.5L89.7,261.5z M87.8,258.2l8-4.5l0.6,1l-8,4.5&#10;&#9;&#9;L87.8,258.2z"/>
	<path d="M 176.3000030517578 461 L 188.39999389648438 482.20001220703125 L 89.9000015258789 538.2999877929688 L 77.69999694824219 517.0999755859375 Z" fill-rule="evenodd" clip-rule="evenodd" fill="#4D4D4D"/>
	<path d="M 156.5 478.29998779296875 L 163.39999389648438 490.29998779296875 L 104.80000305175781 523.7999877929688 L 97.9000015258789 511.70001220703125 Z" fill-rule="evenodd" clip-rule="evenodd" fill="#FF9933"/>
</g>
<g>
	<path fill-rule="evenodd" clip-rule="evenodd" fill="#F0D852" d="M53,97.9c10-1.3,19.8-2.6,29.4-3.7C71.8,82,67.2,31.9,72.4,25&#10;&#9;&#9;c33.3-6.7,63.8-13,93-18h36h324.5h4.2c-125.2,26-253.8,52.8-401,81.4c151.4-17.1,259.9-22.8,514.3-67c-2.6,1.5-4.9,3.5-6.8,5.8&#10;&#9;&#9;c4-0.7,8.1-1.3,12.2-2c14.6-1.2,18,69.1,4,68.8c-24.3,3.1-48.4,6.1-72.3,9c-161,20.5-323.2,43.8-518.2,67.3&#10;&#9;&#9;C48.8,168.5,46.4,105.3,53,97.9L53,97.9z"/>
	<path fill-rule="evenodd" clip-rule="evenodd" fill="#CCCCCC" d="M46,90.9c196.8-25.5,295.7-25.1,590.5-76.3&#10;&#9;&#9;c-24.8,14-16.9,69.5,9.4,72.5C449,112.5,269.5,127.8,55.3,163.4C41.8,161.5,39.4,98.3,46,90.9L46,90.9z"/>
	<path fill-rule="evenodd" clip-rule="evenodd" fill="#FFFFFF" d="M55.3,163.4c11.7-3.6,3.5-66.9-5.8-66.4&#10;&#9;&#9;c199.2-23.6,366.6-40.4,592.3-78.6c14.6-1.2,18,69.1,4,68.8C460.3,109.7,279.5,136.4,55.3,163.4L55.3,163.4z"/>
	<path fill-rule="evenodd" clip-rule="evenodd" fill="#999999" d="M49.5,96.9c-5.9,0.5-2.4,59.3,5.6,59.8l4.7-0.6&#10;&#9;&#9;C63.9,138.7,57.1,96.6,49.5,96.9L49.5,96.9z"/>
	<path fill-rule="evenodd" clip-rule="evenodd" fill="#CCCCCC" d="M51.2,103.9c7.6,10.5,11.6,49.4,4,52.8l4.7-0.6&#10;&#9;&#9;c3.1-13,0-39.8-4.9-52.3C53,103.8,51.4,103.9,51.2,103.9L51.2,103.9z"/>
	<path fill-rule="evenodd" clip-rule="evenodd" fill="#CCCCCC" d="M65.4,18c33.3-6.7,63.8-11.9,93-18h360.5&#10;&#9;&#9;C377.3,26.9,237.9,51.7,79.9,89.5C66.2,88.6,59.5,25.8,65.4,18L65.4,18z"/>
	<path fill-rule="evenodd" clip-rule="evenodd" fill="#FFFFFF" d="M79.9,89.6c11.4-4.4-1.2-67.1-10.4-66&#10;&#9;&#9;c42.8-8.1,84.2-15.1,125-23.6h328.7C386.1,28.1,245,57.9,79.9,89.6L79.9,89.6z"/>
	<path fill-rule="evenodd" clip-rule="evenodd" fill="#999999" d="M69.4,24c-5.8,0.9,1.7,59.3,9.8,59.2l4.7-0.9&#10;&#9;&#9;C86.7,64.6,77,23.1,69.4,24L69.4,24z"/>
	<path fill-rule="evenodd" clip-rule="evenodd" fill="#CCCCCC" d="M71.6,30.9c8.3,9.9,15,48.4,7.7,52.4l4.7-0.9&#10;&#9;&#9;c2.1-13.2-2.8-39.7-8.5-51.9C73.4,30.6,71.8,30.8,71.6,30.9L71.6,30.9z"/>
</g>
<g>
	<path fill-rule="evenodd" clip-rule="evenodd" fill="#F0D852" d="M902.7,642.4l-2.3-5.9c-6.4-16.1-14.7-46.4-10.4-48.2l42-16.7&#10;&#9;&#9;c4.4-1.7,19.5,26.5,25.7,42.1l18,45.1c6.2,15.6,14.8,46.4,10.4,48.2l-42,16.7c-4.4,1.7-19.3-26-25.7-42.1l-2.3-5.9L572.4,812.8&#10;&#9;&#9;l-13.3-33.4L902.7,642.4z"/>
	<path d="M 895.7000122070312 635.4000244140625 L 909.0999755859375 668.7000122070312 L 565.4000244140625 805.7999877929688 L 552.0999755859375 772.4000244140625 Z" fill-rule="evenodd" clip-rule="evenodd" fill="#FF9933"/>
	<path fill-rule="evenodd" clip-rule="evenodd" fill="#4D4D4D" d="M883,581.3c-4.4,1.7,4,32.1,10.4,48.2l18.1,45.1&#10;&#9;&#9;c6.4,16.1,21.3,43.8,25.7,42.1l42-16.7c4.4-1.7-4.1-32.6-10.4-48.2l-18-45.1c-6.2-15.6-21.3-43.8-25.7-42.1L883,581.3z"/>
	<path d="M 894.7000122070312 613.7999877929688 L 923.2000122070312 685 L 967.2999877929688 667.4000244140625 L 938.9000244140625 596.2000122070312 Z" fill-rule="evenodd" clip-rule="evenodd" fill="#333333"/>
</g>
<g>
	<path fill-rule="evenodd" clip-rule="evenodd" fill="#F0D852" d="M275,348.5l2.7,3.9l-9.1,6.3c-13.2,9.4,2.2,35.1,21.1,38.7&#10;&#9;&#9;l-1.5,4.6c-16.8-4.7-34.8-14-42.4-24.8l-15.2-21.7c1.4-8.1-4.9-13.6-10.3-14.6l-1.6,1.2l-5.5-7.8l20.2-14.1l5.5,7.8l-1.7,1.2&#10;&#9;&#9;c-1,5.8,7.2,20.6,19.8,11.9l8.5-6l2.7,3.8l47.6-33.3l-1-1.4c36.7-25.7,75.5-54.8,114-81.7c4.2-2.9,9.9-1.9,12.8,2.2&#10;&#9;&#9;c2.9,4.2,1.9,9.9-2.2,12.8c-38.5,27-79.2,53.4-115.9,79.1l-1-1.4L275,348.5z"/>
	<path d="M 268 341.5 L 261.29998779296875 331.8999938964844 L 308.8999938964844 298.6000061035156 L 315.70001220703125 308.20001220703125 Z" fill-rule="evenodd" clip-rule="evenodd" fill="#999999"/>
	<path d="M 226.39999389648438 313.20001220703125 L 231.89999389648438 321 L 211.6999969482422 335.1000061035156 L 206.1999969482422 327.29998779296875 Z" fill-rule="evenodd" clip-rule="evenodd" fill="#999999"/>
	<path fill-rule="evenodd" clip-rule="evenodd" fill="#4D4D4D" d="M261.7,351.8c-13.2,9.4,2.2,35.1,21.1,38.7l-1.5,4.6&#10;&#9;&#9;c-16.8-4.7-34.8-14-42.4-24.8l-15.2-21.7c1.4-8.1-4.9-13.6-10.3-14.6l16.9-11.8c-1,5.8,7.2,20.6,19.8,11.9l8.5-6l12.1,17.3&#10;&#9;&#9;L261.7,351.8z"/>
	<path fill-rule="evenodd" clip-rule="evenodd" fill="#FF9933" d="M421.9,215.5c-38.5,26.9-77.3,56-114,81.7l8.7,12.4&#10;&#9;&#9;c36.7-25.7,77.3-52.1,115.9-79.1c4.2-2.9,5.2-8.7,2.2-12.8C431.8,213.6,426.1,212.6,421.9,215.5L421.9,215.5z"/>
	<path fill-rule="evenodd" clip-rule="evenodd" fill="#4D4D4D" d="M422.5,226.4c-1.8-2.6-1.2-6.2,1.4-8c2.6-1.9,6.2-1.2,8,1.4&#10;&#9;&#9;c1.8,2.6,1.2,6.2-1.4,8.1C427.9,229.6,424.3,229,422.5,226.4L422.5,226.4z"/>
	<path fill-rule="evenodd" clip-rule="evenodd" fill="#333333" d="M423.8,225.4c-1.3-1.9-0.8-4.4,1-5.7c1.9-1.3,4.4-0.8,5.7,1&#10;&#9;&#9;c1.3,1.9,0.8,4.4-1,5.7C427.7,227.7,425.2,227.3,423.8,225.4L423.8,225.4z"/>
</g>
<g>
	<path d="M 1114.0999755859375 7 L 1400 7 L 1400 39.20000076293945 L 1141.199951171875 108.30000305175781 Z" fill-rule="evenodd" clip-rule="evenodd" fill="#F0D852"/>
	<path d="M 1107.0999755859375 0 L 1400 0 L 1400 30.399999618530273 L 1134.199951171875 101.30000305175781 Z" fill-rule="evenodd" clip-rule="evenodd" fill="#FFFFFF"/>
	<path fill-rule="evenodd" clip-rule="evenodd" fill="#999999" d="M1293.9,27.5l-0.8-2.9l-97.6,26.1l0.7,2.8l-1.2,0.3l-1.9-7.1&#10;&#9;&#9;l1.2-0.3l0.8,3.1l97.6-26.1l-0.8-3l1.2-0.3l1.9,7.1L1293.9,27.5z M1212.5,0h2.4l8.2,30.8l0.1,0.7l-0.6,0.2l-30.6,8.2l-0.6,0.2&#10;&#9;&#9;l-0.2-0.6L1183.1,9l-0.2-0.6l0.6-0.4L1212.5,0z M1217.7,0h1.3l7.8,29.2l29.4-8L1250.5,0h1.3l5.7,21.6l0.2,0.7l-0.6,0.2l-30.6,8.2&#10;&#9;&#9;l-0.6,0.2l-0.2-0.8L1217.7,0z M1253.8,0h1.3l5.4,20.2l29.5-8L1286.7,0h1.3l3.3,12.6l0.2,0.7l-0.6,0.2l-30.6,8.2l-0.6,0.2l-0.2-0.8&#10;&#9;&#9;L1253.8,0z M1213.9,1.4l-29.5,7.9l7.9,29.4l29.4-7.9L1213.9,1.4z"/>
	<path d="M 1135.4000244140625 0 L 1137.4000244140625 0 L 1158.199951171875 78 L 1400 13.5 L 1400 15.399999618530273 L 1157.800048828125 80.30000305175781 L 1156.9000244140625 80.5 L 1156.5999755859375 79.4000015258789 Z" fill-rule="evenodd" clip-rule="evenodd" fill="#999999"/>
	<path fill="#999999" d="M1242,48.2l2.6-0.7l-0.1-0.1c0-0.1,0-0.7,0-0.7c0,0,0-0.6,0.1-0.6c0,0,0.1,0,0.1,0c0,2,0.1,0.6,0.1,0.7&#10;&#9;&#9;l0.1,0.8l-3.3,1l-0.1-0.4c0.5-0.8,1-1.6,1.5-2.4c0.2-0.4,0.4-0.6,0.5-0.8c0.1-0.2,0.1-0.3,0.1-0.4c0-0.1,0-0.2,0-0.3&#10;&#9;&#9;c-0.1-0.3-0.2-0.5-0.6-0.7c-0.3-0.2-0.6-0.2-0.9-0.1c-0.3,0.1-0.5,0.2-0.7,0.5c-0.2,0.2-0.3,0.5-0.3,0.8c0,0.1,0,0.3,0,0.3&#10;&#9;&#9;c0,0,0,0.2-0.1,0.2c-0.1,0-0.1,0-0.1,0s-0.1-0.2-0.1-0.3c0-0.1,0-0.4,0.1-0.7c0.1-0.2,0.2-0.5,0.5-0.7c0.2-0.2,0.5-0.3,0.7-0.4&#10;&#9;&#9;c0.4-0.1,0.8-0.1,1.2,0.1c0.4,0.2,0.6,0.5,0.7,0.9c0,0.1,0,0.3,0,0.5c0,0.1-0.1,0.3-0.1,0.5c-0.1,0.2-0.2,0.5-0.5,0.9&#10;&#9;&#9;C1242.8,46.8,1242,47.6,1242,48.2L1242,48.2z M1249.3,43.4l0.2,0.8c0.2,0.7,0.2,1.4-0.1,1.9c-0.2,0.4-0.5,0.7-0.9,0.8&#10;&#9;&#9;c-0.2,0.1-0.4,0.1-0.6,0c-0.2,0-0.4-0.1-0.5-0.2c-0.1-0.1-0.2-0.2-0.4-0.3c-0.1-0.2-0.3-0.3-0.3-0.5c-0.1-0.2-0.2-0.5-0.3-0.8&#10;&#9;&#9;l-0.2-0.8c-0.2-0.7-0.2-1.4,0-1.9c0.2-0.4,0.5-0.7,0.9-0.8c0.2,0,0.4-0.1,0.6,0c0.2,0,0.4,0.1,0.6,0.2c0.1,0.1,0.2,0.2,0.4,0.4&#10;&#9;&#9;c0.1,0.2,0.2,0.3,0.3,0.5C1249.1,42.8,1249.2,43.1,1249.3,43.4L1249.3,43.4z M1249,43.5c-0.1-0.3-0.2-0.6-0.4-0.9&#10;&#9;&#9;c-0.2-0.2-0.3-0.5-0.5-0.6c-0.1-0.1-0.2-0.1-0.3-0.2c-0.2,0-0.4,0-0.6,0c-0.4,0.1-0.6,0.4-0.8,0.8c-0.1,0.5-0.1,0.9,0.1,1.4&#10;&#9;&#9;l0.2,0.8c0.1,0.3,0.2,0.6,0.4,0.9c0.2,0.2,0.4,0.5,0.5,0.6c0.1,0.1,0.2,0.1,0.3,0.2c0.2,0.1,0.3,0.1,0.6,0c0.4-0.1,0.6-0.4,0.7-0.8&#10;&#9;&#9;c0.1-0.5,0.1-0.9,0-1.5L1249,43.5z M1250.7,40.8l1.1-0.3l0.2,2.1c0,0.1,0,0.2,0,0.2c0,0.1-0.1,0.1-0.1,0.1c-0.1,0-0.1,0-0.2,0&#10;&#9;&#9;c-0.1,0-0.1-0.1-0.1-0.2L1250.7,40.8z M1252.5,40.3l1.1-0.3l0.2,2.1c0,0.1,0,0.2,0,0.2c0,0-0.1,0.1-0.1,0.1c-0.1,0-0.1,0-0.2,0&#10;&#9;&#9;c-0.1,0-0.1-0.1-0.1-0.2L1252.5,40.3z"/>
</g>
<g>
	<path fill-rule="evenodd" clip-rule="evenodd" fill="#F0D852" d="M248.1,199.9c23,0,41.7,18.6,41.7,41.6c0,23-18.7,41.6-41.7,41.6&#10;&#9;&#9;c-23,0-41.6-18.6-41.6-41.6C206.5,218.6,225.1,199.9,248.1,199.9L248.1,199.9z M248.1,219.8c12,0,21.8,9.8,21.8,21.7&#10;&#9;&#9;c0,12-9.7,21.7-21.8,21.7c-12,0-21.7-9.7-21.7-21.7C226.4,229.5,236.1,219.8,248.1,219.8L248.1,219.8z"/>
	<path fill-rule="evenodd" clip-rule="evenodd" fill="#FF9933" d="M241.1,192.9c23,0,41.7,18.6,41.7,41.6c0,23-18.7,41.6-41.7,41.6&#10;&#9;&#9;c-23,0-41.6-18.6-41.6-41.6C199.5,211.6,218.1,192.9,241.1,192.9L241.1,192.9z M241.1,206.8c15.4,0,27.8,12.4,27.8,27.8&#10;&#9;&#9;c0,15.4-12.4,27.8-27.8,27.8c-15.3,0-27.8-12.4-27.8-27.8C213.4,219.2,225.8,206.8,241.1,206.8L241.1,206.8z"/>
	<path fill-rule="evenodd" clip-rule="evenodd" fill="#FFFFFF" d="M241.1,206.8c15.4,0,27.8,12.4,27.8,27.8&#10;&#9;&#9;c0,15.4-12.4,27.8-27.8,27.8c-15.3,0-27.8-12.4-27.8-27.8C213.4,219.2,225.8,206.8,241.1,206.8L241.1,206.8z M241.1,212.8&#10;&#9;&#9;c12,0,21.8,9.8,21.8,21.7c0,12-9.7,21.7-21.8,21.7c-12,0-21.7-9.7-21.7-21.7C219.4,222.5,229.1,212.8,241.1,212.8L241.1,212.8z"/>
</g>
<g>
	<path fill-rule="evenodd" clip-rule="evenodd" fill="#F0D852" d="M913,282.5c-30.7,33.8-62.5,57.1-93.4,66.8&#10;&#9;&#9;c-42.9-18.9-108.2-71.6-137.1-110.6c3-32.2,19-68.2,45.7-105.2c5.2-16.1,13.5-31.7,25-45.8c28.9-35.8,71.2-54,112.2-52.6&#10;&#9;&#9;c0.3-0.4,0.6-0.8,0.9-1.2c14-10.2,28.3-13.1,42.8-10.3c2.8-3.4,10.3-1.7,11.8,3.5l0,0c10.1,4,20.4,10.4,30.7,18.7&#10;&#9;&#9;c10.4,8.4,18.8,17,24.8,26.1c5.6-0.7,8.8,5.5,5.9,10.8l0,0c5.8,13.6,6,28.1-1,44c-0.3,0.4-0.6,0.8-0.9,1.2&#10;&#9;&#9;c10,39.8,1,84.9-27.9,120.7C941.2,262.6,927.7,273.9,913,282.5L913,282.5z"/>
	<path fill-rule="evenodd" clip-rule="evenodd" fill="#FF9933" d="M901.5,92.3c55,44.4,64.5,110,20,165&#10;&#9;&#9;c-35.3,43.7-72.8,73.6-108.9,84.9c-42.9-18.9-108.2-71.6-137.1-110.6c3.5-37.7,24.9-80.5,60.2-124.2&#10;&#9;&#9;C780.3,52.4,846.5,47.9,901.5,92.3L901.5,92.3z"/>
	<path fill-rule="evenodd" clip-rule="evenodd" fill="#FFB833" d="M931.7,55c55,44.4,61.2,127.9,13.9,186.5&#10;&#9;&#9;c-47.4,58.6-130.4,70-185.4,25.6c-55.1-44.4-61.3-127.9-13.9-186.5C793.7,22,876.7,10.5,931.7,55L931.7,55z"/>
	<path fill-rule="evenodd" clip-rule="evenodd" fill="#FF9933" d="M944.9,38.7C915.5,15,887,6.8,859.5,26.8&#10;&#9;&#9;C815.9,80.7,806,141.1,824,188.1c49.8,7.8,106.8-14.5,150.4-68.5C988.3,88.5,974.3,62.5,944.9,38.7L944.9,38.7z"/>
	<path fill-rule="evenodd" clip-rule="evenodd" fill="#FFB833" d="M914.1,20c-1.6-5.1-9.1-6.8-11.8-3.5&#10;&#9;&#9;c-14.3,29.9-16.4,59.9-7.7,84.4c25.8,3.4,54.7-5,81-25.3c2.9-5.3-0.3-11.5-5.9-10.8c-20.8,13.9-42.2,20.2-61.2,19&#10;&#9;&#9;C903.2,65.5,904.9,43.3,914.1,20L914.1,20z"/>
</g>
<g>
	<path fill="#F0D852" d="M406.3,557.8c-3.5,0.5-6.4-0.4-8.9-2.5c-2.4-2.1-3.6-4.9-3.5-8.4l0.4-28.8c0.1-3.5,1.3-6.7,3.8-9.5&#10;&#9;&#9;c2.5-2.8,5.5-4.4,9-4.9c3.5-0.5,6.5,0.4,8.9,2.6c2.4,2.2,3.6,5,3.5,8.5l-0.1,6l-8.3,1.1l0.1-6.2c0-1.3-0.4-2.3-1.3-3.1&#10;&#9;&#9;c-0.9-0.8-2-1.1-3.2-0.9c-1.3,0.1-2.3,0.7-3.3,1.8c-0.9,1-1.4,2.2-1.4,3.4l-0.4,29c0,1.3,0.4,2.3,1.3,3c0.9,0.8,1.9,1.1,3.2,0.9&#10;&#9;&#9;c1.3-0.2,2.3-0.8,3.3-1.8c0.9-1,1.4-2.1,1.4-3.4l0.1-7.3l8.2-1.1l-0.1,7.4c0,3.5-1.3,6.7-3.8,9.4&#10;&#9;&#9;C412.8,555.7,409.8,557.3,406.3,557.8L406.3,557.8z M438.7,499.4c3.5-0.5,6.5,0.4,8.9,2.6c2.4,2.1,3.6,5,3.5,8.4l-0.4,28.9&#10;&#9;&#9;c-0.1,3.5-1.3,6.7-3.8,9.5c-2.5,2.8-5.5,4.4-9,4.8c-3.5,0.5-6.4-0.4-8.9-2.5c-2.4-2.2-3.6-5-3.5-8.5l0.5-28.9&#10;&#9;&#9;c0-3.5,1.3-6.7,3.8-9.4C432.3,501.5,435.3,499.9,438.7,499.4L438.7,499.4z M442.9,511.3c0-1.3-0.4-2.3-1.3-3&#10;&#9;&#9;c-0.9-0.8-2-1.1-3.2-0.9c-1.3,0.2-2.3,0.8-3.3,1.8c-0.9,1-1.4,2.1-1.4,3.4l-0.4,29c0,1.3,0.4,2.3,1.3,3c0.9,0.8,2,1.1,3.2,0.9&#10;&#9;&#9;c1.3-0.1,2.3-0.7,3.3-1.8c0.9-1,1.3-2.1,1.4-3.4L442.9,511.3z M467.3,496.3l10,34.1l0.5-35.5l8-1l-0.8,52.9l-8.5,1.1L466,515.5&#10;&#9;&#9;l-0.5,33.9l-7.9,1.1l0.8-52.9L467.3,496.3z M518.1,529.4c0,3.7-1,6.9-3,9.8c-1.3,2-3.1,3.4-5.5,4.5c-1.3,0.6-2.7,0.9-4.4,1.2&#10;&#9;&#9;c-3.1,0.4-5.7,0-7.7-1.3c-1.7-1.1-3-2.6-4-4.6c-1-2.1-1.5-4.5-1.6-7.3l7.6-1.5c0.3,3,1,5.1,2.3,6.3c0.9,0.9,2,1.3,3.3,1.1&#10;&#9;&#9;c1.7-0.3,3.1-1.3,4.2-3.1c0.6-0.9,0.8-2.1,0.8-3.6c0-2.2-0.9-4.2-2.9-6.1c-1.6-1.3-3.9-3.2-7-5.8c-2.6-2.2-4.4-4.2-5.5-6.1&#10;&#9;&#9;c-1.2-2.1-1.7-4.5-1.7-7.2c0.1-4.8,1.7-8.7,5-11.6c2-1.8,4.5-2.8,7.5-3.2c2.8-0.4,5.2-0.1,7.2,0.9c1.6,0.8,2.8,2,3.7,3.6&#10;&#9;&#9;c0.9,1.6,1.5,3.6,1.7,5.9l-7.7,2.4c-0.2-2.1-0.8-3.7-1.8-4.8c-0.7-0.8-1.7-1.1-3.1-0.9c-1.5,0.2-2.6,1-3.4,2.4&#10;&#9;&#9;c-0.6,1.1-0.9,2.5-1,4c0,2.4,0.9,4.7,3,7c0.8,0.9,1.9,1.8,3.5,2.9c1.9,1.3,3,2.2,3.6,2.8c1.9,1.7,3.4,3.5,4.4,5.3&#10;&#9;&#9;c0.5,0.8,0.9,1.6,1.2,2.3C517.7,526.2,518.1,527.9,518.1,529.4L518.1,529.4z M532.5,495.8l-8.5,1.1l0.1-7.9l24.8-3.3l-0.1,8&#10;&#9;&#9;l-8.4,1.1l-0.7,44.9l-7.9,1.1L532.5,495.8z M567.9,483.2c4.4-0.6,7.7,0.2,9.7,2.4c1.8,1.9,2.7,4.8,2.6,8.6l-0.1,7.7&#10;&#9;&#9;c-0.1,3.7-1.5,7.1-4.4,10l5.6,22.3l-8.6,1.1l-4.5-19.3c-0.2,0-0.5,0-0.7,0.1l-4.6,0.6l-0.3,19.9l-8,1.1l0.8-52.9L567.9,483.2z&#10;&#9;&#9; M572.5,495.3c0-3-1.5-4.4-4.5-4l-4.8,0.6l-0.3,16.9l4.8-0.6c1.3-0.2,2.3-0.7,3.2-1.8c0.9-1,1.4-2.2,1.4-3.4L572.5,495.3z&#10;&#9;&#9; M599.4,532.5c-3.5,0.5-6.5-0.4-8.9-2.5c-2.4-2.1-3.6-4.9-3.5-8.4l0.6-40.9l7.8-1l-0.6,40.8c0,1.3,0.4,2.3,1.3,3&#10;&#9;&#9;c0.9,0.8,2,1.1,3.2,0.9s2.3-0.7,3.3-1.8c0.9-1,1.4-2.1,1.4-3.4l0.6-40.8l8.3-1.1l-0.6,40.9c-0.1,3.6-1.3,6.7-3.8,9.5&#10;&#9;&#9;C605.9,530.4,602.8,532,599.4,532.5L599.4,532.5z M631.6,528.3c-3.5,0.5-6.5-0.4-8.9-2.5c-2.4-2.1-3.6-5-3.6-8.4l0.5-28.9&#10;&#9;&#9;c0-3.5,1.3-6.7,3.8-9.4c2.5-2.8,5.5-4.4,9-4.9s6.5,0.4,8.9,2.6c2.4,2.1,3.6,5,3.5,8.4l-0.1,6.1l-8.3,1.1l0.1-6.2&#10;&#9;&#9;c0-1.3-0.4-2.3-1.3-3c-0.9-0.8-2-1.1-3.2-0.9c-1.3,0.2-2.3,0.8-3.2,1.8c-0.9,1-1.4,2.1-1.4,3.4l-0.4,29c0,1.3,0.4,2.3,1.3,3&#10;&#9;&#9;c0.9,0.8,1.9,1.1,3.2,0.9c1.3-0.1,2.3-0.7,3.3-1.8c0.9-1,1.4-2.1,1.4-3.4l0.1-7.3l8.3-1.1l-0.1,7.4c-0.1,3.5-1.3,6.7-3.8,9.4&#10;&#9;&#9;C638,526.3,635,527.9,631.6,528.3L631.6,528.3z M658.8,479.3l-8.5,1.1l0.1-8l24.8-3.2l-0.1,7.9l-8.4,1.1l-0.7,44.9l-7.9,1.1&#10;&#9;&#9;L658.8,479.3z M688.8,520.2l-8,1.1l0.8-52.9l7.9-1.1L688.8,520.2z M709.2,464.1c3.5-0.5,6.5,0.4,8.9,2.5c2.4,2.2,3.6,5,3.6,8.5&#10;&#9;&#9;l-0.5,28.8c0,3.5-1.3,6.7-3.8,9.5c-2.5,2.8-5.5,4.4-9,4.9c-3.5,0.5-6.5-0.4-8.9-2.6c-2.4-2.1-3.6-5-3.5-8.5l0.4-28.8&#10;&#9;&#9;c0-3.5,1.3-6.7,3.8-9.5C702.8,466.2,705.8,464.5,709.2,464.1L709.2,464.1z M713.4,476c0-1.3-0.4-2.3-1.3-3&#10;&#9;&#9;c-0.9-0.8-1.9-1.1-3.2-0.9c-1.3,0.2-2.3,0.7-3.3,1.8c-0.9,1-1.4,2.1-1.4,3.4l-0.4,29c0,1.3,0.4,2.3,1.3,3c0.9,0.8,2,1.1,3.2,0.9&#10;&#9;&#9;c1.3-0.2,2.4-0.8,3.3-1.8c0.9-1,1.4-2.1,1.4-3.4L713.4,476z M737.8,461l10,34.1l0.5-35.5l7.9-1.1l-0.8,52.9l-8.5,1.1l-10.5-32.5&#10;&#9;&#9;L736,514l-7.9,1.1l0.8-52.9L737.8,461z M816.3,450.8l8.4-1.1l-9.1,54l-7.6,1l-4.1-28.3l-4.6,29.4l-7.6,1l-8-51.7l8.3-1.1l3.7,27.8&#10;&#9;&#9;l4.2-28.8l8.4-1.1l3.7,27.8L816.3,450.8z M842.8,446.6c3.5-0.5,6.5,0.4,8.9,2.6c2.4,2.1,3.6,5,3.5,8.5l-0.4,28.8&#10;&#9;&#9;c0,3.5-1.3,6.7-3.8,9.5c-2.5,2.8-5.5,4.4-9,4.9c-3.5,0.5-6.5-0.4-8.9-2.6c-2.4-2.2-3.6-5-3.5-8.5L830,461c0-3.5,1.3-6.7,3.8-9.5&#10;&#9;&#9;C836.3,448.7,839.3,447.1,842.8,446.6L842.8,446.6z M846.9,458.6c0-1.3-0.4-2.3-1.3-3.1c-0.9-0.7-1.9-1.1-3.2-0.9&#10;&#9;&#9;c-1.3,0.1-2.3,0.7-3.3,1.8c-0.9,1-1.4,2.1-1.4,3.4l-0.4,29c0,1.3,0.4,2.3,1.3,3c0.9,0.8,2,1.1,3.2,0.9c1.3-0.2,2.3-0.8,3.3-1.8&#10;&#9;&#9;c0.9-1,1.4-2.1,1.4-3.4L846.9,458.6z M875,443.1c4.4-0.6,7.7,0.2,9.7,2.4c1.8,1.9,2.7,4.8,2.6,8.6l-0.1,7.7c0,3.7-1.5,7.1-4.4,10&#10;&#9;&#9;l5.5,22.3l-8.6,1.1l-4.5-19.3c-0.2,0-0.5,0.1-0.7,0.1l-4.6,0.6l-0.3,19.9l-7.9,1l0.8-52.9L875,443.1z M879.5,455.2&#10;&#9;&#9;c0.1-3.1-1.4-4.4-4.5-4l-4.8,0.6l-0.2,16.9l4.8-0.6c1.3-0.2,2.3-0.8,3.3-1.8c0.9-1,1.4-2.2,1.4-3.4L879.5,455.2z M903.4,475.5&#10;&#9;&#9;l-0.2,16.7l-8,1.1l0.8-52.9l8-1.1l-0.3,18.9l10-20.1l8.5-1.1L910.9,460l12.3,29.6l-9.3,1.2l-8-20.3L903.4,475.5z M929.6,488.7&#10;&#9;&#9;l0.8-52.9l22.6-2.9l-0.1,7.9l-14.7,1.9l-0.2,14.5l10.7-1.4l-0.1,8l-10.7,1.4l-0.2,14.5l14.7-1.9l-0.1,8L929.6,488.7z M971.1,430.6&#10;&#9;&#9;c4.4-0.6,7.7,0.2,9.7,2.4c1.8,1.9,2.7,4.8,2.6,8.6l-0.1,7.7c0,3.7-1.5,7.1-4.4,10l5.5,22.3l-8.6,1.1l-4.5-19.3&#10;&#9;&#9;c-0.2,0-0.5,0.1-0.7,0.1l-4.6,0.6l-0.3,19.9l-7.9,1l0.8-52.8L971.1,430.6z M975.6,442.7c0.1-3.1-1.4-4.4-4.5-4l-4.8,0.6l-0.2,16.9&#10;&#9;&#9;l4.8-0.6c1.3-0.2,2.3-0.8,3.3-1.8c0.9-1,1.3-2.1,1.4-3.4L975.6,442.7z M1015.1,464.4c0,3.7-1,7-3,9.8c-1.3,1.9-3.2,3.4-5.5,4.5&#10;&#9;&#9;c-1.3,0.6-2.8,0.9-4.4,1.2c-3.1,0.4-5.7,0-7.7-1.3c-1.7-1.1-3-2.6-4-4.7c-0.9-2.1-1.5-4.5-1.6-7.2l7.6-1.5c0.3,3,1.1,5.1,2.3,6.3&#10;&#9;&#9;c0.9,0.9,2,1.3,3.3,1.1c1.7-0.3,3.1-1.3,4.2-3.1c0.6-0.9,0.8-2.1,0.9-3.6c0-2.2-0.9-4.2-2.9-6.2c-1.5-1.3-3.9-3.2-7-5.8&#10;&#9;&#9;c-2.6-2.2-4.4-4.3-5.5-6.1c-1.2-2.1-1.7-4.6-1.7-7.2c0.1-4.8,1.7-8.6,5-11.6c2-1.8,4.5-2.8,7.5-3.2c2.8-0.4,5.2,0,7.2,1&#10;&#9;&#9;c1.6,0.8,2.8,2,3.7,3.6c0.9,1.7,1.5,3.6,1.7,5.9l-7.7,2.4c-0.2-2.1-0.8-3.7-1.7-4.8c-0.7-0.8-1.8-1.1-3.1-0.9&#10;&#9;&#9;c-1.5,0.2-2.6,1-3.4,2.4c-0.6,1.1-0.9,2.5-1,4c0,2.5,1,4.8,3,7c0.8,0.8,1.9,1.8,3.5,2.9c1.9,1.3,3,2.2,3.6,2.8&#10;&#9;&#9;c1.9,1.7,3.4,3.5,4.4,5.2c0.5,0.8,0.9,1.6,1.2,2.3C1014.7,461.3,1015.1,462.9,1015.1,464.4L1015.1,464.4z"/>
	<path fill="#333333" d="M402.8,554.3c-3.5,0.5-6.4-0.4-8.9-2.5c-2.4-2.1-3.6-4.9-3.5-8.4l0.4-28.8c0.1-3.5,1.3-6.7,3.8-9.5&#10;&#9;&#9;c2.5-2.8,5.5-4.4,9-4.9c3.5-0.5,6.5,0.4,8.9,2.6c2.4,2.2,3.6,5,3.5,8.5l-0.1,6l-8.3,1.1l0.1-6.2c0-1.3-0.4-2.3-1.3-3.1&#10;&#9;&#9;c-0.9-0.8-2-1.1-3.2-0.9c-1.3,0.1-2.3,0.7-3.3,1.8c-0.9,1-1.4,2.2-1.4,3.4l-0.4,29c0,1.3,0.4,2.3,1.3,3c0.9,0.8,1.9,1.1,3.2,0.9&#10;&#9;&#9;c1.3-0.2,2.3-0.8,3.3-1.8c0.9-1,1.4-2.1,1.4-3.4l0.1-7.3l8.2-1.1l-0.1,7.4c0,3.5-1.3,6.7-3.8,9.4&#10;&#9;&#9;C409.3,552.2,406.3,553.8,402.8,554.3L402.8,554.3z M435.2,495.9c3.5-0.5,6.5,0.4,8.9,2.6c2.4,2.1,3.6,5,3.5,8.4l-0.4,28.9&#10;&#9;&#9;c-0.1,3.5-1.3,6.7-3.8,9.5c-2.5,2.8-5.5,4.4-9,4.8c-3.5,0.5-6.4-0.4-8.9-2.5c-2.4-2.2-3.6-5-3.5-8.5l0.5-28.9&#10;&#9;&#9;c0-3.5,1.3-6.7,3.8-9.4C428.8,498,431.8,496.4,435.2,495.9L435.2,495.9z M439.4,507.8c0-1.3-0.4-2.3-1.3-3c-0.9-0.8-2-1.1-3.2-0.9&#10;&#9;&#9;c-1.3,0.2-2.3,0.8-3.3,1.8c-0.9,1-1.4,2.1-1.4,3.4l-0.4,29c0,1.3,0.4,2.3,1.3,3s2,1.1,3.2,0.9c1.3-0.1,2.3-0.7,3.3-1.8&#10;&#9;&#9;c0.9-1,1.3-2.1,1.4-3.4L439.4,507.8z M463.8,492.8l10,34.1l0.5-35.5l8-1l-0.8,52.9l-8.5,1.1L462.5,512l-0.5,33.9l-7.9,1.1l0.8-52.9&#10;&#9;&#9;L463.8,492.8z M514.6,525.9c0,3.7-1,6.9-3,9.8c-1.3,2-3.1,3.4-5.5,4.5c-1.3,0.6-2.7,0.9-4.4,1.2c-3.1,0.4-5.7,0-7.7-1.3&#10;&#9;&#9;c-1.7-1.1-3-2.6-4-4.6c-1-2.1-1.5-4.5-1.6-7.3l7.6-1.5c0.3,3,1,5.1,2.3,6.3c0.9,0.9,2,1.3,3.3,1.1c1.7-0.3,3.1-1.3,4.2-3.1&#10;&#9;&#9;c0.6-0.9,0.8-2.1,0.8-3.6c0-2.2-0.9-4.2-2.9-6.1c-1.6-1.3-3.9-3.2-7-5.8c-2.6-2.2-4.4-4.2-5.5-6.1c-1.2-2.1-1.7-4.5-1.7-7.2&#10;&#9;&#9;c0.1-4.8,1.7-8.7,5-11.6c2-1.8,4.5-2.8,7.5-3.2c2.8-0.4,5.2-0.1,7.2,0.9c1.6,0.8,2.8,2,3.7,3.6c0.9,1.6,1.5,3.6,1.7,5.9l-7.7,2.4&#10;&#9;&#9;c-0.2-2.1-0.8-3.7-1.8-4.8c-0.7-0.8-1.7-1.1-3.1-0.9c-1.5,0.2-2.6,1-3.4,2.4c-0.6,1.1-0.9,2.5-1,4c0,2.4,0.9,4.7,3,7&#10;&#9;&#9;c0.8,0.9,1.9,1.8,3.5,2.9c1.9,1.3,3,2.2,3.6,2.8c1.9,1.7,3.4,3.5,4.4,5.3c0.5,0.8,0.9,1.6,1.2,2.3&#10;&#9;&#9;C514.2,522.7,514.6,524.4,514.6,525.9L514.6,525.9z M529,492.3l-8.5,1.1l0.1-7.9l24.8-3.3l-0.1,8l-8.4,1.1l-0.7,44.9l-7.9,1.1&#10;&#9;&#9;L529,492.3z M564.4,479.7c4.4-0.6,7.7,0.2,9.7,2.4c1.8,1.9,2.7,4.8,2.6,8.6l-0.1,7.7c-0.1,3.7-1.5,7.1-4.4,10l5.6,22.3l-8.6,1.1&#10;&#9;&#9;l-4.5-19.3c-0.2,0-0.5,0-0.7,0.1l-4.6,0.6l-0.3,19.9l-8,1.1l0.8-52.9L564.4,479.7z M569,491.8c0-3-1.5-4.4-4.5-4l-4.8,0.6&#10;&#9;&#9;l-0.3,16.9l4.8-0.6c1.3-0.2,2.3-0.7,3.2-1.8c0.9-1,1.4-2.2,1.4-3.4L569,491.8z M595.9,529c-3.5,0.5-6.5-0.4-8.9-2.5&#10;&#9;&#9;c-2.4-2.1-3.6-4.9-3.5-8.4l0.6-40.9l7.8-1l-0.6,40.8c0,1.3,0.4,2.3,1.3,3c0.9,0.8,2,1.1,3.2,0.9c1.3-0.2,2.3-0.7,3.3-1.8&#10;&#9;&#9;c0.9-1,1.4-2.1,1.4-3.4L601,475l8.3-1.1l-0.6,40.9c-0.1,3.6-1.3,6.7-3.8,9.5C602.4,526.9,599.3,528.5,595.9,529L595.9,529z&#10;&#9;&#9; M628.1,524.8c-3.5,0.5-6.5-0.4-8.9-2.5s-3.6-5-3.6-8.4l0.5-28.9c0-3.5,1.3-6.7,3.8-9.4c2.5-2.8,5.5-4.4,9-4.9s6.5,0.4,8.9,2.6&#10;&#9;&#9;c2.4,2.1,3.6,5,3.5,8.4l-0.1,6.1l-8.3,1.1l0.1-6.2c0-1.3-0.4-2.3-1.3-3c-0.9-0.8-2-1.1-3.2-0.9c-1.3,0.2-2.3,0.8-3.2,1.8&#10;&#9;&#9;c-0.9,1-1.4,2.1-1.4,3.4l-0.4,29c0,1.3,0.4,2.3,1.3,3c0.9,0.8,1.9,1.1,3.2,0.9c1.3-0.1,2.3-0.7,3.3-1.8c0.9-1,1.4-2.1,1.4-3.4&#10;&#9;&#9;l0.1-7.3l8.3-1.1l-0.1,7.4c-0.1,3.5-1.3,6.7-3.8,9.4C634.5,522.8,631.5,524.4,628.1,524.8L628.1,524.8z M655.3,475.8l-8.5,1.1&#10;&#9;&#9;l0.1-8l24.8-3.2l-0.1,7.9l-8.4,1.1l-0.7,44.9l-7.9,1.1L655.3,475.8z M685.3,516.7l-8,1.1l0.8-52.9l7.9-1.1L685.3,516.7z&#10;&#9;&#9; M705.7,460.6c3.5-0.5,6.5,0.4,8.9,2.5c2.4,2.2,3.6,5,3.6,8.5l-0.5,28.8c0,3.5-1.3,6.7-3.8,9.5c-2.5,2.8-5.5,4.4-9,4.9&#10;&#9;&#9;c-3.5,0.5-6.5-0.4-8.9-2.6c-2.4-2.1-3.6-5-3.5-8.5l0.4-28.8c0-3.5,1.3-6.7,3.8-9.5C699.3,462.7,702.3,461,705.7,460.6L705.7,460.6z&#10;&#9;&#9; M709.9,472.5c0-1.3-0.4-2.3-1.3-3c-0.9-0.8-1.9-1.1-3.2-0.9c-1.3,0.2-2.3,0.7-3.3,1.8c-0.9,1-1.4,2.1-1.4,3.4l-0.4,29&#10;&#9;&#9;c0,1.3,0.4,2.3,1.3,3c0.9,0.8,2,1.1,3.2,0.9c1.3-0.2,2.4-0.8,3.3-1.8c0.9-1,1.4-2.1,1.4-3.4L709.9,472.5z M734.3,457.5l10,34.1&#10;&#9;&#9;l0.5-35.5l7.9-1.1L752,508l-8.5,1.1L733,476.6l-0.5,33.9l-7.9,1.1l0.8-52.9L734.3,457.5z M812.8,447.3l8.4-1.1l-9.1,54l-7.6,1&#10;&#9;&#9;l-4.1-28.3l-4.6,29.4l-7.6,1l-8-51.7l8.3-1.1l3.7,27.8l4.2-28.8l8.4-1.1l3.7,27.8L812.8,447.3z M839.3,443.1&#10;&#9;&#9;c3.5-0.5,6.5,0.4,8.9,2.6c2.4,2.1,3.6,5,3.5,8.5l-0.4,28.8c0,3.5-1.3,6.7-3.8,9.5c-2.5,2.8-5.5,4.4-9,4.9c-3.5,0.5-6.5-0.4-8.9-2.6&#10;&#9;&#9;c-2.4-2.2-3.6-5-3.5-8.5l0.5-28.8c0-3.5,1.3-6.7,3.8-9.5C832.8,445.2,835.8,443.6,839.3,443.1L839.3,443.1z M843.4,455.1&#10;&#9;&#9;c0-1.3-0.4-2.3-1.3-3.1c-0.9-0.7-1.9-1.1-3.2-0.9c-1.3,0.1-2.3,0.7-3.3,1.8c-0.9,1-1.4,2.1-1.4,3.4l-0.4,29c0,1.3,0.4,2.3,1.3,3&#10;&#9;&#9;c0.9,0.8,2,1.1,3.2,0.9c1.3-0.2,2.3-0.8,3.3-1.8c0.9-1,1.4-2.1,1.4-3.4L843.4,455.1z M871.5,439.6c4.4-0.6,7.7,0.2,9.7,2.4&#10;&#9;&#9;c1.8,1.9,2.7,4.8,2.6,8.6l-0.1,7.7c0,3.7-1.5,7.1-4.4,10l5.5,22.3l-8.6,1.1l-4.5-19.3c-0.2,0-0.5,0.1-0.7,0.1l-4.6,0.6l-0.3,19.9&#10;&#9;&#9;l-7.9,1l0.8-52.9L871.5,439.6z M876,451.7c0.1-3.1-1.4-4.4-4.5-4l-4.8,0.6l-0.2,16.9l4.8-0.6c1.3-0.2,2.3-0.8,3.3-1.8&#10;&#9;&#9;c0.9-1,1.4-2.2,1.4-3.4L876,451.7z M899.9,472l-0.2,16.7l-8,1.1l0.8-52.9l8-1.1l-0.3,18.9l10-20.1l8.5-1.1l-11.2,23.1l12.3,29.6&#10;&#9;&#9;l-9.3,1.2l-8-20.3L899.9,472z M926.1,485.2l0.8-52.9l22.6-2.9l-0.1,7.9l-14.7,1.9l-0.2,14.5l10.7-1.4l-0.1,8l-10.7,1.4l-0.2,14.5&#10;&#9;&#9;l14.7-1.9l-0.1,8L926.1,485.2z M967.6,427.1c4.4-0.6,7.7,0.2,9.7,2.4c1.8,1.9,2.7,4.8,2.6,8.6l-0.1,7.7c0,3.7-1.5,7.1-4.4,10&#10;&#9;&#9;l5.5,22.3l-8.6,1.1l-4.5-19.3c-0.2,0-0.5,0.1-0.7,0.1l-4.6,0.6l-0.3,19.9l-7.9,1l0.8-52.8L967.6,427.1z M972.1,439.2&#10;&#9;&#9;c0.1-3.1-1.4-4.4-4.5-4l-4.8,0.6l-0.2,16.9l4.8-0.6c1.3-0.2,2.3-0.8,3.3-1.8c0.9-1,1.3-2.1,1.4-3.4L972.1,439.2z M1011.6,460.9&#10;&#9;&#9;c0,3.7-1,7-3,9.8c-1.3,1.9-3.2,3.4-5.5,4.5c-1.3,0.6-2.8,0.9-4.4,1.2c-3.1,0.4-5.7,0-7.7-1.3c-1.7-1.1-3-2.6-4-4.7&#10;&#9;&#9;c-0.9-2.1-1.5-4.5-1.6-7.2l7.6-1.5c0.3,3,1.1,5.1,2.3,6.3c0.9,0.9,2,1.3,3.3,1.1c1.7-0.3,3.1-1.3,4.2-3.1c0.6-0.9,0.8-2.1,0.9-3.6&#10;&#9;&#9;c0-2.2-0.9-4.2-2.9-6.2c-1.5-1.3-3.9-3.2-7-5.8c-2.6-2.2-4.4-4.3-5.5-6.1c-1.2-2.1-1.7-4.6-1.7-7.2c0.1-4.8,1.7-8.6,5-11.6&#10;&#9;&#9;c2-1.8,4.5-2.8,7.5-3.2c2.8-0.4,5.2,0,7.2,1c1.6,0.8,2.8,2,3.7,3.6c0.9,1.7,1.5,3.6,1.7,5.9l-7.7,2.4c-0.2-2.1-0.8-3.7-1.7-4.8&#10;&#9;&#9;c-0.7-0.8-1.8-1.1-3.1-0.9c-1.5,0.2-2.6,1-3.4,2.4c-0.6,1.1-0.9,2.5-1,4c0,2.5,1,4.8,3,7c0.8,0.8,1.9,1.8,3.5,2.9&#10;&#9;&#9;c1.9,1.3,3,2.2,3.6,2.8c1.9,1.7,3.4,3.5,4.4,5.2c0.5,0.8,0.9,1.6,1.2,2.3C1011.2,457.8,1011.6,459.4,1011.6,460.9L1011.6,460.9z"/>
</g>
</svg>